<svg width="100" height="100" fill="none" xmlns="http://www.w3.org/2000/svg"><g clip-path="url(#clip0)"><path d="M97.758 79.03L82.315 63.583c-3.076-3.064-8.17-2.97-11.354.214l-7.78 7.778c-.492-.27-1-.553-1.535-.854C56.732 68 50.008 64.27 42.93 57.187 35.834 50.091 32.1 43.356 29.37 38.44c-.289-.52-.565-1.023-.837-1.5l5.222-5.214 2.567-2.57c3.188-3.19 3.276-8.282.207-11.354L21.084 2.354C18.016-.714 12.92-.621 9.731 2.568L5.38 6.945l.119.118A25.167 25.167 0 001.91 13.39C1.075 15.594.554 17.698.316 19.806c-2.04 16.906 5.686 32.356 26.651 53.322 28.98 28.979 52.335 26.79 53.343 26.682a26.061 26.061 0 006.434-1.617 25.044 25.044 0 006.303-3.57l.096.084 4.41-4.318c3.181-3.188 3.273-8.282.205-11.36z" fill="#6A6A6D"/></g><defs><clipPath id="clip0"><path fill="#fff" d="M0 0h100v100H0z"/></clipPath></defs></svg>