<svg width="40" height="40" viewBox="0 0 40 40" fill="none" xmlns="http://www.w3.org/2000/svg">
<g clip-path="url(#clip0)">
<path d="M20 40C31.027 40 40 31.027 40 20C40 8.973 31.027 0 20 0C8.973 0 0 8.973 0 20C0 31.027 8.973 40 20 40ZM11.204 18.523L16.536 12.244C16.986 11.713 17.63 11.439 18.275 11.439C18.796 11.439 19.322 11.618 19.752 11.982C20.712 12.795 20.83 14.236 20.015 15.197L17.873 17.718L27.059 17.718C28.319 17.718 29.34 18.739 29.34 19.999C29.34 21.259 28.319 22.28 27.059 22.28L17.873 22.28L20.015 24.801C20.83 25.762 20.712 27.201 19.752 28.018C18.792 28.833 17.352 28.715 16.536 27.754L11.204 21.475C10.48 20.625 10.48 19.375 11.204 18.523Z" fill="black"/>
</g>
<defs>
<clipPath id="clip0">
<rect width="40" height="40" fill="white" transform="translate(40 40) rotate(-180)"/>
</clipPath>
</defs>
</svg>
