<svg width="44" height="44" viewBox="0 0 44 44" fill="none" xmlns="http://www.w3.org/2000/svg">
<g clip-path="url(#clip0)">
<circle cx="22" cy="22" r="22" fill="white"/>
<path d="M22 42C33.027 42 42 33.027 42 22C42 10.973 33.027 2 22 2C10.973 2 2 10.973 2 22C2 33.027 10.973 42 22 42ZM13.204 20.523L18.536 14.244C18.986 13.713 19.63 13.439 20.275 13.439C20.796 13.439 21.322 13.618 21.752 13.982C22.712 14.795 22.83 16.236 22.015 17.197L19.873 19.718L29.059 19.718C30.319 19.718 31.34 20.739 31.34 21.999C31.34 23.259 30.319 24.28 29.059 24.28L19.873 24.28L22.015 26.801C22.83 27.762 22.712 29.201 21.752 30.018C20.792 30.833 19.352 30.715 18.536 29.754L13.204 23.475C12.48 22.625 12.48 21.375 13.204 20.523Z" fill="black"/>
</g>
<defs>
<clipPath id="clip0">
<rect width="44" height="44" fill="white" transform="translate(44 44) rotate(-180)"/>
</clipPath>
</defs>
</svg>
