<svg width="40" height="40" viewBox="0 0 40 40" fill="none" xmlns="http://www.w3.org/2000/svg">
<path d="M20 0C8.973 0 0 8.973 0 20C0 31.027 8.973 40 20 40C31.027 40 40 31.027 40 20C40 8.973 31.027 0 20 0ZM28.796 21.477L23.464 27.756C23.014 28.287 22.37 28.561 21.725 28.561C21.204 28.561 20.678 28.382 20.248 28.018C19.288 27.205 19.17 25.764 19.985 24.803L22.127 22.282H12.941C11.681 22.282 10.66 21.261 10.66 20.001C10.66 18.741 11.681 17.72 12.941 17.72H22.127L19.985 15.199C19.17 14.238 19.288 12.799 20.248 11.982C21.208 11.167 22.648 11.285 23.464 12.246L28.796 18.525C29.52 19.375 29.52 20.625 28.796 21.477Z" fill="black"/>
</svg>
