<svg width="44" height="44" viewBox="0 0 44 44" fill="none" xmlns="http://www.w3.org/2000/svg">
<circle cx="22" cy="22" r="22" fill="white"/>
<path d="M22 2C10.973 2 2 10.973 2 22C2 33.027 10.973 42 22 42C33.027 42 42 33.027 42 22C42 10.973 33.027 2 22 2ZM30.796 23.477L25.464 29.756C25.014 30.287 24.37 30.561 23.725 30.561C23.204 30.561 22.678 30.382 22.248 30.018C21.288 29.205 21.17 27.764 21.985 26.803L24.127 24.282H14.941C13.681 24.282 12.66 23.261 12.66 22.001C12.66 20.741 13.681 19.72 14.941 19.72H24.127L21.985 17.199C21.17 16.238 21.288 14.799 22.248 13.982C23.208 13.167 24.648 13.285 25.464 14.246L30.796 20.525C31.52 21.375 31.52 22.625 30.796 23.477Z" fill="black"/>
</svg>
