<svg id="Layer_1" enable-background="new 0 0 256 256" height="512" viewBox="0 0 256 256" width="512" xmlns="http://www.w3.org/2000/svg"><path d="m27.019 42.908c-.654 0-1.256-.357-1.569-.93l-4.675-8.543-8.538-4.672c-.574-.313-.931-.915-.931-1.569s.356-1.256.931-1.569l8.538-4.672 4.675-8.543c.314-.573.915-.93 1.569-.93.654 0 1.256.357 1.57.931l4.668 8.542 8.546 4.671c.573.314.931.916.931 1.57s-.357 1.256-.931 1.57l-8.546 4.671-4.668 8.542c-.314.574-.915.931-1.57.931z" fill="#b8dff4"/><path d="m27.019 13.268 4.92 9.003 9.006 4.923-9.006 4.923-4.92 9.003-4.926-9.003-8.998-4.923 8.998-4.923zm0-3.579c-1.308 0-2.512.713-3.139 1.861l-4.423 8.084-8.08 4.42c-1.146.627-1.86 1.831-1.86 3.139s.714 2.511 1.86 3.139l8.08 4.42 4.423 8.084c.627 1.147 1.831 1.861 3.139 1.861h.001c1.308 0 2.512-.714 3.139-1.862l4.417-8.083 8.085-4.419c1.149-.627 1.862-1.832 1.862-3.14s-.714-2.512-1.862-3.14l-8.085-4.419-4.417-8.083c-.627-1.148-1.831-1.862-3.139-1.862z" fill="#24202b"/><path d="m168.408 31.71c-.654 0-1.256-.357-1.569-.931l-3.55-6.492-6.487-3.548c-.574-.313-.931-.916-.931-1.569 0-.654.356-1.256.931-1.569l6.487-3.548 3.55-6.493c.313-.574.915-.931 1.569-.931s1.256.357 1.569.931l3.55 6.492 6.493 3.548c.573.314.931.916.931 1.57s-.357 1.256-.931 1.57l-6.493 3.548-3.55 6.491c-.313.574-.915.931-1.569.931z" fill="#b8dff4"/><path d="m168.408 8.418 3.801 6.952 6.953 3.8-6.953 3.8-3.801 6.951-3.801-6.951-6.947-3.8 6.947-3.8zm0-3.578c-1.309 0-2.512.714-3.14 1.862l-3.298 6.032-6.027 3.297c-1.148.627-1.861 1.831-1.861 3.139s.714 2.512 1.861 3.139l6.027 3.297 3.298 6.031c.628 1.148 1.832 1.862 3.14 1.862s2.512-.714 3.14-1.862l3.298-6.031 6.032-3.297c1.148-.628 1.862-1.832 1.862-3.14s-.714-2.512-1.862-3.14l-6.032-3.297-3.298-6.032c-.628-1.146-1.831-1.86-3.14-1.86z" fill="#24202b"/><path d="m196.143 140.838s-.225-.093-.334-.155c-.109-.054-.318-.183-.318-.183-12.434-6.699-17.641-19.408-17.641-19.408l13.07-11.691 16.219 8.283.66.335 16.227 8.287-1.818 17.443c-.001 0-13.345 3.236-26.065-2.911z" fill="#ffdc00"/><path d="m196.143 140.838s-.225-.093-.334-.155c-.109-.054-.318-.183-.318-.183-12.434-6.699-17.641-19.408-17.641-19.408l13.07-11.691 16.219 8.283.66.335 16.227 8.287-1.818 17.443c-.001 0-13.345 3.236-26.065-2.911z" fill="#ffdc00"/><path d="m200.75 142.668c-1.529-.489-3.068-1.087-4.607-1.83 0 0-.225-.093-.334-.155-.109-.054-.318-.183-.318-.183-12.434-6.699-17.641-19.408-17.641-19.408l13.07-11.691 9.451 4.822-13.072 11.69s4.025 9.827 13.451 16.755z" fill="#e0bb07"/><path d="m208.633 118.496-2.488-1.271-19.475-9.95 4.693-9.189s9.459-7.907 18.83-3.12l14.229-32.298s2.043-5.812 10.848-2.462c0 0 .902.311 1.299.539.41.188 1.189.731 1.189.731 7.879 5.172 4.367 10.238 4.367 10.238l-17.828 30.455c9.373 4.787 8.502 17.081 8.502 17.081l-4.693 9.193z" fill="#ff8b38"/><path d="m232.1 66.589-14.229 32.301c-9.373-4.787-18.83 3.12-18.83 3.12l-4.693 9.189-7.678-3.924 4.693-9.189s9.459-7.907 18.83-3.12l14.229-32.298s2.043-5.812 10.848-2.462c0 0 .902.311 1.299.539.41.188 1.189.731 1.189.731.939.614 1.701 1.227 2.338 1.826-6.403-1.22-7.996 3.287-7.996 3.287z" fill="#e57225"/><g fill="#24202b"><path d="m213.552 146.403c-5.073 0-11.665-.809-18.161-3.941-.096-.042-.271-.121-.4-.188-.12-.062-.294-.164-.383-.217-12.824-6.928-18.191-19.744-18.413-20.287-.287-.701-.102-1.507.463-2.012l13.07-11.691c.55-.493 1.35-.596 2.006-.26l33.105 16.905c.659.336 1.043 1.043.966 1.779l-1.818 17.443c-.078.753-.622 1.375-1.357 1.553-.289.071-3.891.916-9.078.916zm-33.52-24.863c1.571 3.162 6.722 12.221 16.307 17.385.03.016.061.034.09.052.007.004.111.069.181.106.122.063.209.098.218.102.031.013.063.027.094.042 9.84 4.755 20.167 3.605 23.645 3.02l1.554-14.906-30.921-15.79z"/><path d="m228.105 130.232c-.28 0-.56-.066-.813-.196l-41.436-21.168c-.88-.45-1.229-1.527-.779-2.407l4.693-9.189c.109-.215.261-.405.445-.559.399-.334 9.388-7.708 19.061-4.103l13.489-30.62c.194-.501 1.147-2.621 3.73-3.82 2.526-1.172 5.692-1.051 9.41.364.186.063.971.341 1.481.62.511.248 1.189.712 1.393.854 3.284 2.155 5.24 4.649 5.771 7.386.544 2.797-.615 4.814-.907 5.265l-16.901 28.873c8.59 5.728 7.877 17.326 7.84 17.845-.017.239-.082.473-.19.687l-4.693 9.193c-.216.423-.591.742-1.042.889-.18.058-.366.086-.552.086zm-39.028-23.736 20.369 10.407 17.88 9.133 3.7-7.248c.036-1.892-.169-11.259-7.543-15.026-.438-.224-.766-.619-.903-1.091-.139-.472-.076-.981.173-1.406l17.828-30.455c.023-.04.048-.078.073-.115.227-.352 2.17-3.753-3.878-7.724-.381-.264-.815-.537-.952-.599-.051-.023-.101-.049-.149-.077-.131-.075-.602-.264-.988-.397-2.793-1.063-5.087-1.223-6.684-.481-1.424.661-1.89 1.833-1.894 1.845-.015.043-.032.086-.051.128l-14.228 32.297c-.198.451-.573.799-1.037.964-.464.166-.977.131-1.413-.092-7.374-3.766-15.084 1.55-16.604 2.693z"/><path d="m186.367 133.441c-.48 0-.96-.193-1.312-.573-.671-.725-.628-1.857.097-2.528l15.543-14.399c.725-.671 1.855-.629 2.528.097.671.725.628 1.857-.097 2.528l-15.543 14.399c-.345.319-.78.476-1.216.476z"/><path d="m208.664 144.458c-.11 0-.222-.01-.334-.032-.971-.184-1.609-1.119-1.426-2.09l3.723-19.688c.183-.971 1.118-1.614 2.09-1.425.971.184 1.609 1.119 1.426 2.09l-3.723 19.687c-.162.859-.913 1.458-1.756 1.458z"/></g><path d="m47.164 65.217v174.407c0 4.396 3.559 7.958 7.957 7.958h109.891c4.391 0 7.959-3.562 7.959-7.958v-174.407z" fill="#ff8b38"/><path d="m172.971 74.383v-9.166h-115.914-9.892v9.166 165.241c0 4.396 3.559 7.958 7.957 7.958h9.893c-4.391 0-7.957-3.562-7.957-7.958v-165.241z" fill="#e57225"/><path d="m183.328 60.076c0 2.841-2.301 5.141-5.139 5.141h-135.277c-2.844 0-5.144-2.3-5.144-5.141 0-2.84 2.301-5.14 5.144-5.14h135.277c2.838.001 5.139 2.3 5.139 5.14z" fill="#ffdc00"/><path d="m52.859 60.076c0-2.84 2.301-5.14 5.145-5.14h-15.092c-2.844 0-5.144 2.3-5.144 5.14 0 2.841 2.301 5.141 5.144 5.141h15.092c-2.844 0-5.145-2.3-5.145-5.141z" fill="#bc9906"/><path d="m178.189 67.006h-135.277c-3.823 0-6.934-3.109-6.934-6.93 0-3.82 3.11-6.929 6.934-6.929h85.049c.988 0 1.789.801 1.789 1.789s-.801 1.789-1.789 1.789h-85.049c-1.851 0-3.355 1.503-3.355 3.351s1.505 3.352 3.355 3.352h135.277c.988 0 1.789.801 1.789 1.789.001.988-.8 1.789-1.789 1.789z" fill="#24202b"/><path d="m165.012 249.371h-109.891c-5.374 0-9.746-4.373-9.746-9.747v-174.407c0-.988.801-1.789 1.789-1.789s1.789.801 1.789 1.789v174.407c0 3.401 2.767 6.169 6.168 6.169h109.891c3.402 0 6.17-2.768 6.17-6.169v-71.412c0-.988.801-1.789 1.789-1.789s1.789.801 1.789 1.789v71.412c0 5.375-4.373 9.747-9.748 9.747z" fill="#24202b"/><path d="m130.936 247.582v-39.124c0-4.393-3.559-7.957-7.957-7.957h-25.194c-4.4 0-7.957 3.563-7.957 7.957v39.124z" fill="#b8dff4"/><path d="m130.936 249.371h-41.108c-.988 0-1.789-.801-1.789-1.789v-39.124c0-5.374 4.372-9.746 9.746-9.746h25.193c5.374 0 9.746 4.372 9.746 9.746v39.124c.001.988-.8 1.789-1.788 1.789zm-39.319-3.578h37.529v-37.335c0-3.401-2.767-6.168-6.168-6.168h-25.193c-3.401 0-6.168 2.767-6.168 6.168z" fill="#24202b"/><path d="m110.553 248.928c-.988 0-1.789-.801-1.789-1.789v-46.638c0-.988.801-1.789 1.789-1.789s1.789.801 1.789 1.789v46.638c0 .988-.801 1.789-1.789 1.789z" fill="#24202b"/><path d="m105.742 54.937v-21.087c0-4.395-3.566-7.958-7.957-7.958h-26.531c-4.391 0-7.959 3.563-7.959 7.958v21.087z" fill="#c2cbe8"/><path d="m105.742 56.726h-42.447c-.988 0-1.789-.801-1.789-1.789v-21.087c0-5.375 4.373-9.747 9.748-9.747h26.531c5.374 0 9.746 4.373 9.746 9.747v21.087c0 .988-.801 1.789-1.789 1.789zm-40.658-3.579h38.869v-19.297c0-3.401-2.767-6.169-6.168-6.169h-26.531c-3.402 0-6.17 2.768-6.17 6.169z" fill="#24202b"/><path d="m91.396 102.057c0-4.869-2.473-9.158-6.225-11.688l-20.508 29.207h14.873l11.859-17.411v-.108z" fill="#14a2ff"/><path d="m91.396 110.744-.537 2.107-4.638 6.725h5.175z" fill="#14a2ff"/><path d="m77.316 87.972c-7.781 0-14.082 6.303-14.082 14.085v7.293l15.082-21.277c-.341-.024-.66-.101-1-.101z" fill="#14a2ff"/><path d="m91.396 110.744v-8.579l-11.859 17.411h6.684l4.638-6.725z" fill="#b8dff4"/><path d="m78.316 88.072-15.082 21.278v10.227h1.43l20.508-29.207c-1.983-1.338-4.338-2.115-6.856-2.298z" fill="#b8dff4"/><path d="m91.396 121.365h-28.162c-.988 0-1.789-.801-1.789-1.789v-17.52c0-8.753 7.12-15.874 15.871-15.874 8.75 0 15.869 7.121 15.869 15.874v17.52c.001.988-.8 1.789-1.789 1.789zm-26.373-3.578h24.584v-15.73c0-6.78-5.514-12.296-12.291-12.296-6.778 0-12.293 5.516-12.293 12.296z" fill="#24202b"/><path d="m77.316 121.365c-.988 0-1.789-.801-1.789-1.789v-31.604c0-.988.801-1.789 1.789-1.789s1.789.801 1.789 1.789v31.604c0 .988-.8 1.789-1.789 1.789z" fill="#24202b"/><path d="m97.123 124.01c0 2.448-1.99 4.434-4.438 4.434h-31.417c-2.447 0-4.43-1.985-4.43-4.434 0-2.448 1.982-4.434 4.43-4.434h31.418c2.447 0 4.437 1.986 4.437 4.434z" fill="#ffdc00"/><path d="m92.686 130.232h-31.418c-3.429 0-6.219-2.792-6.219-6.223s2.79-6.223 6.219-6.223h31.418c3.434 0 6.227 2.792 6.227 6.223s-2.794 6.223-6.227 6.223zm-31.418-8.867c-1.456 0-2.641 1.187-2.641 2.645s1.185 2.645 2.641 2.645h31.418c1.46 0 2.648-1.187 2.648-2.645s-1.188-2.645-2.648-2.645z" fill="#24202b"/><path d="m158.703 102.057c0-4.869-2.465-9.158-6.219-11.688l-20.508 29.207h14.865l11.861-17.411v-.108z" fill="#14a2ff"/><path d="m158.703 110.744-.529 2.107-4.641 6.725h5.17z" fill="#14a2ff"/><path d="m144.621 87.972c-7.779 0-14.082 6.303-14.082 14.085v7.293l15.082-21.277c-.332-.024-.658-.101-1-.101z" fill="#14a2ff"/><path d="m158.703 110.744v-8.579l-11.861 17.411h6.691l4.641-6.725z" fill="#b8dff4"/><path d="m145.621 88.072-15.082 21.277v10.227h1.438l20.508-29.207c-1.981-1.337-4.337-2.114-6.864-2.297z" fill="#b8dff4"/><path d="m158.703 121.365h-28.164c-.988 0-1.789-.801-1.789-1.789v-17.52c0-8.753 7.12-15.874 15.871-15.874s15.871 7.121 15.871 15.874v17.52c0 .988-.801 1.789-1.789 1.789zm-26.375-3.578h24.586v-15.73c0-6.78-5.515-12.296-12.293-12.296s-12.293 5.516-12.293 12.296z" fill="#24202b"/><path d="m144.621 121.365c-.988 0-1.789-.801-1.789-1.789v-31.604c0-.988.801-1.789 1.789-1.789s1.789.801 1.789 1.789v31.604c0 .988-.801 1.789-1.789 1.789z" fill="#24202b"/><path d="m164.43 124.01c0 2.448-1.982 4.434-4.43 4.434h-31.42c-2.447 0-4.437-1.985-4.437-4.434 0-2.448 1.99-4.434 4.437-4.434h31.42c2.447 0 4.43 1.986 4.43 4.434z" fill="#ffdc00"/><path d="m160 130.232h-31.42c-3.434 0-6.227-2.792-6.227-6.223s2.793-6.223 6.227-6.223h31.42c3.429 0 6.219 2.792 6.219 6.223s-2.79 6.223-6.219 6.223zm-31.42-8.867c-1.46 0-2.648 1.187-2.648 2.645s1.188 2.645 2.648 2.645h31.42c1.456 0 2.641-1.187 2.641-2.645s-1.185-2.645-2.641-2.645z" fill="#24202b"/><path d="m91.396 160.876c0-4.869-2.473-9.158-6.225-11.688l-20.508 29.207h14.873l11.859-17.41v-.109z" fill="#14a2ff"/><path d="m91.396 169.564-.537 2.106-4.638 6.725h5.175z" fill="#14a2ff"/><path d="m77.316 146.791c-7.781 0-14.082 6.303-14.082 14.085v7.294l15.082-21.278c-.341-.024-.66-.101-1-.101z" fill="#14a2ff"/><path d="m91.396 169.564v-8.579l-11.859 17.41h6.684l4.638-6.725z" fill="#b8dff4"/><path d="m78.316 146.892-15.082 21.278v10.226h1.43l20.508-29.207c-1.983-1.337-4.338-2.115-6.856-2.297z" fill="#b8dff4"/><path d="m91.396 180.185h-28.162c-.988 0-1.789-.801-1.789-1.789v-17.52c0-8.753 7.12-15.874 15.871-15.874 8.75 0 15.869 7.121 15.869 15.874v17.52c.001.987-.8 1.789-1.789 1.789zm-26.373-3.579h24.584v-15.73c0-6.78-5.514-12.296-12.291-12.296-6.778 0-12.293 5.516-12.293 12.296z" fill="#24202b"/><path d="m77.316 180.185c-.988 0-1.789-.801-1.789-1.789v-31.604c0-.988.801-1.789 1.789-1.789s1.789.801 1.789 1.789v31.604c0 .987-.8 1.789-1.789 1.789z" fill="#24202b"/><path d="m97.123 182.829c0 2.448-1.99 4.434-4.438 4.434h-31.417c-2.447 0-4.43-1.985-4.43-4.434 0-2.447 1.982-4.434 4.43-4.434h31.418c2.447 0 4.437 1.987 4.437 4.434z" fill="#ffdc00"/><path d="m92.686 189.052h-31.418c-3.429 0-6.219-2.792-6.219-6.223s2.79-6.223 6.219-6.223h31.418c3.434 0 6.227 2.792 6.227 6.223s-2.794 6.223-6.227 6.223zm-31.418-8.867c-1.456 0-2.641 1.187-2.641 2.645s1.185 2.645 2.641 2.645h31.418c1.46 0 2.648-1.187 2.648-2.645s-1.188-2.645-2.648-2.645z" fill="#24202b"/><path d="m158.703 160.876c0-4.869-2.465-9.158-6.219-11.688l-20.508 29.207h14.865l11.861-17.41v-.109z" fill="#14a2ff"/><path d="m158.703 169.564-.529 2.106-4.641 6.725h5.17z" fill="#14a2ff"/><path d="m144.621 146.791c-7.779 0-14.082 6.303-14.082 14.085v7.294l15.082-21.278c-.332-.024-.658-.101-1-.101z" fill="#14a2ff"/><path d="m158.703 169.564v-8.579l-11.861 17.41h6.691l4.641-6.725z" fill="#b8dff4"/><path d="m145.621 146.892-15.082 21.278v10.226h1.438l20.508-29.207c-1.981-1.337-4.337-2.115-6.864-2.297z" fill="#b8dff4"/><path d="m158.703 180.185h-28.164c-.988 0-1.789-.801-1.789-1.789v-17.52c0-8.753 7.12-15.874 15.871-15.874s15.871 7.121 15.871 15.874v17.52c0 .987-.801 1.789-1.789 1.789zm-26.375-3.579h24.586v-15.73c0-6.78-5.515-12.296-12.293-12.296s-12.293 5.516-12.293 12.296z" fill="#24202b"/><path d="m144.621 180.185c-.988 0-1.789-.801-1.789-1.789v-31.604c0-.988.801-1.789 1.789-1.789s1.789.801 1.789 1.789v31.604c0 .987-.801 1.789-1.789 1.789z" fill="#24202b"/><path d="m164.43 182.829c0 2.448-1.982 4.434-4.43 4.434h-31.42c-2.447 0-4.437-1.985-4.437-4.434 0-2.447 1.99-4.434 4.437-4.434h31.42c2.447 0 4.43 1.987 4.43 4.434z" fill="#ffdc00"/><path d="m160 189.052h-31.42c-3.434 0-6.227-2.792-6.227-6.223s2.793-6.223 6.227-6.223h31.42c3.429 0 6.219 2.792 6.219 6.223s-2.79 6.223-6.219 6.223zm-31.42-8.867c-1.46 0-2.648 1.187-2.648 2.645s1.188 2.645 2.648 2.645h31.42c1.456 0 2.641-1.187 2.641-2.645s-1.185-2.645-2.641-2.645z" fill="#24202b"/><path d="m74.244 36.752h19.934v18.184h-19.934z" fill="#14a2ff"/><path d="m94.178 56.726h-19.934c-.988 0-1.789-.801-1.789-1.789v-18.185c0-.988.801-1.789 1.789-1.789h19.934c.988 0 1.789.801 1.789 1.789v18.185c0 .987-.801 1.789-1.789 1.789zm-18.145-3.579h16.355v-14.606h-16.355z" fill="#24202b"/></svg>