<svg width="520" height="520" viewBox="0 0 520 520" fill="none" xmlns="http://www.w3.org/2000/svg">
<path d="M372 123H500V403H372V123Z" fill="#AEB4BA"/>
<path d="M60 35H140V59H60V35Z" fill="#AEB4BA"/>
<path d="M60 51H140V59H60V51Z" fill="#D3D3D3"/>
<path d="M148 59H44V83H20V403H148V59Z" fill="#AEB4BA"/>
<path d="M36 96.3359H44V389.672H36V96.3359Z" fill="#6E83B7"/>
<path d="M60 96.3359H68V389.672H60V96.3359Z" fill="#6E83B7"/>
<path d="M84 96.3359H92V389.672H84V96.3359Z" fill="#6E83B7"/>
<path d="M108 96.3359H116V389.672H108V96.3359Z" fill="#6E83B7"/>
<path d="M132 96.3359H140V389.672H132V96.3359Z" fill="#6E83B7"/>
<path d="M44 75H148V83H44V75Z" fill="#D3D3D3"/>
<path d="M140 59H148V403H140V59Z" fill="#D3D3D3"/>
<path d="M59.1523 47.4258L68 43L59.1523 38.5742C54.5039 36.2578 50.7422 32.4883 48.4141 27.8398L44 19L39.5742 27.8477C37.2578 32.4961 33.4883 36.2578 28.8398 38.5859L20 43L28.8477 47.4258C33.4961 49.7422 37.2578 53.5117 39.5859 58.1602L44 67L48.4258 58.1523C50.7422 53.5117 54.5117 49.7422 59.1523 47.4258Z" fill="#80D6FB"/>
<path d="M494.105 93.9453L500 91L494.105 88.0469C491.008 86.4961 488.496 83.9922 486.953 80.8945L484 75L481.047 80.8945C479.496 83.9922 476.992 86.5039 473.895 88.0469L468 91L473.895 93.9531C476.992 95.5039 479.504 98.0078 481.047 101.105L484 107L486.953 101.105C488.496 98.0078 491.008 95.4961 494.105 93.9453Z" fill="#80D6FB"/>
<path d="M457.047 36.4727L460 35L457.047 33.5273C455.496 32.7539 454.246 31.4961 453.473 29.9531L452 27L450.527 29.9531C449.754 31.5039 448.496 32.7539 446.953 33.5273L444 35L446.953 36.4727C448.504 37.2461 449.754 38.5039 450.527 40.0469L452 43L453.473 40.0469C454.246 38.5039 455.504 37.2461 457.047 36.4727Z" fill="#80D6FB"/>
<path d="M372 419H148V51H372V419Z" fill="#AEB4BA"/>
<path d="M364 35V19H156V35H140V51H380V35H364Z" fill="#6E83B7"/>
<path d="M252 67H268V107H252V67Z" fill="#80D6FB"/>
<path d="M284 67H300V107H284V67Z" fill="#80D6FB"/>
<path d="M348 67H364V107H348V67Z" fill="#80D6FB"/>
<path d="M156 67H172V107H156V67Z" fill="#80D6FB"/>
<path d="M188 67H204V107H188V67Z" fill="#80D6FB"/>
<path d="M220 67H236V107H220V67Z" fill="#80D6FB"/>
<path d="M252 123H268V163H252V123Z" fill="#80D6FB"/>
<path d="M284 123H300V163H284V123Z" fill="#80D6FB"/>
<path d="M316 123H332V163H316V123Z" fill="#80D6FB"/>
<path d="M348 123H364V163H348V123Z" fill="#80D6FB"/>
<path d="M156 123H172V163H156V123Z" fill="#80D6FB"/>
<path d="M188 123H204V163H188V123Z" fill="#80D6FB"/>
<path d="M252 179H268V219H252V179Z" fill="#80D6FB"/>
<path d="M316 179H332V219H316V179Z" fill="#80D6FB"/>
<path d="M348 179H364V219H348V179Z" fill="#80D6FB"/>
<path d="M156 179H172V219H156V179Z" fill="#80D6FB"/>
<path d="M188 179H204V219H188V179Z" fill="#80D6FB"/>
<path d="M220 179H236V219H220V179Z" fill="#80D6FB"/>
<path d="M252 235H268V275H252V235Z" fill="#80D6FB"/>
<path d="M284 235H300V275H284V235Z" fill="#80D6FB"/>
<path d="M316 235H332V275H316V235Z" fill="#80D6FB"/>
<path d="M348 235H364V275H348V235Z" fill="#80D6FB"/>
<path d="M156 235H172V275H156V235Z" fill="#80D6FB"/>
<path d="M188 235H204V275H188V235Z" fill="#80D6FB"/>
<path d="M204 291H316V419H204V291Z" fill="#D3D3D3"/>
<path d="M212 299H308V419H212V299Z" fill="#6E83B7"/>
<path d="M256 299H264V419H256V299Z" fill="#466089"/>
<path d="M92 19H108V35H92V19Z" fill="#6E83B7"/>
<path d="M380 139H412V171H380V139Z" fill="#80D6FB"/>
<path d="M420 139H452V171H420V139Z" fill="#80D6FB"/>
<path d="M460 139H492V171H460V139Z" fill="#80D6FB"/>
<path d="M420 187H452V219H420V187Z" fill="#80D6FB"/>
<path d="M460 187H492V219H460V187Z" fill="#80D6FB"/>
<path d="M380 187H412V219H380V187Z" fill="#80D6FB"/>
<path d="M460 235H492V267H460V235Z" fill="#80D6FB"/>
<path d="M428 91V59H412V91H388V123H452V91H428Z" fill="#6E83B7"/>
<path d="M478.793 389.176C476.121 378.473 466.535 371 455.504 371H452C447.586 371 444 367.406 444 363V275.855C444 263.727 435.391 253.184 423.977 251.328C422.633 251.105 421.297 251 420 251C406.77 251 396 261.77 396 275V363C396 367.406 392.414 371 388 371H384.496C382.961 371 381.465 371.199 380 371.488V123H372V403H482.238L478.793 389.176Z" fill="#D3D3D3"/>
<path d="M361.207 389.176L356.281 408.895L353.527 419H372V374.574C366.77 377.77 362.785 382.887 361.207 389.176Z" fill="#D3D3D3"/>
<path d="M500 499L476 411H364L340 499H500Z" fill="#FFE352"/>
<path d="M412 411H428V443H412V411Z" fill="#FFB236"/>
<path d="M444 411H460V435H444V411Z" fill="#FFB236"/>
<path d="M380 411H396V435H380V411Z" fill="#FFB236"/>
<path d="M476 411L471.031 391.121C469.246 384 462.848 379 455.504 379H452C443.16 379 436 371.84 436 363V275.855C436 267.887 430.551 260.496 422.688 259.215C412.664 257.594 404 265.281 404 275V363C404 371.84 396.84 379 388 379H384.496C377.152 379 370.754 384 368.977 391.121L364 411H476ZM420 267C424.414 267 428 270.586 428 275C428 279.414 424.414 283 420 283C415.586 283 412 279.414 412 275C412 270.586 415.586 267 420 267Z" fill="#6E83B7"/>
</svg>
