<svg width="580" height="530" viewBox="0 0 580 530" fill="none" xmlns="http://www.w3.org/2000/svg">
<path d="M235.312 103.702L8.134 478.516C2.773 487.387 2.615 498.46 7.721 507.48C12.826 516.5 22.401 522.065 32.766 522.036H487.12C497.485 522.065 507.059 516.501 512.165 507.48C517.27 498.46 517.112 487.387 511.752 478.516L284.574 103.702C279.345 95.101 270.008 89.85 259.943 89.85C249.877 89.85 240.54 95.101 235.312 103.702Z" fill="#E57E25"/>
<path d="M52.571 473.323L252.394 143.642C253.994 141.002 256.856 139.39 259.943 139.39C263.03 139.39 265.892 141.002 267.492 143.642L467.315 473.323C468.967 476.049 469.022 479.454 467.457 482.231C465.893 485.008 462.953 486.726 459.766 486.727H60.12C56.933 486.727 53.993 485.009 52.429 482.231C50.865 479.453 50.919 476.048 52.571 473.323Z" fill="#F0C419"/>
<path d="M259.943 389.622C255.068 389.622 251.115 385.67 251.115 380.794V292.518C251.115 287.643 255.067 283.69 259.943 283.69C264.819 283.69 268.771 287.642 268.771 292.518V380.794C268.771 385.67 264.818 389.622 259.943 389.622Z" fill="#CBB292"/>
<path d="M259.943 301.346C226.947 301.346 216.499 261.066 216.068 259.35C215.41 256.713 216.003 253.919 217.676 251.777C219.349 249.634 221.915 248.382 224.633 248.38H295.254C297.972 248.381 300.538 249.634 302.211 251.777C303.884 253.919 304.477 256.713 303.819 259.35C303.387 261.066 292.939 301.346 259.943 301.346ZM237.499 266.036C241.072 275.669 249.74 282.487 259.943 283.691C270.146 282.487 278.814 275.668 282.387 266.036H237.499Z" fill="#5E5F62"/>
<path d="M418.84 482.312C418.858 482.726 418.828 483.141 418.752 483.548C418.811 483.991 418.781 484.441 418.664 484.872C418.678 485.053 418.648 485.235 418.576 485.402C418.59 485.845 418.561 486.289 418.488 486.726H101.047V482.312C101.066 465.256 114.888 451.434 131.944 451.415C133.482 451.398 135.018 451.516 136.534 451.768C138.616 426.604 159.66 407.25 184.909 407.277C186.384 407.275 187.858 407.363 189.323 407.542V407.277C189.301 391.417 199.869 377.494 215.151 373.251C230.433 369.008 246.667 375.49 254.824 389.092C265.596 381.836 278.824 379.19 291.558 381.743C304.292 384.296 315.477 391.838 322.619 402.686C327.76 399.873 333.532 398.415 339.391 398.449C356.004 398.446 370.373 410.023 373.907 426.256C384.913 429.683 392.397 439.888 392.357 451.415V451.768C405.899 453.684 416.528 464.349 418.398 477.898C418.529 478.479 418.618 479.069 418.663 479.664C418.78 480.095 418.81 480.545 418.751 480.988C418.825 481.425 418.854 481.869 418.84 482.312Z" fill="#805333"/>
<path d="M542.524 152.872C542.524 105.377 511.727 65.079 469.015 50.846L469.659 38.595C469.853 34.897 468.103 31.364 465.042 29.279L464.452 28.877C446.732 16.804 423.387 16.969 405.84 29.293C402.873 31.376 401.176 34.833 401.343 38.454L401.899 50.551C358.716 64.512 327.48 105.041 327.48 152.873V181.428H542.525V152.872H542.524Z" fill="#F3C849"/>
<path d="M370.161 387.212L381.368 511.998H488.634L499.841 387.212C494.113 385.831 488.138 385.076 481.975 385.076H468.398C468.239 403.388 453.35 418.186 435.001 418.186C416.651 418.186 401.763 403.388 401.604 385.076H388.027C381.865 385.076 375.889 385.831 370.161 387.212Z" fill="#61BBF2"/>
<path d="M312.155 464.133L313.624 499.868C313.903 506.647 319.48 511.999 326.264 511.999H346.919L337.27 404.561C321.07 419.141 311.185 440.553 312.155 464.133Z" fill="#61BBF2"/>
<path d="M543.738 511.998C550.523 511.998 556.099 506.645 556.378 499.867L557.847 464.132C558.817 440.552 548.932 419.14 532.732 404.56L523.083 511.998H543.739V511.998H543.738Z" fill="#61BBF2"/>
<path d="M435.001 418.186C453.351 418.186 468.239 403.388 468.399 385.076C468.4 384.977 468.406 384.88 468.406 384.781V358.958C482.371 353.079 495.03 343.345 504.667 329.744C531.298 292.156 538.346 249.061 540.171 226.315H329.83C331.654 249.062 338.703 292.157 365.335 329.744C374.971 343.345 387.632 353.08 401.596 358.958V384.781C401.596 384.88 401.603 384.977 401.603 385.076C401.762 403.388 416.651 418.186 435.001 418.186Z" fill="#EFB7AC"/>
<path d="M553.325 226.314C556.001 226.314 558.469 224.866 559.773 222.529C566.246 210.933 566.246 196.809 559.773 185.211C558.469 182.874 556.002 181.426 553.325 181.426H542.524H327.479H316.678C314.002 181.426 311.534 182.874 310.23 185.211C303.757 196.807 303.757 210.931 310.23 222.529C311.534 224.866 314.001 226.314 316.678 226.314H329.832H540.174H553.325Z" fill="#E59F50"/>
<path d="M370.153 387.214C363.929 388.715 358.01 390.981 352.499 393.905C352.496 393.906 352.493 393.908 352.49 393.909C349.84 395.315 347.286 396.878 344.835 398.577C342.188 400.412 339.66 402.408 337.273 404.557C337.272 404.558 337.271 404.559 337.27 404.56L346.919 511.998H381.368L370.161 387.212C370.158 387.213 370.155 387.214 370.153 387.214Z" fill="#F3C849"/>
<path d="M523.083 511.998L532.732 404.56C532.731 404.559 532.73 404.558 532.729 404.557C530.342 402.409 527.814 400.412 525.167 398.577C522.716 396.878 520.162 395.316 517.512 393.909C517.509 393.908 517.506 393.906 517.503 393.905C511.991 390.981 506.073 388.715 499.849 387.214C499.846 387.214 499.844 387.213 499.841 387.212L488.634 511.998H523.083Z" fill="#F3C849"/>
<path d="M512.827 335.526C537.622 300.531 546.281 261.458 549.266 236.316H553.325C559.621 236.316 565.439 232.901 568.506 227.403C576.73 212.668 576.73 195.074 568.506 180.338C565.438 174.84 559.621 171.425 553.324 171.425H552.524V152.872C552.524 104.766 523.436 61.948 479.388 44.022L479.646 39.12C480.021 31.979 476.584 25.042 470.671 21.013L470.082 20.612C449.048 6.28201 420.92 6.48101 400.091 21.108C399.004 21.871 398.006 22.726 397.104 23.656C393.495 27.379 391.421 32.329 391.332 37.593C391.325 38.031 391.331 38.472 391.351 38.915L391.423 40.483L391.568 43.64C346.945 61.322 317.477 104.294 317.477 152.872V171.425H316.677C310.381 171.425 304.563 174.84 301.496 180.338C293.272 195.073 293.272 212.667 301.496 227.403C304.564 232.901 310.381 236.316 316.678 236.316H320.737C323.721 261.458 332.38 300.53 357.176 335.526C366.327 348.442 378.117 358.564 391.596 365.417V375.074H388.029C364.404 375.074 342.384 384.461 326.026 401.506C309.668 418.551 301.193 440.938 302.163 464.543L303.633 500.278C304.134 512.458 314.075 521.999 326.266 521.999H346.921H381.37H488.636H523.085H543.74C555.93 521.999 565.872 512.458 566.373 500.278L567.843 464.543C568.813 440.937 560.339 418.551 543.98 401.506C527.622 384.461 505.602 375.074 481.977 375.074H478.41V365.417C491.887 358.564 503.676 348.442 512.827 335.526ZM319.252 216.314H318.259C314.664 208.999 314.407 200.644 317.478 193.177C317.72 192.589 317.976 192.005 318.259 191.428H440.677C444.895 191.428 448.495 188.814 449.965 185.12C450.42 183.976 450.678 182.733 450.678 181.427C450.678 175.904 446.2 171.426 440.677 171.426H337.48V152.873C337.48 114.936 359.145 81.137 392.554 65.055L396.086 141.85C396.34 147.368 401.024 151.671 406.536 151.38C412.054 151.126 416.321 146.447 416.067 140.93L411.332 37.996C411.323 37.79 411.417 37.597 411.586 37.478C425.644 27.606 444.625 27.471 458.822 37.144L459.41 37.544C459.582 37.661 459.683 37.863 459.672 38.07L459.028 50.32C459.028 50.321 459.028 50.322 459.028 50.323L454.268 140.863C453.978 146.38 458.215 151.086 463.73 151.376C463.909 151.386 464.086 151.39 464.264 151.39C469.546 151.39 473.962 147.25 474.243 141.914L478.263 65.454C511.184 81.709 532.523 115.342 532.523 152.871V171.424H520.798C515.274 171.424 510.797 175.903 510.797 181.425C510.797 182.731 511.055 183.975 511.51 185.118C512.98 188.811 516.581 191.426 520.798 191.426H551.745C552.028 192.002 552.284 192.586 552.526 193.175C555.596 200.643 555.34 208.997 551.745 216.312H550.752H319.252V216.314ZM373.496 323.962C352.052 293.698 343.998 259.217 340.99 236.316H529.049C526.062 259.177 518.02 293.599 496.507 323.962C491.421 331.14 485.299 337.221 478.408 342.084C472.289 346.404 465.561 349.756 458.405 352.05C450.994 354.426 443.127 355.674 435.001 355.674C426.875 355.674 419.008 354.426 411.597 352.05C404.441 349.756 397.713 346.403 391.594 342.084C384.704 337.221 378.581 331.14 373.496 323.962ZM326.264 501.996C324.839 501.996 323.676 500.881 323.618 499.456L322.148 463.721C321.664 451.959 324.255 440.598 329.558 430.491L335.98 501.997L326.264 501.996ZM356.062 501.996L347.699 408.872C351.906 405.617 356.492 402.881 361.334 400.73L370.429 501.996H356.062ZM513.939 501.996H499.573L508.668 400.73C513.51 402.88 518.096 405.617 522.303 408.872L513.939 501.996ZM547.855 463.722L546.385 499.457C546.326 500.882 545.164 501.997 543.739 501.997H534.024L540.446 430.491C545.748 440.599 548.339 451.958 547.855 463.722ZM481.975 395.077C484.36 395.077 486.724 395.209 489.059 395.456L479.49 501.997H390.511L380.942 395.456C383.278 395.209 385.641 395.077 388.026 395.077H392.838C397.474 414.056 414.614 428.187 435 428.187C455.386 428.187 472.526 414.056 477.162 395.077H481.975ZM458.404 375.074V384.78C458.404 388.472 457.541 391.967 456.012 395.076C452.196 402.832 444.213 408.184 435.001 408.184C425.789 408.184 417.806 402.831 413.99 395.076C412.46 391.967 411.598 388.472 411.598 384.78V375.074V372.852C415.684 373.861 419.863 374.604 424.119 375.074C427.698 375.469 431.329 375.678 435.002 375.678C438.675 375.678 442.306 375.47 445.885 375.074C450.14 374.604 454.32 373.861 458.406 372.852V375.074H458.404Z" fill="black"/>
<path d="M489.968 177.605C489.718 176.996 489.408 176.416 489.048 175.876C488.688 175.326 488.268 174.815 487.808 174.355C485.488 172.036 482.037 170.965 478.787 171.626C478.147 171.746 477.517 171.946 476.917 172.196C476.307 172.446 475.727 172.756 475.187 173.116C474.637 173.475 474.127 173.895 473.667 174.355C473.207 174.815 472.787 175.326 472.427 175.876C472.067 176.416 471.757 176.996 471.507 177.605C471.257 178.206 471.067 178.835 470.937 179.475C470.807 180.116 470.737 180.775 470.737 181.425C470.737 182.075 470.807 182.736 470.937 183.385C471.058 183.969 471.235 184.551 471.459 185.119C471.477 185.164 471.489 185.21 471.507 185.255C471.757 185.855 472.067 186.435 472.427 186.975C472.787 187.525 473.207 188.036 473.667 188.496C474.127 188.956 474.637 189.376 475.187 189.736C475.727 190.105 476.307 190.406 476.917 190.656C477.517 190.906 478.147 191.105 478.787 191.225C479.427 191.355 480.087 191.425 480.737 191.425C483.367 191.425 485.948 190.355 487.808 188.495C488.268 188.035 488.688 187.524 489.048 186.974C489.408 186.434 489.718 185.854 489.968 185.254C489.986 185.209 489.999 185.163 490.016 185.118C490.24 184.55 490.417 183.967 490.538 183.384C490.668 182.735 490.738 182.074 490.738 181.424C490.738 180.774 490.668 180.114 490.538 179.474C490.407 178.835 490.218 178.205 489.968 177.605Z" fill="black"/>
<path d="M453.882 305.153C452.497 304.852 451.043 304.835 449.61 305.153H420.427C418.993 304.834 417.538 304.851 416.151 305.153C413.178 305.8 410.531 307.782 409.171 310.765C406.877 315.789 409.091 321.722 414.116 324.016C415.012 324.425 415.919 324.802 416.832 325.156C422.684 327.425 428.851 328.564 435.018 328.564C441.185 328.564 447.353 327.425 453.204 325.156C454.117 324.802 455.024 324.426 455.92 324.016C460.944 321.723 463.158 315.789 460.864 310.764C459.504 307.782 456.857 305.801 453.882 305.153Z" fill="black"/>
</svg>
