<?xml version="1.0" encoding="utf-8"?>
<!-- Generator: Adobe Illustrator 22.1.0, SVG Export Plug-In . SVG Version: 6.00 Build 0)  -->
<svg xmlns="http://www.w3.org/2000/svg" xmlns:xlink="http://www.w3.org/1999/xlink" version="1.1" id="Layer_1" x="0px" y="0px" viewBox="0 0 256 256" style="enable-background:new 0 0 256 256;" xml:space="preserve" width="512" height="512">
<style type="text/css">
	.st0{fill:#F9CFCF;}
	.st1{fill:#3762CC;}
	.st2{fill:#6BDDDD;}
	.st3{fill:#E0EBFC;}
	.st4{fill:#EAA97D;}
	.st5{fill:#A4C9FF;}
	.st6{fill:#F9A7A7;}
	.st7{fill:#4671C6;}
	.st8{fill:#FFEA92;}
	.st9{fill:#B9BEFC;}
	.st10{fill:#3962CA;}
	.st11{fill:#DDA073;}
</style>
<g>
	<g>
		<path class="st6" d="M170.599,73.635h-140c-2.209,0-4-1.791-4-4v-10c0-2.209,1.791-4,4-4h140c2.209,0,4,1.791,4,4v10    C174.599,71.844,172.808,73.635,170.599,73.635z"/>
	</g>
	<g>
		<path class="st1" d="M170.599,75.635h-140c-3.309,0-6-2.691-6-6v-10c0-3.309,2.691-6,6-6h140c3.309,0,6,2.691,6,6v10    C176.599,72.943,173.907,75.635,170.599,75.635z M30.599,57.635c-1.103,0-2,0.897-2,2v10c0,1.103,0.897,2,2,2h140    c1.103,0,2-0.897,2-2v-10c0-1.103-0.897-2-2-2H30.599z"/>
	</g>
	<g>
		<polygon class="st3" points="131.599,73.635 131.599,39.173 101.599,17.635 71.599,39.173 71.599,73.635 33.599,73.635     33.599,247.635 167.599,247.635 167.599,73.635   "/>
	</g>
	<g>
		<g>
			<rect x="127.599" y="224.635" class="st6" width="40" height="13"/>
		</g>
		<g>
			<rect x="33.599" y="224.635" class="st6" width="40" height="13"/>
		</g>
	</g>
	<g>
		<path class="st4" d="M224.738,196.143v-4.38c0-2.119-1.718-3.837-3.837-3.837h-11.957c-2.119,0-3.837,1.718-3.837,3.837v4.38    H224.738z"/>
	</g>
	<g>
		<path class="st4" d="M219.572,187.926v-72.717c0-1.933-1.567-3.5-3.5-3.5h-2.299c-1.933,0-3.5,1.567-3.5,3.5v72.717H219.572z"/>
	</g>
	<g>
		<rect x="73.599" y="205.635" class="st2" width="54" height="32"/>
	</g>
	<g>
		
			<rect x="89.189" y="207.325" transform="matrix(-1.836970e-16 1 -1 -1.836970e-16 326.8237 125.7256)" class="st7" width="22.72" height="37.9"/>
	</g>
	<g>
		<path class="st8" d="M130.599,205.635h-60c-1.105,0-2-0.895-2-2v-8c0-1.105,0.895-2,2-2h60c1.105,0,2,0.895,2,2v8    C132.599,204.739,131.704,205.635,130.599,205.635z"/>
	</g>
	<g>
		<path class="st1" d="M127.599,239.635h-54c-1.104,0-2-0.896-2-2v-32c0-1.104,0.896-2,2-2h54c1.104,0,2,0.896,2,2v32    C129.599,238.739,128.703,239.635,127.599,239.635z M75.599,235.635h50v-28h-50V235.635z"/>
	</g>
	<g>
		<path class="st1" d="M130.599,207.635h-60c-2.206,0-4-1.794-4-4v-8c0-2.206,1.794-4,4-4h60c2.206,0,4,1.794,4,4v8    C134.599,205.84,132.805,207.635,130.599,207.635z M70.599,195.635v8h60.003l-0.003-8H70.599z"/>
	</g>
	<g>
		<path class="st5" d="M85.717,75.071V48.473c0-1.166,0.557-2.26,1.494-2.933l12.862-9.234c0.915-0.657,2.138-0.657,3.053,0    l12.862,9.234c0.937,0.673,1.494,1.766,1.494,2.933v26.597c0,1.983-1.58,3.59-3.529,3.59H89.246    C87.297,78.66,85.717,77.053,85.717,75.071z"/>
	</g>
	<g>
		<path class="st1" d="M113.952,80.66H89.246c-3.049,0-5.529-2.508-5.529-5.59V48.473c0-1.808,0.87-3.511,2.328-4.558l12.861-9.233    c1.608-1.157,3.773-1.157,5.386,0l12.861,9.234c1.458,1.047,2.328,2.75,2.328,4.557V75.07    C119.481,78.152,117.001,80.66,113.952,80.66z M101.599,37.813c-0.125,0-0.25,0.039-0.359,0.118l-12.862,9.234    c-0.413,0.297-0.66,0.786-0.66,1.308V75.07c0,0.876,0.686,1.59,1.529,1.59h24.706c0.843,0,1.529-0.713,1.529-1.59V48.473    c0-0.522-0.247-1.011-0.661-1.309l-12.86-9.233C101.85,37.853,101.725,37.813,101.599,37.813z"/>
	</g>
	<g>
		<path class="st8" d="M151.599,127.635h-32c-1.105,0-2-0.895-2-2v-5.6c0-1.105,0.895-2,2-2h32c1.105,0,2,0.895,2,2v5.6    C153.599,126.739,152.704,127.635,151.599,127.635z"/>
	</g>
	<g>
		<path class="st8" d="M81.599,127.635h-32c-1.105,0-2-0.895-2-2v-5.6c0-1.105,0.895-2,2-2h32c1.105,0,2,0.895,2,2v5.6    C83.599,126.739,82.704,127.635,81.599,127.635z"/>
	</g>
	<g>
		<path class="st8" d="M151.599,179.635h-32c-1.105,0-2-0.895-2-2v-5.6c0-1.105,0.895-2,2-2h32c1.105,0,2,0.895,2,2v5.6    C153.599,178.739,152.704,179.635,151.599,179.635z"/>
	</g>
	<g>
		<path class="st8" d="M81.599,179.635h-32c-1.105,0-2-0.895-2-2v-5.6c0-1.105,0.895-2,2-2h32c1.105,0,2,0.895,2,2v5.6    C83.599,178.739,82.704,179.635,81.599,179.635z"/>
	</g>
	<g>
		<path class="st1" d="M151.599,129.635h-32c-2.206,0-4-1.794-4-4v-5.6c0-2.206,1.794-4,4-4h32c2.206,0,4,1.794,4,4v5.6    C155.599,127.84,153.805,129.635,151.599,129.635z M119.599,120.035v5.6h32.003l-0.003-5.6H119.599z"/>
	</g>
	<g>
		<path class="st1" d="M81.599,129.635h-32c-2.206,0-4-1.794-4-4v-5.6c0-2.206,1.794-4,4-4h32c2.206,0,4,1.794,4,4v5.6    C85.599,127.84,83.805,129.635,81.599,129.635z M49.599,120.035v5.6h32.003l-0.003-5.6H49.599z"/>
	</g>
	<g>
		<path class="st1" d="M151.599,181.635h-32c-2.206,0-4-1.794-4-4v-5.6c0-2.206,1.794-4,4-4h32c2.206,0,4,1.794,4,4v5.6    C155.599,179.84,153.805,181.635,151.599,181.635z M119.599,172.035v5.6h32.003l-0.003-5.6H119.599z"/>
	</g>
	<g>
		<path class="st1" d="M81.599,181.635h-32c-2.206,0-4-1.794-4-4v-5.6c0-2.206,1.794-4,4-4h32c2.206,0,4,1.794,4,4v5.6    C85.599,179.84,83.805,181.635,81.599,181.635z M49.599,172.035v5.6h32.003l-0.003-5.6H49.599z"/>
	</g>
	<g>
		<path class="st1" d="M167.599,249.635h-134c-1.104,0-2-0.896-2-2v-174c0-1.104,0.896-2,2-2h36V39.173    c0-0.644,0.311-1.249,0.834-1.625l30-21.538c0.697-0.501,1.635-0.501,2.332,0l30,21.538c0.523,0.375,0.834,0.98,0.834,1.625    v32.462h34c1.104,0,2,0.896,2,2v174C169.599,248.739,168.703,249.635,167.599,249.635z M35.599,245.635h130v-170h-34    c-1.104,0-2-0.896-2-2V40.199l-28-20.103l-28,20.103v33.436c0,1.104-0.896,2-2,2h-36V245.635z"/>
	</g>
	<g>
		<path class="st6" d="M127.759,37.771l-26.16-18.464L75.481,37.744l-10.443,6.625c-0.909,0.576-2.11,0.331-2.72-0.556l-2.488-3.621    c-0.62-0.902-0.399-2.135,0.495-2.767L101.599,8.29l41.274,29.135c0.894,0.631,1.115,1.864,0.495,2.767l-2.488,3.621    c-0.609,0.887-1.811,1.133-2.72,0.556L127.759,37.771z"/>
	</g>
	<g>
		<path class="st1" d="M63.962,46.685c-1.272,0-2.517-0.61-3.293-1.74l-2.487-3.621c-1.233-1.794-0.79-4.276,0.988-5.532    l41.275-29.135c0.691-0.488,1.615-0.488,2.307,0l41.274,29.134c1.779,1.256,2.224,3.738,0.99,5.533l-2.488,3.622    c-1.225,1.782-3.612,2.27-5.438,1.113l-10.402-6.599c-0.027-0.018-0.055-0.036-0.082-0.055l-25.007-17.649L76.634,39.377    l-10.525,6.681C65.44,46.482,64.696,46.685,63.962,46.685z M128.872,36.108l10.359,6.572l2.488-3.622l-40.121-28.32l-40.121,28.32    l2.488,3.622l10.443-6.625l26.036-18.381c0.691-0.488,1.615-0.488,2.307,0L128.872,36.108z"/>
	</g>
	<g>
		<path class="st3" d="M182.218,247.635H18.98c-1.867,0-3.381-1.514-3.381-3.381v-3.239c0-1.867,1.514-3.381,3.381-3.381h163.239    c1.867,0,3.381,1.514,3.381,3.381v3.239C185.599,246.121,184.085,247.635,182.218,247.635z"/>
	</g>
	<g>
		<path class="st1" d="M182.219,249.635H18.979c-2.967,0-5.381-2.414-5.381-5.381v-3.239c0-2.967,2.414-5.38,5.381-5.38h163.239    c2.967,0,5.38,2.414,5.38,5.38v3.239C187.599,247.221,185.186,249.635,182.219,249.635z M18.979,239.635    c-0.762,0-1.381,0.619-1.381,1.38v3.239c0,0.761,0.619,1.381,1.381,1.381h163.239c0.761,0,1.38-0.62,1.38-1.381v-3.239    c0-0.761-0.619-1.38-1.38-1.38H18.979z"/>
	</g>
	<g>
		<path class="st8" d="M191.817,76.536c-3.372,7.369-8.965,13.508-15.927,17.565c-1.249,0.728-1.249,2.494,0,3.221    c6.962,4.056,12.555,10.196,15.927,17.565c0.655,1.432,2.695,1.432,3.351,0c3.372-7.369,8.965-13.509,15.927-17.565    c1.249-0.728,1.249-2.494,0-3.221c-6.962-4.057-12.555-10.196-15.927-17.565C194.512,75.104,192.472,75.104,191.817,76.536z"/>
	</g>
	<g>
		<path class="st8" d="M217.28,54.209c-2.36,5.158-6.276,9.456-11.149,12.296c-0.874,0.509-0.874,1.746,0,2.255    c4.873,2.839,8.789,7.137,11.149,12.296c0.459,1.002,1.887,1.002,2.345,0c2.36-5.159,6.275-9.456,11.149-12.296    c0.874-0.509,0.874-1.745,0-2.255c-4.874-2.84-8.789-7.137-11.149-12.296C219.166,53.207,217.738,53.207,217.28,54.209z"/>
	</g>
	<g>
		<path class="st5" d="M149.987,247.71h42.05c2.136,0,3.92-1.89,4.115-4.36l5.338-67.607h-60.958l5.338,67.607    C146.067,245.819,147.851,247.71,149.987,247.71z"/>
	</g>
	<g>
		<path class="st1" d="M192.038,249.709h-42.051c-3.203,0-5.829-2.667-6.109-6.202L138.54,175.9    c-0.044-0.556,0.146-1.105,0.525-1.515s0.911-0.643,1.469-0.643h60.957c0.558,0,1.09,0.233,1.469,0.643s0.569,0.959,0.525,1.515    l-5.338,67.607C197.867,247.043,195.241,249.709,192.038,249.709z M142.698,177.743l5.168,65.45    c0.111,1.411,1.043,2.517,2.121,2.517h42.051c1.078,0,2.01-1.106,2.121-2.518l5.168-65.449H142.698z"/>
	</g>
	<g>
		<path class="st7" d="M138.101,187.283l-0.758-9.067c-0.111-1.328,0.842-2.474,2.058-2.474h63.222c1.216,0,2.169,1.146,2.058,2.474    l-0.758,9.067c-0.098,1.167-0.99,2.06-2.058,2.06h-61.707C139.091,189.343,138.199,188.45,138.101,187.283z"/>
	</g>
	<g>
		<path class="st1" d="M201.866,191.343h-61.707c-2.124,0-3.865-1.673-4.051-3.893c0,0,0,0,0,0l-0.758-9.067    c-0.104-1.231,0.307-2.448,1.124-3.337c0.772-0.84,1.812-1.302,2.927-1.302h63.223c1.114,0,2.152,0.462,2.925,1.301    c0.818,0.889,1.229,2.105,1.126,3.337l-0.758,9.068C205.731,189.669,203.989,191.343,201.866,191.343z M140.095,187.116    c0.013,0.152,0.086,0.225,0.103,0.235l61.669-0.008c-0.021-0.001,0.052-0.074,0.064-0.227l0.758-9.066    c0.016-0.186-0.07-0.296-0.104-0.315l-63.184,0.009c0.006,0.01-0.08,0.121-0.064,0.306L140.095,187.116L140.095,187.116z"/>
	</g>
	<g>
		<path class="st0" d="M140.729,214.843h18.206c2.391,0,4.328-1.938,4.328-4.328v-33.843c0-2.391-1.938-4.328-4.328-4.328h-18.206    c-2.391,0-4.328,1.938-4.328,4.328v33.843C136.401,212.905,138.339,214.843,140.729,214.843z"/>
	</g>
	<g>
		<ellipse class="st6" cx="171.529" cy="182.543" rx="4.133" ry="4.533"/>
	</g>
	<g>
		<g>
			<path class="st0" d="M200.975,209.743c1.139,0,2.066-1.017,2.066-2.267s-0.927-2.267-2.066-2.267h-9.004     c-7.158,0-13.501-5.282-15.425-12.845l-2.509-9.864c-0.249-0.976-1.067-1.658-1.99-1.658c-0.187,0-0.374,0.028-0.555,0.084     c-0.532,0.163-0.974,0.543-1.245,1.07c-0.271,0.527-0.339,1.139-0.191,1.722l2.509,9.865c2.421,9.515,10.4,16.16,19.406,16.16     H200.975z"/>
		</g>
	</g>
	<g>
		<path class="st4" d="M192.709,210.876h44.427V204.8c0-4.781-3.876-8.657-8.657-8.657h-27.113c-4.781,0-8.657,3.876-8.657,8.657    V210.876z"/>
	</g>
	<g>
		<path class="st3" d="M192.545,247.71h44.757c1.843,0,3.279-1.754,3.082-3.764l-3.247-33.069h-44.427l-3.247,33.069    C189.265,245.956,190.701,247.71,192.545,247.71z"/>
	</g>
	<g>
		<path class="st5" d="M229.904,220.51c0.856,0,1.55,0.761,1.55,1.7v25.5h-3.1v-25.5C228.354,221.271,229.048,220.51,229.904,220.51    z"/>
	</g>
	<g>
		<path class="st5" d="M223.705,226.176c0.856,0,1.55,0.761,1.55,1.7v19.833h-3.1v-19.833    C222.155,226.937,222.849,226.176,223.705,226.176z"/>
	</g>
	<g>
		<path class="st5" d="M217.506,231.843c0.856,0,1.55,0.761,1.55,1.7v14.167h-3.1v-14.167    C215.956,232.604,216.65,231.843,217.506,231.843z"/>
	</g>
	<g>
		<path class="st5" d="M204.074,226.176c0.856,0,1.55,0.761,1.55,1.7v19.833h-3.1v-19.833    C202.525,226.937,203.219,226.176,204.074,226.176z"/>
	</g>
	<g>
		<path class="st5" d="M197.875,220.51c0.856,0,1.55,0.761,1.55,1.7v25.5h-3.1v-25.5C196.326,221.271,197.019,220.51,197.875,220.51    z"/>
	</g>
	<g>
		<path class="st1" d="M237.301,249.709h-44.756c-1.403,0-2.709-0.589-3.679-1.658c-1.041-1.148-1.549-2.716-1.394-4.301    l3.246-33.069c0.101-1.024,0.961-1.805,1.99-1.805h44.428c1.029,0,1.89,0.781,1.99,1.805l3.246,33.069    c0.155,1.585-0.353,3.152-1.394,4.301C240.01,249.121,238.704,249.709,237.301,249.709z M194.522,212.876l-3.069,31.265    c-0.045,0.464,0.092,0.91,0.376,1.224c0.143,0.157,0.383,0.345,0.716,0.345h44.756c0.333,0,0.573-0.188,0.716-0.345    c0.284-0.314,0.421-0.76,0.376-1.224l-3.069-31.265H194.522z"/>
	</g>
	<g>
		<path class="st1" d="M237.137,212.876h-44.428c-1.104,0-2-0.896-2-2V204.8c0-5.876,4.781-10.657,10.657-10.657h27.113    c5.876,0,10.657,4.781,10.657,10.657v6.077C239.137,211.981,238.241,212.876,237.137,212.876z M194.709,208.876h40.428V204.8    c0-3.67-2.986-6.657-6.657-6.657h-27.113c-3.671,0-6.657,2.986-6.657,6.657V208.876z"/>
	</g>
	<g>
		<path class="st1" d="M158.936,216.843h-18.206c-3.489,0-6.328-2.839-6.328-6.328v-33.843c0-3.49,2.839-6.329,6.328-6.329h18.206    c3.489,0,6.328,2.839,6.328,6.329v33.843C165.264,214.004,162.425,216.843,158.936,216.843z M140.729,174.343    c-1.284,0-2.328,1.044-2.328,2.329v33.843c0,1.284,1.044,2.328,2.328,2.328h18.206c1.284,0,2.328-1.044,2.328-2.328v-33.843    c0-1.284-1.044-2.329-2.328-2.329H140.729z"/>
	</g>
	<g>
		<path class="st5" d="M147.599,118.035v-20.4c0-1.105-0.895-2-2-2h-20c-1.105,0-2,0.895-2,2v20.4H147.599z"/>
	</g>
	<g>
		<path class="st5" d="M77.599,118.035v-20.4c0-1.105-0.895-2-2-2h-20c-1.105,0-2,0.895-2,2v20.4H77.599z"/>
	</g>
	<g>
		<path class="st5" d="M147.599,170.035v-20.4c0-1.105-0.895-2-2-2h-20c-1.105,0-2,0.895-2,2v20.4H147.599z"/>
	</g>
	<g>
		<path class="st5" d="M77.599,170.035v-20.4c0-1.105-0.895-2-2-2h-20c-1.105,0-2,0.895-2,2v20.4H77.599z"/>
	</g>
	<g>
		<path class="st1" d="M224.738,198.143h-19.631c-1.104,0-2-0.896-2-2v-4.38c0-3.218,2.618-5.837,5.837-5.837h11.957    c3.219,0,5.837,2.619,5.837,5.837v4.38C226.738,197.248,225.843,198.143,224.738,198.143z M207.107,194.143h15.631v-2.38    c0-1.013-0.824-1.837-1.837-1.837h-11.957c-1.013,0-1.837,0.824-1.837,1.837V194.143z"/>
	</g>
	<g>
		<path class="st1" d="M219.572,189.926h-9.299c-1.104,0-2-0.896-2-2v-72.717c0-3.033,2.468-5.5,5.5-5.5h2.299    c3.032,0,5.5,2.467,5.5,5.5v72.717C221.572,189.031,220.677,189.926,219.572,189.926z M212.273,185.926h5.299v-70.717    c0-0.827-0.673-1.5-1.5-1.5h-2.299c-0.827,0-1.5,0.673-1.5,1.5V185.926z"/>
	</g>
	<g>
		<path class="st1" d="M77.599,120.035h-24c-1.104,0-2-0.896-2-2v-20.4c0-2.206,1.794-4,4-4h20c2.206,0,4,1.794,4,4v20.4    C79.599,119.139,78.703,120.035,77.599,120.035z M55.599,116.035h20v-18.4h-20V116.035z"/>
	</g>
	<g>
		<path class="st1" d="M147.599,172.035h-24c-1.104,0-2-0.896-2-2v-20.4c0-2.206,1.794-4,4-4h20c2.206,0,4,1.794,4,4v20.4    C149.599,171.139,148.703,172.035,147.599,172.035z M125.599,168.035h20v-18.4h-20V168.035z"/>
	</g>
	<g>
		<path class="st1" d="M77.599,172.035h-24c-1.104,0-2-0.896-2-2v-20.4c0-2.206,1.794-4,4-4h20c2.206,0,4,1.794,4,4v20.4    C79.599,171.139,78.703,172.035,77.599,172.035z M55.599,168.035h20v-18.4h-20V168.035z"/>
	</g>
	<g>
		<path class="st1" d="M147.599,120.035h-24c-1.104,0-2-0.896-2-2v-20.4c0-2.206,1.794-4,4-4h20c2.206,0,4,1.794,4,4v20.4    C149.599,119.139,148.703,120.035,147.599,120.035z M125.599,116.035h20v-18.4h-20V116.035z"/>
	</g>
</g>
</svg>
