<svg width="550" height="544" viewBox="0 0 550 544" fill="none" xmlns="http://www.w3.org/2000/svg">
<path d="M259 31H99C90.2 31 83 38.2 83 47V271H223.24C238.12 271 252.12 276.68 262.6 286.52C269.72 284.92 275 278.6 275 271V47C275 38.2 267.8 31 259 31V31Z" fill="#FCD770"/>
<path d="M275 511H51C42.2 511 35 503.8 35 495V319C35 310.2 42.2 303 51 303H67V479H223.24C245.16 479 265.16 491.4 275 511Z" fill="#5CD6B3"/>
<path d="M515 319V495C515 503.8 507.8 511 499 511H275C284.84 491.4 304.84 479 326.76 479H483V303H499C507.8 303 515 310.2 515 319Z" fill="#5CD6B3"/>
<path d="M435 236.2C427.32 238.04 419.24 239 411 239C402.76 239 394.68 238.04 387 236.2C341.16 225.4 307 184.2 307 135C307 77.56 353.56 31 411 31C468.44 31 515 77.56 515 135C515 184.2 480.84 225.4 435 236.2Z" fill="#E6E9ED"/>
<path d="M411 207C450.765 207 483 174.765 483 135C483 95.2355 450.765 63 411 63C371.235 63 339 95.2355 339 135C339 174.765 371.235 207 411 207Z" fill="#69D6F4"/>
<path d="M326.76 271C304.84 271 284.84 283.4 275 303C271.8 296.76 267.64 291.16 262.6 286.52C252.12 276.68 238.12 271 223.24 271H83H67V303V479H223.24C245.16 479 265.16 491.4 275 511C284.84 491.4 304.84 479 326.76 479H483V303V271H326.76Z" fill="#F0D0B4"/>
<path d="M435 271V359C435 365.64 432.28 371.64 427.96 375.96C423.64 380.28 417.64 383 411 383C397.72 383 387 372.28 387 359V271V236.2C394.68 238.04 402.76 239 411 239C419.24 239 427.32 238.04 435 236.2V271Z" fill="#969FAA"/>
<path d="M179 399H243V447H179V399Z" fill="#FCD770"/>
<path d="M99 303H179V367H99V303Z" fill="#FF826E"/>
<path d="M499 295H491V263H443V242.28C489.2 228.472 523 185.632 523 135C523 73.24 472.76 23 411 23C349.24 23 299 73.24 299 135C299 185.632 332.8 228.472 379 242.28V263H326.776C308.76 263 292.128 270.272 279.968 282.624C281.888 279.16 283 275.2 283 271V47C283 33.768 272.232 23 259 23H99C85.768 23 75 33.768 75 47V263H59V295H51C37.768 295 27 305.768 27 319V495C27 508.232 37.768 519 51 519H499C512.232 519 523 508.232 523 495V319C523 305.768 512.232 295 499 295ZM315 135C315 82.064 358.064 39 411 39C463.936 39 507 82.064 507 135C507 187.936 463.936 231 411 231C358.064 231 315 187.936 315 135ZM411 247C416.448 247 421.76 246.48 427 245.72V359C427 367.824 419.824 375 411 375C402.176 375 395 367.824 395 359V245.72C400.24 246.48 405.552 247 411 247ZM326.776 279H379V359C379 376.648 393.352 391 411 391C428.648 391 443 376.648 443 359V279H475V471H326.776C310.216 471 294.832 477.168 283 487.744V305.144C291.744 289.016 308.32 279 326.776 279ZM267 151H91V103H267V151ZM267 167V215H91V167H267ZM99 39H259C263.416 39 267 42.584 267 47V87H91V47C91 42.584 94.584 39 99 39ZM91 231H267V271C267 273.488 265.784 275.656 263.96 277.136C252.584 268.16 238.392 263 223.224 263H91V231ZM75 279H223.224C241.68 279 258.256 289.016 267 305.144V487.736C255.168 477.168 239.792 471 223.224 471H75V279ZM43 495V319C43 314.584 46.584 311 51 311H59V487H223.224C237.44 487 250.576 492.912 259.856 503H51C46.584 503 43 499.416 43 495ZM507 495C507 499.416 503.416 503 499 503H290.144C299.424 492.912 312.56 487 326.776 487H491V311H499C503.416 311 507 314.584 507 319V495Z" fill="black"/>
<path d="M491 135C491 90.888 455.112 55 411 55C366.888 55 331 90.888 331 135C331 179.112 366.888 215 411 215C455.112 215 491 179.112 491 135ZM347 135C347 99.712 375.712 71 411 71C446.288 71 475 99.712 475 135C475 170.288 446.288 199 411 199C375.712 199 347 170.288 347 135Z" fill="black"/>
<path d="M171 55H187V71H171V55Z" fill="black"/>
<path d="M107 55H123V71H107V55Z" fill="black"/>
<path d="M139 55H155V71H139V55Z" fill="black"/>
<path d="M139 183H155V199H139V183Z" fill="black"/>
<path d="M171 183H187V199H171V183Z" fill="black"/>
<path d="M107 183H123V199H107V183Z" fill="black"/>
<path d="M235 119H251V135H235V119Z" fill="black"/>
<path d="M203 119H219V135H203V119Z" fill="black"/>
<path d="M171 119H187V135H171V119Z" fill="black"/>
<path d="M187 295H91V375H187V295ZM171 359H107V311H171V359Z" fill="black"/>
<path d="M251 391H171V455H251V391ZM235 439H187V407H235V439Z" fill="black"/>
<path d="M91 391H155V407H91V391Z" fill="black"/>
<path d="M91 423H155V439H91V423Z" fill="black"/>
<path d="M203 359H251V375H203V359Z" fill="black"/>
<path d="M203 327H251V343H203V327Z" fill="black"/>
<path d="M299 311H363V327H299V311Z" fill="black"/>
<path d="M299 343H363V359H299V343Z" fill="black"/>
<path d="M299 375H363V391H299V375Z" fill="black"/>
<path d="M299 407H459V423H299V407Z" fill="black"/>
<path d="M299 439H315V455H299V439Z" fill="black"/>
<path d="M331 439H459V455H331V439Z" fill="black"/>
</svg>
