<svg width="416" height="33" viewBox="0 0 416 33" fill="none" xmlns="http://www.w3.org/2000/svg">
<path d="M0.98 11H2.443V2.299H7.42V0.92H0.98V11ZM10.7025 11.21C11.4538 11.21 12.1071 11.042 12.6625 10.706C13.2178 10.3653 13.6471 9.89633 13.9505 9.299C14.2585 8.697 14.4125 8.00167 14.4125 7.213C14.4125 6.43367 14.2608 5.74533 13.9575 5.148C13.6541 4.546 13.2248 4.077 12.6695 3.741C12.1141 3.40033 11.4585 3.23 10.7025 3.23C9.96045 3.23 9.31179 3.398 8.75645 3.734C8.20112 4.07 7.76945 4.53667 7.46145 5.134C7.15345 5.73133 6.99945 6.42433 6.99945 7.213C6.99945 7.99233 7.15112 8.683 7.45445 9.285C7.75779 9.887 8.18479 10.3583 8.73545 10.699C9.29079 11.0397 9.94645 11.21 10.7025 11.21ZM10.7025 9.831C9.99779 9.831 9.46345 9.59533 9.09945 9.124C8.73545 8.648 8.55345 8.011 8.55345 7.213C8.55345 6.443 8.72845 5.81767 9.07845 5.337C9.42845 4.85167 9.96979 4.609 10.7025 4.609C11.4165 4.609 11.9531 4.84467 12.3125 5.316C12.6765 5.78733 12.8585 6.41967 12.8585 7.213C12.8585 7.98767 12.6788 8.61767 12.3195 9.103C11.9648 9.58833 11.4258 9.831 10.7025 9.831ZM19.1847 11.21C19.9967 11.21 20.6874 11.014 21.2567 10.622C21.826 10.23 22.2344 9.663 22.4817 8.921L20.9977 8.571C20.8437 8.977 20.6197 9.28967 20.3257 9.509C20.0364 9.72367 19.656 9.831 19.1847 9.831C18.494 9.831 17.9714 9.59067 17.6167 9.11C17.2667 8.62933 17.0894 7.99933 17.0847 7.22C17.0894 6.464 17.2597 5.841 17.5957 5.351C17.9364 4.85633 18.466 4.609 19.1847 4.609C19.6094 4.609 19.985 4.728 20.3117 4.966C20.643 5.19933 20.881 5.52833 21.0257 5.953L22.4817 5.533C22.295 4.82367 21.9077 4.26367 21.3197 3.853C20.7364 3.43767 20.0317 3.23 19.2057 3.23C18.445 3.23 17.7894 3.40033 17.2387 3.741C16.6927 4.08167 16.2727 4.553 15.9787 5.155C15.6847 5.75233 15.5354 6.44067 15.5307 7.22C15.5354 7.98533 15.68 8.669 15.9647 9.271C16.254 9.873 16.6694 10.3467 17.2107 10.692C17.7567 11.0373 18.4147 11.21 19.1847 11.21ZM24.6563 14.36H26.0493L30.2213 3.44H28.7373L26.6023 9.124L24.3693 3.44H22.8433L25.9023 10.965L24.6563 14.36ZM30.4845 12.68H31.8775V11H36.9595V12.68H38.3455V9.824H37.6035V3.44H32.1855C32.1388 4.40133 32.0875 5.24833 32.0315 5.981C31.9801 6.709 31.9055 7.37867 31.8075 7.99C31.7001 8.65733 31.5555 9.131 31.3735 9.411C31.1961 9.68633 30.8998 9.824 30.4845 9.824V12.68ZM32.5775 9.824C32.7548 9.64667 32.8808 9.43433 32.9555 9.187C33.0348 8.93967 33.1025 8.63167 33.1585 8.263C33.2145 7.94567 33.2611 7.58167 33.2985 7.171C33.3405 6.76033 33.3755 6.33333 33.4035 5.89C33.4361 5.44667 33.4641 5.022 33.4875 4.616H36.1335V9.824H32.5775ZM41.4509 11.21C42.6549 11.21 43.5626 10.7737 44.1739 9.901V11H45.4689V6.345C45.4689 6.02767 45.4549 5.73133 45.4269 5.456C45.3989 5.18067 45.3243 4.91933 45.2029 4.672C44.9696 4.17267 44.6009 3.80867 44.0969 3.58C43.5976 3.34667 43.0096 3.23 42.3329 3.23C41.4603 3.23 40.7603 3.42133 40.2329 3.804C39.7056 4.18667 39.3509 4.70233 39.1689 5.351L40.5339 5.771C40.6646 5.351 40.8956 5.04767 41.2269 4.861C41.5583 4.67433 41.9223 4.581 42.3189 4.581C42.9069 4.581 43.3316 4.707 43.5929 4.959C43.8589 5.20633 44.0036 5.59133 44.0269 6.114C43.4109 6.198 42.8089 6.28667 42.2209 6.38C41.6329 6.46867 41.1196 6.576 40.6809 6.702C40.0976 6.88867 39.6543 7.16633 39.3509 7.535C39.0476 7.90367 38.8959 8.37267 38.8959 8.942C38.8959 9.35267 38.9916 9.73067 39.1829 10.076C39.3789 10.4167 39.6659 10.692 40.0439 10.902C40.4266 11.1073 40.8956 11.21 41.4509 11.21ZM41.7099 10.013C41.2433 10.013 40.8979 9.90567 40.6739 9.691C40.4546 9.47633 40.3449 9.222 40.3449 8.928C40.3449 8.62933 40.4429 8.39367 40.6389 8.221C40.8396 8.04833 41.0893 7.91067 41.3879 7.808C41.7053 7.71467 42.0786 7.633 42.5079 7.563C42.9419 7.493 43.4436 7.416 44.0129 7.332C44.0083 7.50933 43.9966 7.70767 43.9779 7.927C43.9593 8.14633 43.9196 8.34233 43.8589 8.515C43.8029 8.76233 43.6839 9.00033 43.5019 9.229C43.3246 9.45767 43.0843 9.64667 42.7809 9.796C42.4823 9.94067 42.1253 10.013 41.7099 10.013ZM47.2796 14.36H48.7496V10.468C49.0156 10.706 49.3213 10.888 49.6666 11.014C50.0166 11.1447 50.4063 11.21 50.8356 11.21C51.5403 11.21 52.147 11.035 52.6556 10.685C53.169 10.3303 53.5633 9.852 53.8386 9.25C54.1186 8.648 54.2586 7.969 54.2586 7.213C54.2586 6.45233 54.1186 5.77333 53.8386 5.176C53.5586 4.574 53.1596 4.10033 52.6416 3.755C52.1283 3.405 51.517 3.23 50.8076 3.23C50.341 3.23 49.921 3.30933 49.5476 3.468C49.1743 3.622 48.8523 3.839 48.5816 4.119V3.44H47.2796V14.36ZM50.6326 9.887C49.914 9.887 49.3913 9.63733 49.0646 9.138C48.7426 8.63867 48.5816 7.997 48.5816 7.213C48.5816 6.429 48.7426 5.78967 49.0646 5.295C49.3866 4.80033 49.893 4.553 50.5836 4.553C51.069 4.553 51.468 4.672 51.7806 4.91C52.0933 5.148 52.3243 5.46767 52.4736 5.869C52.6276 6.27033 52.7046 6.71833 52.7046 7.213C52.7046 7.71233 52.63 8.165 52.4806 8.571C52.3313 8.97233 52.1026 9.292 51.7946 9.53C51.4913 9.768 51.104 9.887 50.6326 9.887ZM59.0382 11.21C59.8502 11.21 60.5409 11.014 61.1102 10.622C61.6796 10.23 62.0879 9.663 62.3352 8.921L60.8512 8.571C60.6972 8.977 60.4732 9.28967 60.1792 9.509C59.8899 9.72367 59.5096 9.831 59.0382 9.831C58.3476 9.831 57.8249 9.59067 57.4702 9.11C57.1202 8.62933 56.9429 7.99933 56.9382 7.22C56.9429 6.464 57.1132 5.841 57.4492 5.351C57.7899 4.85633 58.3196 4.609 59.0382 4.609C59.4629 4.609 59.8386 4.728 60.1652 4.966C60.4966 5.19933 60.7346 5.52833 60.8792 5.953L62.3352 5.533C62.1486 4.82367 61.7612 4.26367 61.1732 3.853C60.5899 3.43767 59.8852 3.23 59.0592 3.23C58.2986 3.23 57.6429 3.40033 57.0922 3.741C56.5462 4.08167 56.1262 4.553 55.8322 5.155C55.5382 5.75233 55.3889 6.44067 55.3842 7.22C55.3889 7.98533 55.5336 8.669 55.8182 9.271C56.1076 9.873 56.5229 10.3467 57.0642 10.692C57.6102 11.0373 58.2682 11.21 59.0382 11.21ZM65.6185 11H67.0815V4.756H69.6645V3.44H63.0355V4.756H65.6185V11ZM70.9867 11H74.6337C74.853 11 75.0723 10.9907 75.2917 10.972C75.5157 10.9533 75.7163 10.9183 75.8937 10.867C76.3463 10.741 76.6963 10.5077 76.9437 10.167C77.191 9.82167 77.3147 9.39467 77.3147 8.886C77.3147 8.46133 77.233 8.12067 77.0697 7.864C76.9063 7.60733 76.694 7.41367 76.4327 7.283C76.2553 7.18967 76.085 7.129 75.9217 7.101C76.1037 7.04033 76.267 6.94233 76.4117 6.807C76.575 6.65767 76.7033 6.478 76.7967 6.268C76.89 6.058 76.9367 5.80367 76.9367 5.505C76.9367 4.97767 76.8013 4.553 76.5307 4.231C76.26 3.909 75.9333 3.69433 75.5507 3.587C75.3827 3.53567 75.189 3.49833 74.9697 3.475C74.7503 3.45167 74.531 3.44 74.3117 3.44H70.9867V11ZM72.4707 6.639V4.616H74.0387C74.0853 4.616 74.195 4.62067 74.3677 4.63C74.5403 4.63467 74.6967 4.66033 74.8367 4.707C75.0327 4.77233 75.1797 4.889 75.2777 5.057C75.3757 5.225 75.4247 5.41633 75.4247 5.631C75.4247 5.827 75.378 6.009 75.2847 6.177C75.196 6.34033 75.063 6.457 74.8857 6.527C74.783 6.569 74.6617 6.59933 74.5217 6.618C74.3817 6.632 74.244 6.639 74.1087 6.639H72.4707ZM72.4707 9.845V7.815H74.4657C74.545 7.815 74.6383 7.81733 74.7457 7.822C74.8577 7.82667 74.9627 7.84533 75.0607 7.878C75.2753 7.92467 75.4527 8.02967 75.5927 8.193C75.7327 8.35633 75.8027 8.56867 75.8027 8.83C75.8027 9.026 75.756 9.21033 75.6627 9.383C75.5693 9.55567 75.42 9.67467 75.2147 9.74C74.9953 9.81 74.7713 9.845 74.5427 9.845H72.4707ZM82.0713 11.21C82.8039 11.21 83.4689 11.0257 84.0663 10.657C84.6636 10.2837 85.1093 9.75867 85.4033 9.082L83.9683 8.627C83.5856 9.42967 82.9299 9.831 82.0013 9.831C81.3666 9.831 80.8673 9.63967 80.5033 9.257C80.1393 8.87433 79.9269 8.333 79.8663 7.633H85.5013C85.5526 6.72767 85.4453 5.946 85.1793 5.288C84.9133 4.63 84.5096 4.12367 83.9683 3.769C83.4269 3.40967 82.7713 3.23 82.0013 3.23C81.2639 3.23 80.6176 3.39567 80.0623 3.727C79.5069 4.05833 79.0729 4.52733 78.7603 5.134C78.4523 5.74067 78.2983 6.457 78.2983 7.283C78.2983 8.06233 78.4546 8.74833 78.7673 9.341C79.0846 9.929 79.5256 10.3887 80.0903 10.72C80.6596 11.0467 81.3199 11.21 82.0713 11.21ZM82.0573 4.525C83.2006 4.525 83.8493 5.18067 84.0033 6.492H79.9013C79.9946 5.85267 80.2209 5.365 80.5803 5.029C80.9396 4.693 81.4319 4.525 82.0573 4.525ZM87.0648 11H88.5278V7.906H92.2168V11H93.6798V3.44H92.2168V6.527H88.5278V3.44H87.0648V11ZM95.6371 11H97.1001V7.906H100.789V11H102.252V3.44H100.789V6.527H97.1001V3.44H95.6371V11ZM106.351 11.21C107.555 11.21 108.463 10.7737 109.074 9.901V11H110.369V6.345C110.369 6.02767 110.355 5.73133 110.327 5.456C110.299 5.18067 110.225 4.91933 110.103 4.672C109.87 4.17267 109.501 3.80867 108.997 3.58C108.498 3.34667 107.91 3.23 107.233 3.23C106.361 3.23 105.661 3.42133 105.133 3.804C104.606 4.18667 104.251 4.70233 104.069 5.351L105.434 5.771C105.565 5.351 105.796 5.04767 106.127 4.861C106.459 4.67433 106.823 4.581 107.219 4.581C107.807 4.581 108.232 4.707 108.493 4.959C108.759 5.20633 108.904 5.59133 108.927 6.114C108.311 6.198 107.709 6.28667 107.121 6.38C106.533 6.46867 106.02 6.576 105.581 6.702C104.998 6.88867 104.555 7.16633 104.251 7.535C103.948 7.90367 103.796 8.37267 103.796 8.942C103.796 9.35267 103.892 9.73067 104.083 10.076C104.279 10.4167 104.566 10.692 104.944 10.902C105.327 11.1073 105.796 11.21 106.351 11.21ZM106.61 10.013C106.144 10.013 105.798 9.90567 105.574 9.691C105.355 9.47633 105.245 9.222 105.245 8.928C105.245 8.62933 105.343 8.39367 105.539 8.221C105.74 8.04833 105.99 7.91067 106.288 7.808C106.606 7.71467 106.979 7.633 107.408 7.563C107.842 7.493 108.344 7.416 108.913 7.332C108.909 7.50933 108.897 7.70767 108.878 7.927C108.86 8.14633 108.82 8.34233 108.759 8.515C108.703 8.76233 108.584 9.00033 108.402 9.229C108.225 9.45767 107.985 9.64667 107.681 9.796C107.383 9.94067 107.026 10.013 106.61 10.013ZM111.767 11H113.328L114.994 8.368C115.092 8.37267 115.19 8.375 115.288 8.375H116.786V11H118.256L118.249 3.44H115.246C115.073 3.44 114.861 3.44467 114.609 3.454C114.362 3.46333 114.119 3.49367 113.881 3.545C113.33 3.66167 112.875 3.923 112.516 4.329C112.161 4.73033 111.984 5.26233 111.984 5.925C111.984 6.527 112.131 7.017 112.425 7.395C112.724 7.76833 113.106 8.02967 113.573 8.179L111.767 11ZM115.162 7.199C115.059 7.199 114.94 7.19433 114.805 7.185C114.674 7.171 114.541 7.14767 114.406 7.115C114.154 7.04967 113.937 6.91433 113.755 6.709C113.573 6.499 113.482 6.233 113.482 5.911C113.482 5.58433 113.573 5.31833 113.755 5.113C113.937 4.903 114.135 4.76767 114.35 4.707C114.49 4.665 114.635 4.63933 114.784 4.63C114.933 4.62067 115.059 4.616 115.162 4.616H116.786V7.199H115.162ZM125.15 11.21C126.354 11.21 127.262 10.7737 127.873 9.901V11H129.168V6.345C129.168 6.02767 129.154 5.73133 129.126 5.456C129.098 5.18067 129.023 4.91933 128.902 4.672C128.669 4.17267 128.3 3.80867 127.796 3.58C127.297 3.34667 126.709 3.23 126.032 3.23C125.159 3.23 124.459 3.42133 123.932 3.804C123.405 4.18667 123.05 4.70233 122.868 5.351L124.233 5.771C124.364 5.351 124.595 5.04767 124.926 4.861C125.257 4.67433 125.621 4.581 126.018 4.581C126.606 4.581 127.031 4.707 127.292 4.959C127.558 5.20633 127.703 5.59133 127.726 6.114C127.11 6.198 126.508 6.28667 125.92 6.38C125.332 6.46867 124.819 6.576 124.38 6.702C123.797 6.88867 123.353 7.16633 123.05 7.535C122.747 7.90367 122.595 8.37267 122.595 8.942C122.595 9.35267 122.691 9.73067 122.882 10.076C123.078 10.4167 123.365 10.692 123.743 10.902C124.126 11.1073 124.595 11.21 125.15 11.21ZM125.409 10.013C124.942 10.013 124.597 9.90567 124.373 9.691C124.154 9.47633 124.044 9.222 124.044 8.928C124.044 8.62933 124.142 8.39367 124.338 8.221C124.539 8.04833 124.788 7.91067 125.087 7.808C125.404 7.71467 125.778 7.633 126.207 7.563C126.641 7.493 127.143 7.416 127.712 7.332C127.707 7.50933 127.696 7.70767 127.677 7.927C127.658 8.14633 127.619 8.34233 127.558 8.515C127.502 8.76233 127.383 9.00033 127.201 9.229C127.024 9.45767 126.783 9.64667 126.48 9.796C126.181 9.94067 125.824 10.013 125.409 10.013ZM130.426 12.68H131.819V11H136.901V12.68H138.287V9.824H137.545V3.44H132.127C132.08 4.40133 132.029 5.24833 131.973 5.981C131.922 6.709 131.847 7.37867 131.749 7.99C131.642 8.65733 131.497 9.131 131.315 9.411C131.138 9.68633 130.841 9.824 130.426 9.824V12.68ZM132.519 9.824C132.696 9.64667 132.822 9.43433 132.897 9.187C132.976 8.93967 133.044 8.63167 133.1 8.263C133.156 7.94567 133.203 7.58167 133.24 7.171C133.282 6.76033 133.317 6.33333 133.345 5.89C133.378 5.44667 133.406 5.022 133.429 4.616H136.075V9.824H132.519ZM139.674 11H141.081V6.436L143.356 11H144.021L146.296 6.436V11H147.71V3.44H146.478L143.692 8.984L140.899 3.44H139.674V11ZM156.045 3.44H154.862L151.075 8.592V3.44H149.668V11H150.858L154.638 5.743V11H156.045V3.44ZM157.994 11H159.457V7.906H163.146V11H164.609V3.44H163.146V6.527H159.457V3.44H157.994V11ZM172.944 3.44H171.761L167.974 8.592V3.44H166.567V11H167.757L171.537 5.743V11H172.944V3.44ZM178.134 11.21C178.946 11.21 179.637 11.014 180.206 10.622C180.775 10.23 181.184 9.663 181.431 8.921L179.947 8.571C179.793 8.977 179.569 9.28967 179.275 9.509C178.986 9.72367 178.605 9.831 178.134 9.831C177.443 9.831 176.921 9.59067 176.566 9.11C176.216 8.62933 176.039 7.99933 176.034 7.22C176.039 6.464 176.209 5.841 176.545 5.351C176.886 4.85633 177.415 4.609 178.134 4.609C178.559 4.609 178.934 4.728 179.261 4.966C179.592 5.19933 179.83 5.52833 179.975 5.953L181.431 5.533C181.244 4.82367 180.857 4.26367 180.269 3.853C179.686 3.43767 178.981 3.23 178.155 3.23C177.394 3.23 176.739 3.40033 176.188 3.741C175.642 4.08167 175.222 4.553 174.928 5.155C174.634 5.75233 174.485 6.44067 174.48 7.22C174.485 7.98533 174.629 8.669 174.914 9.271C175.203 9.873 175.619 10.3467 176.16 10.692C176.706 11.0373 177.364 11.21 178.134 11.21ZM184.714 11H186.177V4.756H188.76V3.44H182.131V4.756H184.714V11ZM190.082 14.36H191.552V10.468C191.818 10.706 192.124 10.888 192.469 11.014C192.819 11.1447 193.209 11.21 193.638 11.21C194.343 11.21 194.95 11.035 195.458 10.685C195.972 10.3303 196.366 9.852 196.641 9.25C196.921 8.648 197.061 7.969 197.061 7.213C197.061 6.45233 196.921 5.77333 196.641 5.176C196.361 4.574 195.962 4.10033 195.444 3.755C194.931 3.405 194.32 3.23 193.61 3.23C193.144 3.23 192.724 3.30933 192.35 3.468C191.977 3.622 191.655 3.839 191.384 4.119V3.44H190.082V14.36ZM193.435 9.887C192.717 9.887 192.194 9.63733 191.867 9.138C191.545 8.63867 191.384 7.997 191.384 7.213C191.384 6.429 191.545 5.78967 191.867 5.295C192.189 4.80033 192.696 4.553 193.386 4.553C193.872 4.553 194.271 4.672 194.583 4.91C194.896 5.148 195.127 5.46767 195.276 5.869C195.43 6.27033 195.507 6.71833 195.507 7.213C195.507 7.71233 195.433 8.165 195.283 8.571C195.134 8.97233 194.905 9.292 194.597 9.53C194.294 9.768 193.907 9.887 193.435 9.887ZM200.742 11.21C201.946 11.21 202.854 10.7737 203.465 9.901V11H204.76V6.345C204.76 6.02767 204.746 5.73133 204.718 5.456C204.69 5.18067 204.615 4.91933 204.494 4.672C204.261 4.17267 203.892 3.80867 203.388 3.58C202.889 3.34667 202.301 3.23 201.624 3.23C200.751 3.23 200.051 3.42133 199.524 3.804C198.997 4.18667 198.642 4.70233 198.46 5.351L199.825 5.771C199.956 5.351 200.187 5.04767 200.518 4.861C200.849 4.67433 201.213 4.581 201.61 4.581C202.198 4.581 202.623 4.707 202.884 4.959C203.15 5.20633 203.295 5.59133 203.318 6.114C202.702 6.198 202.1 6.28667 201.512 6.38C200.924 6.46867 200.411 6.576 199.972 6.702C199.389 6.88867 198.945 7.16633 198.642 7.535C198.339 7.90367 198.187 8.37267 198.187 8.942C198.187 9.35267 198.283 9.73067 198.474 10.076C198.67 10.4167 198.957 10.692 199.335 10.902C199.718 11.1073 200.187 11.21 200.742 11.21ZM201.001 10.013C200.534 10.013 200.189 9.90567 199.965 9.691C199.746 9.47633 199.636 9.222 199.636 8.928C199.636 8.62933 199.734 8.39367 199.93 8.221C200.131 8.04833 200.38 7.91067 200.679 7.808C200.996 7.71467 201.37 7.633 201.799 7.563C202.233 7.493 202.735 7.416 203.304 7.332C203.299 7.50933 203.288 7.70767 203.269 7.927C203.25 8.14633 203.211 8.34233 203.15 8.515C203.094 8.76233 202.975 9.00033 202.793 9.229C202.616 9.45767 202.375 9.64667 202.072 9.796C201.773 9.94067 201.416 10.013 201.001 10.013ZM208.531 11H209.994V4.756H212.577V3.44H205.948V4.756H208.531V11ZM220.276 3.44H219.093L215.306 8.592V3.44H213.899V11H215.089L218.869 5.743V11H220.276V3.44ZM222.225 11H225.872C226.091 11 226.311 10.9907 226.53 10.972C226.754 10.9533 226.955 10.9183 227.132 10.867C227.585 10.741 227.935 10.5077 228.182 10.167C228.429 9.82167 228.553 9.39467 228.553 8.886C228.553 8.46133 228.471 8.12067 228.308 7.864C228.145 7.60733 227.932 7.41367 227.671 7.283C227.494 7.18967 227.323 7.129 227.16 7.101C227.342 7.04033 227.505 6.94233 227.65 6.807C227.813 6.65767 227.942 6.478 228.035 6.268C228.128 6.058 228.175 5.80367 228.175 5.505C228.175 4.97767 228.04 4.553 227.769 4.231C227.498 3.909 227.172 3.69433 226.789 3.587C226.621 3.53567 226.427 3.49833 226.208 3.475C225.989 3.45167 225.769 3.44 225.55 3.44H222.225V11ZM223.709 6.639V4.616H225.277C225.324 4.616 225.433 4.62067 225.606 4.63C225.779 4.63467 225.935 4.66033 226.075 4.707C226.271 4.77233 226.418 4.889 226.516 5.057C226.614 5.225 226.663 5.41633 226.663 5.631C226.663 5.827 226.616 6.009 226.523 6.177C226.434 6.34033 226.301 6.457 226.124 6.527C226.021 6.569 225.9 6.59933 225.76 6.618C225.62 6.632 225.482 6.639 225.347 6.639H223.709ZM223.709 9.845V7.815H225.704C225.783 7.815 225.877 7.81733 225.984 7.822C226.096 7.82667 226.201 7.84533 226.299 7.878C226.514 7.92467 226.691 8.02967 226.831 8.193C226.971 8.35633 227.041 8.56867 227.041 8.83C227.041 9.026 226.994 9.21033 226.901 9.383C226.808 9.55567 226.658 9.67467 226.453 9.74C226.234 9.81 226.01 9.845 225.781 9.845H223.709ZM229.95 11H231.413V7.906H235.102V11H236.565V3.44H235.102V6.527H231.413V3.44H229.95V11ZM241.812 11.21C242.563 11.21 243.216 11.042 243.772 10.706C244.327 10.3653 244.756 9.89633 245.06 9.299C245.368 8.697 245.522 8.00167 245.522 7.213C245.522 6.43367 245.37 5.74533 245.067 5.148C244.763 4.546 244.334 4.077 243.779 3.741C243.223 3.40033 242.568 3.23 241.812 3.23C241.07 3.23 240.421 3.398 239.866 3.734C239.31 4.07 238.879 4.53667 238.571 5.134C238.263 5.73133 238.109 6.42433 238.109 7.213C238.109 7.99233 238.26 8.683 238.564 9.285C238.867 9.887 239.294 10.3583 239.845 10.699C240.4 11.0397 241.056 11.21 241.812 11.21ZM241.812 9.831C241.107 9.831 240.573 9.59533 240.209 9.124C239.845 8.648 239.663 8.011 239.663 7.213C239.663 6.443 239.838 5.81767 240.188 5.337C240.538 4.85167 241.079 4.609 241.812 4.609C242.526 4.609 243.062 4.84467 243.422 5.316C243.786 5.78733 243.968 6.41967 243.968 7.213C243.968 7.98767 243.788 8.61767 243.429 9.103C243.074 9.58833 242.535 9.831 241.812 9.831ZM246.92 7.171H251.12V5.995H246.92V7.171ZM254.892 11H256.355V4.756H258.938V3.44H252.309V4.756H254.892V11ZM263.62 11.21C264.353 11.21 265.018 11.0257 265.615 10.657C266.212 10.2837 266.658 9.75867 266.952 9.082L265.517 8.627C265.134 9.42967 264.479 9.831 263.55 9.831C262.915 9.831 262.416 9.63967 262.052 9.257C261.688 8.87433 261.476 8.333 261.415 7.633H267.05C267.101 6.72767 266.994 5.946 266.728 5.288C266.462 4.63 266.058 4.12367 265.517 3.769C264.976 3.40967 264.32 3.23 263.55 3.23C262.813 3.23 262.166 3.39567 261.611 3.727C261.056 4.05833 260.622 4.52733 260.309 5.134C260.001 5.74067 259.847 6.457 259.847 7.283C259.847 8.06233 260.003 8.74833 260.316 9.341C260.633 9.929 261.074 10.3887 261.639 10.72C262.208 11.0467 262.869 11.21 263.62 11.21ZM263.606 4.525C264.749 4.525 265.398 5.18067 265.552 6.492H261.45C261.543 5.85267 261.77 5.365 262.129 5.029C262.488 4.693 262.981 4.525 263.606 4.525ZM267.507 11H269.25L271.189 8.319L273.114 11H274.857L272.022 7.178L274.787 3.44H273.051L271.189 6.037L269.306 3.44H267.57L270.335 7.178L267.507 11ZM275.969 11H277.432V7.906H281.121V11H282.584V3.44H281.121V6.527H277.432V3.44H275.969V11ZM290.918 3.44H289.735L285.948 8.592V3.44H284.541V11H285.731L289.511 5.743V11H290.918V3.44ZM297.348 11H298.825V3.44H297.348V7.024C297.152 7.16867 296.911 7.28767 296.627 7.381C296.347 7.46967 296.034 7.514 295.689 7.514C295.203 7.514 294.828 7.41367 294.562 7.213C294.296 7.00767 294.118 6.695 294.03 6.275C293.988 6.08367 293.962 5.89 293.953 5.694C293.943 5.498 293.939 5.33933 293.939 5.218V3.44H292.455V5.218C292.455 5.344 292.459 5.56333 292.469 5.876C292.478 6.18867 292.513 6.48967 292.574 6.779C292.714 7.437 293.017 7.941 293.484 8.291C293.955 8.63633 294.578 8.809 295.353 8.809C295.735 8.809 296.099 8.76933 296.445 8.69C296.79 8.606 297.091 8.49867 297.348 8.368V11ZM304.144 11.21C304.876 11.21 305.541 11.0257 306.139 10.657C306.736 10.2837 307.182 9.75867 307.476 9.082L306.041 8.627C305.658 9.42967 305.002 9.831 304.074 9.831C303.439 9.831 302.94 9.63967 302.576 9.257C302.212 8.87433 301.999 8.333 301.939 7.633H307.574C307.625 6.72767 307.518 5.946 307.252 5.288C306.986 4.63 306.582 4.12367 306.041 3.769C305.499 3.40967 304.844 3.23 304.074 3.23C303.336 3.23 302.69 3.39567 302.135 3.727C301.579 4.05833 301.145 4.52733 300.833 5.134C300.525 5.74067 300.371 6.457 300.371 7.283C300.371 8.06233 300.527 8.74833 300.84 9.341C301.157 9.929 301.598 10.3887 302.163 10.72C302.732 11.0467 303.392 11.21 304.144 11.21ZM304.13 4.525C305.273 4.525 305.922 5.18067 306.076 6.492H301.974C302.067 5.85267 302.293 5.365 302.653 5.029C303.012 4.693 303.504 4.525 304.13 4.525ZM312.378 11.21C313.19 11.21 313.881 11.014 314.45 10.622C315.019 10.23 315.428 9.663 315.675 8.921L314.191 8.571C314.037 8.977 313.813 9.28967 313.519 9.509C313.23 9.72367 312.849 9.831 312.378 9.831C311.687 9.831 311.165 9.59067 310.81 9.11C310.46 8.62933 310.283 7.99933 310.278 7.22C310.283 6.464 310.453 5.841 310.789 5.351C311.13 4.85633 311.659 4.609 312.378 4.609C312.803 4.609 313.178 4.728 313.505 4.966C313.836 5.19933 314.074 5.52833 314.219 5.953L315.675 5.533C315.488 4.82367 315.101 4.26367 314.513 3.853C313.93 3.43767 313.225 3.23 312.399 3.23C311.638 3.23 310.983 3.40033 310.432 3.741C309.886 4.08167 309.466 4.553 309.172 5.155C308.878 5.75233 308.729 6.44067 308.724 7.22C308.729 7.98533 308.873 8.669 309.158 9.271C309.447 9.873 309.863 10.3467 310.404 10.692C310.95 11.0373 311.608 11.21 312.378 11.21ZM317.094 11H318.585V7.36L321.749 11H323.737L320.279 7.22L323.415 3.44H321.553L318.585 7.08V3.44H317.101L317.094 11ZM326.578 11.21C327.782 11.21 328.69 10.7737 329.301 9.901V11H330.596V6.345C330.596 6.02767 330.582 5.73133 330.554 5.456C330.526 5.18067 330.451 4.91933 330.33 4.672C330.097 4.17267 329.728 3.80867 329.224 3.58C328.725 3.34667 328.137 3.23 327.46 3.23C326.587 3.23 325.887 3.42133 325.36 3.804C324.833 4.18667 324.478 4.70233 324.296 5.351L325.661 5.771C325.792 5.351 326.023 5.04767 326.354 4.861C326.685 4.67433 327.049 4.581 327.446 4.581C328.034 4.581 328.459 4.707 328.72 4.959C328.986 5.20633 329.131 5.59133 329.154 6.114C328.538 6.198 327.936 6.28667 327.348 6.38C326.76 6.46867 326.247 6.576 325.808 6.702C325.225 6.88867 324.781 7.16633 324.478 7.535C324.175 7.90367 324.023 8.37267 324.023 8.942C324.023 9.35267 324.119 9.73067 324.31 10.076C324.506 10.4167 324.793 10.692 325.171 10.902C325.554 11.1073 326.023 11.21 326.578 11.21ZM326.837 10.013C326.37 10.013 326.025 9.90567 325.801 9.691C325.582 9.47633 325.472 9.222 325.472 8.928C325.472 8.62933 325.57 8.39367 325.766 8.221C325.967 8.04833 326.216 7.91067 326.515 7.808C326.832 7.71467 327.206 7.633 327.635 7.563C328.069 7.493 328.571 7.416 329.14 7.332C329.135 7.50933 329.124 7.70767 329.105 7.927C329.086 8.14633 329.047 8.34233 328.986 8.515C328.93 8.76233 328.811 9.00033 328.629 9.229C328.452 9.45767 328.211 9.64667 327.908 9.796C327.609 9.94067 327.252 10.013 326.837 10.013ZM331.994 11H333.555L335.221 8.368C335.319 8.37267 335.417 8.375 335.515 8.375H337.013V11H338.483L338.476 3.44H335.473C335.3 3.44 335.088 3.44467 334.836 3.454C334.588 3.46333 334.346 3.49367 334.108 3.545C333.557 3.66167 333.102 3.923 332.743 4.329C332.388 4.73033 332.211 5.26233 332.211 5.925C332.211 6.527 332.358 7.017 332.652 7.395C332.95 7.76833 333.333 8.02967 333.8 8.179L331.994 11ZM335.389 7.199C335.286 7.199 335.167 7.19433 335.032 7.185C334.901 7.171 334.768 7.14767 334.633 7.115C334.381 7.04967 334.164 6.91433 333.982 6.709C333.8 6.499 333.709 6.233 333.709 5.911C333.709 5.58433 333.8 5.31833 333.982 5.113C334.164 4.903 334.362 4.76767 334.577 4.707C334.717 4.665 334.861 4.63933 335.011 4.63C335.16 4.62067 335.286 4.616 335.389 4.616H337.013V7.199H335.389ZM349.612 3.44H348.429L344.642 8.592V3.44H343.235V11H344.425L348.205 5.743V11H349.612V3.44ZM351.561 11H353.024V7.906H356.713V11H358.176V3.44H356.713V6.527H353.024V3.44H351.561V11ZM363.374 11.21C364.186 11.21 364.877 11.014 365.446 10.622C366.015 10.23 366.424 9.663 366.671 8.921L365.187 8.571C365.033 8.977 364.809 9.28967 364.515 9.509C364.226 9.72367 363.845 9.831 363.374 9.831C362.683 9.831 362.161 9.59067 361.806 9.11C361.456 8.62933 361.279 7.99933 361.274 7.22C361.279 6.464 361.449 5.841 361.785 5.351C362.126 4.85633 362.655 4.609 363.374 4.609C363.799 4.609 364.174 4.728 364.501 4.966C364.832 5.19933 365.07 5.52833 365.215 5.953L366.671 5.533C366.484 4.82367 366.097 4.26367 365.509 3.853C364.926 3.43767 364.221 3.23 363.395 3.23C362.634 3.23 361.979 3.40033 361.428 3.741C360.882 4.08167 360.462 4.553 360.168 5.155C359.874 5.75233 359.725 6.44067 359.72 7.22C359.725 7.98533 359.869 8.669 360.154 9.271C360.443 9.873 360.859 10.3467 361.4 10.692C361.946 11.0373 362.604 11.21 363.374 11.21ZM368.09 11H369.553V4.819H373.004V11H374.467V3.44H368.09V11ZM379.776 11.21C380.509 11.21 381.174 11.0257 381.771 10.657C382.369 10.2837 382.814 9.75867 383.108 9.082L381.673 8.627C381.291 9.42967 380.635 9.831 379.706 9.831C379.072 9.831 378.572 9.63967 378.208 9.257C377.844 8.87433 377.632 8.333 377.571 7.633H383.206C383.258 6.72767 383.15 5.946 382.884 5.288C382.618 4.63 382.215 4.12367 381.673 3.769C381.132 3.40967 380.476 3.23 379.706 3.23C378.969 3.23 378.323 3.39567 377.767 3.727C377.212 4.05833 376.778 4.52733 376.465 5.134C376.157 5.74067 376.003 6.457 376.003 7.283C376.003 8.06233 376.16 8.74833 376.472 9.341C376.79 9.929 377.231 10.3887 377.795 10.72C378.365 11.0467 379.025 11.21 379.776 11.21ZM379.762 4.525C380.906 4.525 381.554 5.18067 381.708 6.492H377.606C377.7 5.85267 377.926 5.365 378.285 5.029C378.645 4.693 379.137 4.525 379.762 4.525ZM384.77 11H386.261V7.36L389.425 11H391.413L387.955 7.22L391.091 3.44H389.229L386.261 7.08V3.44H384.777L384.77 11ZM398.503 12.491H399.966V9.684H398.489V3.44H397.026V9.621H393.575V3.44H392.112V11H398.503V12.491ZM407.457 3.44H406.274L402.487 8.592V3.44H401.08V11H402.27L406.05 5.743V11H407.457V3.44ZM408.994 11H410.555L412.221 8.368C412.319 8.37267 412.417 8.375 412.515 8.375H414.013V11H415.483L415.476 3.44H412.473C412.3 3.44 412.088 3.44467 411.836 3.454C411.588 3.46333 411.346 3.49367 411.108 3.545C410.557 3.66167 410.102 3.923 409.743 4.329C409.388 4.73033 409.211 5.26233 409.211 5.925C409.211 6.527 409.358 7.017 409.652 7.395C409.95 7.76833 410.333 8.02967 410.8 8.179L408.994 11ZM412.389 7.199C412.286 7.199 412.167 7.19433 412.032 7.185C411.901 7.171 411.768 7.14767 411.633 7.115C411.381 7.04967 411.164 6.91433 410.982 6.709C410.8 6.499 410.709 6.233 410.709 5.911C410.709 5.58433 410.8 5.31833 410.982 5.113C411.164 4.903 411.362 4.76767 411.577 4.707C411.717 4.665 411.861 4.63933 412.011 4.63C412.16 4.62067 412.286 4.616 412.389 4.616H414.013V7.199H412.389ZM0.91 29H1.8655V20.5565H7.124V29H8.0795V19.64H0.91V29ZM9.89178 32.12H10.8538V28.1615C11.1051 28.4822 11.4149 28.7357 11.7833 28.922C12.1516 29.104 12.5741 29.195 13.0508 29.195C13.7094 29.195 14.2706 29.0325 14.7343 28.7075C15.1979 28.3782 15.5511 27.934 15.7938 27.375C16.0408 26.816 16.1643 26.1855 16.1643 25.4835C16.1643 24.7858 16.0408 24.1575 15.7938 23.5985C15.5511 23.0395 15.2001 22.5975 14.7408 22.2725C14.2814 21.9475 13.7311 21.785 13.0898 21.785C12.5698 21.785 12.1126 21.889 11.7183 22.097C11.3283 22.3007 11.0054 22.5845 10.7498 22.9485V21.98H9.89178V32.12ZM12.9533 28.3045C12.4549 28.3045 12.0433 28.1832 11.7183 27.9405C11.3933 27.6935 11.1506 27.3577 10.9903 26.933C10.8299 26.5083 10.7498 26.0252 10.7498 25.4835C10.7498 24.6558 10.9296 23.982 11.2893 23.462C11.6533 22.9377 12.2014 22.6755 12.9338 22.6755C13.4364 22.6755 13.8503 22.799 14.1753 23.046C14.5046 23.293 14.7494 23.6288 14.9098 24.0535C15.0701 24.4782 15.1503 24.9548 15.1503 25.4835C15.1503 26.0165 15.0679 26.4953 14.9033 26.92C14.7429 27.3447 14.5003 27.6827 14.1753 27.934C13.8503 28.181 13.4429 28.3045 12.9533 28.3045ZM19.6001 29.195C20.8265 29.195 21.717 28.7422 22.2716 27.8365V29H23.1231V24.6385C23.1231 24.3785 23.1101 24.1228 23.0841 23.8715C23.0581 23.6202 23.0018 23.3927 22.9151 23.189C22.7288 22.734 22.4103 22.3873 21.9596 22.149C21.5133 21.9063 20.9695 21.785 20.3281 21.785C19.5568 21.785 18.9285 21.9583 18.4431 22.305C17.9578 22.6517 17.6328 23.1392 17.4681 23.7675L18.3976 24.0405C18.532 23.5725 18.7638 23.2302 19.0931 23.0135C19.4268 22.7968 19.8341 22.6885 20.3151 22.6885C20.9825 22.6885 21.4591 22.8445 21.7451 23.1565C22.0311 23.4642 22.1785 23.9343 22.1871 24.567C21.8751 24.6103 21.5306 24.6558 21.1536 24.7035C20.781 24.7512 20.4061 24.8053 20.0291 24.866C19.6521 24.9267 19.3055 24.996 18.9891 25.074C18.4648 25.2127 18.0358 25.4445 17.7021 25.7695C17.3685 26.0902 17.2016 26.5387 17.2016 27.115C17.2016 27.4877 17.2905 27.8322 17.4681 28.1485C17.6458 28.4648 17.9123 28.7183 18.2676 28.909C18.6273 29.0997 19.0715 29.195 19.6001 29.195ZM19.7106 28.3695C19.3336 28.3695 19.0303 28.3088 18.8006 28.1875C18.5753 28.0618 18.4106 27.9037 18.3066 27.713C18.207 27.518 18.1571 27.3187 18.1571 27.115C18.1571 26.7337 18.285 26.4477 18.5406 26.257C18.7963 26.0663 19.0736 25.9277 19.3726 25.841C19.7583 25.737 20.2068 25.6525 20.7181 25.5875C21.2295 25.5225 21.7148 25.4618 22.1741 25.4055C22.1741 25.5658 22.1676 25.75 22.1546 25.958C22.146 26.1617 22.1221 26.3502 22.0831 26.5235C21.9921 27.0522 21.7408 27.492 21.3291 27.843C20.9218 28.194 20.3823 28.3695 19.7106 28.3695ZM24.8088 29H28.0783C28.2559 29 28.4444 28.9935 28.6438 28.9805C28.8474 28.9675 29.0359 28.9372 29.2093 28.8895C29.5949 28.7768 29.9026 28.5688 30.1323 28.2655C30.3619 27.9622 30.4768 27.57 30.4768 27.089C30.4768 26.3957 30.2211 25.8952 29.7098 25.5875C29.5538 25.4922 29.4043 25.4315 29.2613 25.4055C29.4216 25.3362 29.5689 25.2278 29.7033 25.0805C29.8419 24.9375 29.9481 24.7685 30.0218 24.5735C30.0998 24.3742 30.1388 24.1488 30.1388 23.8975C30.1388 23.4468 30.0174 23.0633 29.7748 22.747C29.5364 22.4263 29.2201 22.2118 28.8258 22.1035C28.6438 22.0558 28.4466 22.0233 28.2343 22.006C28.0263 21.9887 27.8486 21.98 27.7013 21.98H24.8088V29ZM25.7708 25.0805V22.799H27.6038C27.6514 22.799 27.7641 22.8033 27.9418 22.812C28.1238 22.8207 28.2928 22.8532 28.4488 22.9095C28.6784 22.9832 28.8496 23.1153 28.9623 23.306C29.0793 23.4923 29.1378 23.7068 29.1378 23.9495C29.1378 24.1748 29.0836 24.3828 28.9753 24.5735C28.8713 24.7642 28.7066 24.8985 28.4813 24.9765C28.3729 25.0155 28.2494 25.0437 28.1108 25.061C27.9721 25.074 27.8464 25.0805 27.7338 25.0805H25.7708ZM25.7708 28.1875V25.8995H27.8963C27.9829 25.8995 28.0804 25.9017 28.1888 25.906C28.3014 25.9103 28.4054 25.9233 28.5008 25.945C28.7954 25.9883 29.0338 26.1097 29.2158 26.309C29.3978 26.504 29.4888 26.7553 29.4888 27.063C29.4888 27.297 29.4281 27.5137 29.3068 27.713C29.1898 27.908 29.0034 28.038 28.7478 28.103C28.6394 28.1333 28.5159 28.155 28.3773 28.168C28.2386 28.181 28.1238 28.1875 28.0328 28.1875H25.7708ZM37.3493 21.98H36.5498L32.6953 27.401V21.98H31.7658V29H32.5718L36.4198 23.5335V29H37.3493V21.98ZM41.0782 29H42.0337V22.864H44.5232V21.98H38.5887V22.864H41.0782V29ZM48.733 29.195C49.4134 29.195 50.0222 29.0282 50.5595 28.6945C51.1012 28.3608 51.5107 27.8863 51.788 27.271L50.8975 26.9265C50.4512 27.8278 49.7167 28.2785 48.694 28.2785C47.992 28.2785 47.4417 28.0597 47.043 27.622C46.6487 27.1843 46.432 26.5625 46.393 25.7565H51.9245C51.9592 24.5172 51.6884 23.5465 51.112 22.8445C50.54 22.1382 49.734 21.785 48.694 21.785C48.018 21.785 47.4309 21.9367 46.9325 22.24C46.4385 22.5433 46.055 22.9745 45.782 23.5335C45.509 24.0925 45.3725 24.7555 45.3725 25.5225C45.3725 26.2635 45.509 26.9092 45.782 27.4595C46.0594 28.0098 46.4494 28.4367 46.952 28.74C47.459 29.0433 48.0527 29.195 48.733 29.195ZM48.72 22.6625C50.0417 22.6625 50.7762 23.4273 50.9235 24.957H46.4125C46.4862 24.216 46.7202 23.6483 47.1145 23.254C47.5089 22.8597 48.044 22.6625 48.72 22.6625ZM52.717 29C53.159 29.0867 53.5057 29.0932 53.757 29.0195C54.0084 28.9458 54.199 28.7942 54.329 28.5645C54.459 28.3348 54.5609 28.0272 54.6345 27.6415C54.7039 27.2992 54.7689 26.8745 54.8295 26.3675C54.8902 25.8605 54.9465 25.308 54.9985 24.71C55.0505 24.112 55.0982 23.5075 55.1415 22.8965H58.0795V29H59.0285V21.98H54.2575C54.1882 23.0937 54.1167 24.0708 54.043 24.9115C53.9737 25.7522 53.8849 26.4888 53.7765 27.1215C53.7115 27.5028 53.6162 27.7888 53.4905 27.9795C53.3692 28.1702 53.1114 28.2308 52.717 28.1615V29ZM60.8511 29H63.5291C63.7327 29 63.9386 28.9957 64.1466 28.987C64.3546 28.974 64.5474 28.948 64.7251 28.909C65.1974 28.805 65.5874 28.5797 65.8951 28.233C66.2071 27.8863 66.3631 27.4118 66.3631 26.8095C66.3631 26.1508 66.1941 25.6568 65.8561 25.3275C65.5181 24.9982 65.0891 24.7858 64.5691 24.6905C64.4131 24.6645 64.2376 24.6472 64.0426 24.6385C63.8476 24.6298 63.6482 24.6255 63.4446 24.6255H61.8001V21.98H60.8381L60.8511 29ZM61.8001 28.181V25.4445H63.4901C63.6331 25.4445 63.7826 25.4488 63.9386 25.4575C64.0946 25.4662 64.2397 25.4857 64.3741 25.516C64.6774 25.581 64.9201 25.7153 65.1021 25.919C65.2841 26.1183 65.3751 26.4152 65.3751 26.8095C65.3751 27.2125 65.2797 27.5115 65.0891 27.7065C64.9027 27.9015 64.6947 28.0315 64.4651 28.0965C64.3221 28.1355 64.1596 28.1593 63.9776 28.168C63.7956 28.1767 63.6331 28.181 63.4901 28.181H61.8001ZM70.7009 29.195C71.3986 29.195 71.9966 29.0325 72.4949 28.7075C72.9976 28.3782 73.3811 27.9015 73.6454 27.2775L72.6834 26.9915C72.3281 27.8495 71.6672 28.2785 70.7009 28.2785C69.9469 28.2785 69.3792 28.025 68.9979 27.518C68.6166 27.0067 68.4216 26.3307 68.4129 25.49C68.4216 24.671 68.6101 24.0015 68.9784 23.4815C69.3511 22.9615 69.9252 22.7015 70.7009 22.7015C71.1602 22.7015 71.5676 22.8185 71.9229 23.0525C72.2826 23.2822 72.5447 23.6072 72.7094 24.0275L73.6454 23.7285C73.4504 23.1262 73.0886 22.6517 72.5599 22.305C72.0356 21.9583 71.4181 21.785 70.7074 21.785C70.0097 21.785 69.4161 21.941 68.9264 22.253C68.4367 22.5607 68.0619 22.994 67.8019 23.553C67.5419 24.1077 67.4076 24.7533 67.3989 25.49C67.4076 26.2093 67.5376 26.8485 67.7889 27.4075C68.0446 27.9665 68.4172 28.4042 68.9069 28.7205C69.3966 29.0368 69.9946 29.195 70.7009 29.195ZM76.7139 29H77.6694V22.864H80.1589V21.98H74.2244V22.864H76.7139V29ZM81.3918 29H84.6613C84.8389 29 85.0274 28.9935 85.2268 28.9805C85.4304 28.9675 85.6189 28.9372 85.7923 28.8895C86.1779 28.7768 86.4856 28.5688 86.7153 28.2655C86.9449 27.9622 87.0598 27.57 87.0598 27.089C87.0598 26.3957 86.8041 25.8952 86.2928 25.5875C86.1368 25.4922 85.9873 25.4315 85.8443 25.4055C86.0046 25.3362 86.1519 25.2278 86.2863 25.0805C86.4249 24.9375 86.5311 24.7685 86.6048 24.5735C86.6828 24.3742 86.7218 24.1488 86.7218 23.8975C86.7218 23.4468 86.6004 23.0633 86.3578 22.747C86.1194 22.4263 85.8031 22.2118 85.4088 22.1035C85.2268 22.0558 85.0296 22.0233 84.8173 22.006C84.6093 21.9887 84.4316 21.98 84.2843 21.98H81.3918V29ZM82.3538 25.0805V22.799H84.1868C84.2344 22.799 84.3471 22.8033 84.5248 22.812C84.7068 22.8207 84.8758 22.8532 85.0318 22.9095C85.2614 22.9832 85.4326 23.1153 85.5453 23.306C85.6623 23.4923 85.7208 23.7068 85.7208 23.9495C85.7208 24.1748 85.6666 24.3828 85.5583 24.5735C85.4543 24.7642 85.2896 24.8985 85.0643 24.9765C84.9559 25.0155 84.8324 25.0437 84.6938 25.061C84.5551 25.074 84.4294 25.0805 84.3168 25.0805H82.3538ZM82.3538 28.1875V25.8995H84.4793C84.5659 25.8995 84.6634 25.9017 84.7718 25.906C84.8844 25.9103 84.9884 25.9233 85.0838 25.945C85.3784 25.9883 85.6168 26.1097 85.7988 26.309C85.9808 26.504 86.0718 26.7553 86.0718 27.063C86.0718 27.297 86.0111 27.5137 85.8898 27.713C85.7728 27.908 85.5864 28.038 85.3308 28.103C85.2224 28.1333 85.0989 28.155 84.9603 28.168C84.8216 28.181 84.7068 28.1875 84.6158 28.1875H82.3538ZM91.2868 29.195C91.9801 29.195 92.5738 29.039 93.0678 28.727C93.5661 28.415 93.9475 27.9817 94.2118 27.427C94.4805 26.868 94.6148 26.2202 94.6148 25.4835C94.6148 24.7598 94.4826 24.1207 94.2183 23.566C93.9583 23.007 93.5791 22.5715 93.0808 22.2595C92.5868 21.9432 91.9888 21.785 91.2868 21.785C90.6021 21.785 90.0106 21.941 89.5123 22.253C89.0183 22.5607 88.637 22.9918 88.3683 23.5465C88.0996 24.1012 87.9653 24.7468 87.9653 25.4835C87.9653 26.2072 88.0953 26.8485 88.3553 27.4075C88.6196 27.9665 88.9988 28.4042 89.4928 28.7205C89.9911 29.0368 90.5891 29.195 91.2868 29.195ZM91.2868 28.2785C90.5285 28.2785 89.9543 28.025 89.5643 27.518C89.1743 27.0067 88.9793 26.3285 88.9793 25.4835C88.9793 24.6645 89.1678 23.9972 89.5448 23.4815C89.9218 22.9615 90.5025 22.7015 91.2868 22.7015C92.0625 22.7015 92.641 22.955 93.0223 23.462C93.408 23.9647 93.6008 24.6385 93.6008 25.4835C93.6008 26.3112 93.4101 26.985 93.0288 27.505C92.6475 28.0207 92.0668 28.2785 91.2868 28.2785ZM102.441 29.195C103.528 29.195 104.417 28.9177 105.106 28.363C105.795 27.804 106.267 27.0565 106.523 26.1205L105.548 25.867C105.348 26.6037 104.991 27.1908 104.475 27.6285C103.96 28.0618 103.281 28.2785 102.441 28.2785C101.708 28.2785 101.095 28.1117 100.601 27.778C100.112 27.44 99.7432 26.9742 99.4962 26.3805C99.2535 25.7868 99.1344 25.1 99.1387 24.32C99.1474 23.54 99.273 22.8532 99.5157 22.2595C99.7584 21.6615 100.122 21.1957 100.608 20.862C101.097 20.5283 101.708 20.3615 102.441 20.3615C103.281 20.3615 103.96 20.5803 104.475 21.018C104.991 21.4513 105.348 22.0363 105.548 22.773L106.523 22.5195C106.267 21.5835 105.795 20.8382 105.106 20.2835C104.417 19.7245 103.528 19.445 102.441 19.445C101.509 19.445 100.723 19.6508 100.081 20.0625C99.4399 20.4742 98.9545 21.0462 98.6252 21.7785C98.2959 22.5108 98.1312 23.358 98.1312 24.32C98.1312 25.2777 98.2959 26.1248 98.6252 26.8615C98.9545 27.5938 99.4399 28.1658 100.081 28.5775C100.723 28.9892 101.509 29.195 102.441 29.195ZM109.965 29.195C111.192 29.195 112.082 28.7422 112.637 27.8365V29H113.488V24.6385C113.488 24.3785 113.475 24.1228 113.449 23.8715C113.423 23.6202 113.367 23.3927 113.28 23.189C113.094 22.734 112.776 22.3873 112.325 22.149C111.879 21.9063 111.335 21.785 110.693 21.785C109.922 21.785 109.294 21.9583 108.808 22.305C108.323 22.6517 107.998 23.1392 107.833 23.7675L108.763 24.0405C108.897 23.5725 109.129 23.2302 109.458 23.0135C109.792 22.7968 110.199 22.6885 110.68 22.6885C111.348 22.6885 111.824 22.8445 112.11 23.1565C112.396 23.4642 112.544 23.9343 112.552 24.567C112.24 24.6103 111.896 24.6558 111.519 24.7035C111.146 24.7512 110.771 24.8053 110.394 24.866C110.017 24.9267 109.671 24.996 109.354 25.074C108.83 25.2127 108.401 25.4445 108.067 25.7695C107.734 26.0902 107.567 26.5387 107.567 27.115C107.567 27.4877 107.656 27.8322 107.833 28.1485C108.011 28.4648 108.278 28.7183 108.633 28.909C108.993 29.0997 109.437 29.195 109.965 29.195ZM110.076 28.3695C109.699 28.3695 109.396 28.3088 109.166 28.1875C108.941 28.0618 108.776 27.9037 108.672 27.713C108.572 27.518 108.522 27.3187 108.522 27.115C108.522 26.7337 108.65 26.4477 108.906 26.257C109.162 26.0663 109.439 25.9277 109.738 25.841C110.124 25.737 110.572 25.6525 111.083 25.5875C111.595 25.5225 112.08 25.4618 112.539 25.4055C112.539 25.5658 112.533 25.75 112.52 25.958C112.511 26.1617 112.487 26.3502 112.448 26.5235C112.357 27.0522 112.106 27.492 111.694 27.843C111.287 28.194 110.748 28.3695 110.076 28.3695ZM115.174 29H116.13V25.945H120.088V29H121.044V21.98H120.088V25.0285H116.13V21.98H115.174V29ZM122.855 29H123.823V25.62L127.268 29H128.659L124.941 25.49L128.23 21.98H126.956L123.823 25.36V21.98H122.861L122.855 29ZM131.215 29H132.17V22.864H134.66V21.98H128.725V22.864H131.215V29ZM135.769 25.3145H139.669V24.4955H135.769V25.3145ZM141.358 29H142.314V20.5565H147.572V29H148.528V19.64H141.358V29ZM153.317 29.195C153.997 29.195 154.606 29.0282 155.144 28.6945C155.685 28.3608 156.095 27.8863 156.372 27.271L155.482 26.9265C155.035 27.8278 154.301 28.2785 153.278 28.2785C152.576 28.2785 152.026 28.0597 151.627 27.622C151.233 27.1843 151.016 26.5625 150.977 25.7565H156.509C156.543 24.5172 156.272 23.5465 155.696 22.8445C155.124 22.1382 154.318 21.785 153.278 21.785C152.602 21.785 152.015 21.9367 151.517 22.24C151.023 22.5433 150.639 22.9745 150.366 23.5335C150.093 24.0925 149.957 24.7555 149.957 25.5225C149.957 26.2635 150.093 26.9092 150.366 27.4595C150.643 28.0098 151.033 28.4367 151.536 28.74C152.043 29.0433 152.637 29.195 153.317 29.195ZM153.304 22.6625C154.626 22.6625 155.36 23.4273 155.508 24.957H150.997C151.07 24.216 151.304 23.6483 151.699 23.254C152.093 22.8597 152.628 22.6625 153.304 22.6625ZM159.767 29H160.722V22.864H163.212V21.98H157.277V22.864H159.767V29ZM167.422 29.195C168.102 29.195 168.711 29.0282 169.248 28.6945C169.79 28.3608 170.199 27.8863 170.477 27.271L169.586 26.9265C169.14 27.8278 168.405 28.2785 167.383 28.2785C166.681 28.2785 166.13 28.0597 165.732 27.622C165.337 27.1843 165.121 26.5625 165.082 25.7565H170.613C170.648 24.5172 170.377 23.5465 169.801 22.8445C169.229 22.1382 168.423 21.785 167.383 21.785C166.707 21.785 166.119 21.9367 165.621 22.24C165.127 22.5433 164.744 22.9745 164.471 23.5335C164.198 24.0925 164.061 24.7555 164.061 25.5225C164.061 26.2635 164.198 26.9092 164.471 27.4595C164.748 28.0098 165.138 28.4367 165.641 28.74C166.148 29.0433 166.741 29.195 167.422 29.195ZM167.409 22.6625C168.73 22.6625 169.465 23.4273 169.612 24.957H165.101C165.175 24.216 165.409 23.6483 165.803 23.254C166.197 22.8597 166.733 22.6625 167.409 22.6625ZM172.049 32.12H173.011V28.1615C173.262 28.4822 173.572 28.7357 173.941 28.922C174.309 29.104 174.731 29.195 175.208 29.195C175.867 29.195 176.428 29.0325 176.892 28.7075C177.355 28.3782 177.708 27.934 177.951 27.375C178.198 26.816 178.322 26.1855 178.322 25.4835C178.322 24.7858 178.198 24.1575 177.951 23.5985C177.708 23.0395 177.357 22.5975 176.898 22.2725C176.439 21.9475 175.888 21.785 175.247 21.785C174.727 21.785 174.27 21.889 173.876 22.097C173.486 22.3007 173.163 22.5845 172.907 22.9485V21.98H172.049V32.12ZM175.111 28.3045C174.612 28.3045 174.201 28.1832 173.876 27.9405C173.551 27.6935 173.308 27.3577 173.148 26.933C172.987 26.5083 172.907 26.0252 172.907 25.4835C172.907 24.6558 173.087 23.982 173.447 23.462C173.811 22.9377 174.359 22.6755 175.091 22.6755C175.594 22.6755 176.008 22.799 176.333 23.046C176.662 23.293 176.907 23.6288 177.067 24.0535C177.227 24.4782 177.308 24.9548 177.308 25.4835C177.308 26.0165 177.225 26.4953 177.061 26.92C176.9 27.3447 176.658 27.6827 176.333 27.934C176.008 28.181 175.6 28.3045 175.111 28.3045ZM182.563 29.2015C183.248 29.2015 183.84 29.0607 184.338 28.779C184.836 28.493 185.22 28.09 185.488 27.57C185.761 27.05 185.898 26.4412 185.898 25.7435C185.898 25.0718 185.774 24.4803 185.527 23.969C185.28 23.4533 184.927 23.0503 184.468 22.76C184.013 22.4697 183.469 22.3245 182.836 22.3245C182.316 22.3245 181.833 22.4307 181.387 22.643C180.945 22.8553 180.59 23.1717 180.321 23.592C180.369 23.0373 180.486 22.5455 180.672 22.1165C180.858 21.6875 181.127 21.3668 181.478 21.1545C181.708 21.0028 181.985 20.8837 182.31 20.797C182.635 20.706 182.973 20.6345 183.324 20.5825C183.679 20.5262 184.019 20.4785 184.344 20.4395C184.674 20.4005 184.958 20.3572 185.196 20.3095L185.092 19.445C184.672 19.5273 184.21 19.5967 183.707 19.653C183.209 19.7093 182.722 19.7917 182.245 19.9C181.768 20.004 181.35 20.1773 180.99 20.42C180.713 20.5977 180.468 20.8273 180.256 21.109C180.048 21.3863 179.888 21.6853 179.775 22.006C179.688 22.253 179.61 22.5737 179.541 22.968C179.476 23.3623 179.428 23.7783 179.398 24.216C179.368 24.6493 179.359 25.0502 179.372 25.4185C179.407 26.6708 179.701 27.6133 180.256 28.246C180.811 28.8743 181.58 29.1928 182.563 29.2015ZM182.635 28.285C181.903 28.285 181.344 28.0618 180.958 27.6155C180.577 27.1648 180.386 26.5473 180.386 25.763C180.386 24.983 180.579 24.3677 180.964 23.917C181.35 23.4663 181.903 23.241 182.622 23.241C183.341 23.241 183.898 23.4663 184.292 23.917C184.691 24.3677 184.89 24.983 184.89 25.763C184.89 26.5257 184.698 27.1367 184.312 27.596C183.931 28.0553 183.372 28.285 182.635 28.285ZM188.075 32.12H189.031L192.801 21.98H191.826L189.7 27.752L187.393 21.98H186.379L189.232 28.9805L188.075 32.12ZM193.923 32.12H194.885V28.1615C195.136 28.4822 195.446 28.7357 195.815 28.922C196.183 29.104 196.605 29.195 197.082 29.195C197.741 29.195 198.302 29.0325 198.766 28.7075C199.229 28.3782 199.582 27.934 199.825 27.375C200.072 26.816 200.196 26.1855 200.196 25.4835C200.196 24.7858 200.072 24.1575 199.825 23.5985C199.582 23.0395 199.231 22.5975 198.772 22.2725C198.313 21.9475 197.762 21.785 197.121 21.785C196.601 21.785 196.144 21.889 195.75 22.097C195.36 22.3007 195.037 22.5845 194.781 22.9485V21.98H193.923V32.12ZM196.985 28.3045C196.486 28.3045 196.075 28.1832 195.75 27.9405C195.425 27.6935 195.182 27.3577 195.022 26.933C194.861 26.5083 194.781 26.0252 194.781 25.4835C194.781 24.6558 194.961 23.982 195.321 23.462C195.685 22.9377 196.233 22.6755 196.965 22.6755C197.468 22.6755 197.882 22.799 198.207 23.046C198.536 23.293 198.781 23.6288 198.941 24.0535C199.101 24.4782 199.182 24.9548 199.182 25.4835C199.182 26.0165 199.099 26.4953 198.935 26.92C198.774 27.3447 198.532 27.6827 198.207 27.934C197.882 28.181 197.474 28.3045 196.985 28.3045ZM201.623 29H202.578V22.8965H206.433V21.98H201.623V29ZM209.42 29.195C210.647 29.195 211.537 28.7422 212.092 27.8365V29H212.943V24.6385C212.943 24.3785 212.93 24.1228 212.904 23.8715C212.878 23.6202 212.822 23.3927 212.735 23.189C212.549 22.734 212.231 22.3873 211.78 22.149C211.334 21.9063 210.79 21.785 210.148 21.785C209.377 21.785 208.749 21.9583 208.263 22.305C207.778 22.6517 207.453 23.1392 207.288 23.7675L208.218 24.0405C208.352 23.5725 208.584 23.2302 208.913 23.0135C209.247 22.7968 209.654 22.6885 210.135 22.6885C210.803 22.6885 211.279 22.8445 211.565 23.1565C211.851 23.4642 211.999 23.9343 212.007 24.567C211.695 24.6103 211.351 24.6558 210.974 24.7035C210.601 24.7512 210.226 24.8053 209.849 24.866C209.472 24.9267 209.126 24.996 208.809 25.074C208.285 25.2127 207.856 25.4445 207.522 25.7695C207.189 26.0902 207.022 26.5387 207.022 27.115C207.022 27.4877 207.111 27.8322 207.288 28.1485C207.466 28.4648 207.733 28.7183 208.088 28.909C208.448 29.0997 208.892 29.195 209.42 29.195ZM209.531 28.3695C209.154 28.3695 208.851 28.3088 208.621 28.1875C208.396 28.0618 208.231 27.9037 208.127 27.713C208.027 27.518 207.977 27.3187 207.977 27.115C207.977 26.7337 208.105 26.4477 208.361 26.257C208.617 26.0663 208.894 25.9277 209.193 25.841C209.579 25.737 210.027 25.6525 210.538 25.5875C211.05 25.5225 211.535 25.4618 211.994 25.4055C211.994 25.5658 211.988 25.75 211.975 25.958C211.966 26.1617 211.942 26.3502 211.903 26.5235C211.812 27.0522 211.561 27.492 211.149 27.843C210.742 28.194 210.203 28.3695 209.531 28.3695Z" fill="black"/>
</svg>
