<svg width="555" height="550" viewBox="0 0 555 550" fill="none" xmlns="http://www.w3.org/2000/svg">
<path d="M55.31 117.103H28.828C23.959 117.117 20.015 121.061 20 125.931V487.862C20.014 492.731 23.958 496.675 28.828 496.69H226.125C233.577 517.847 253.568 532 276 532C298.432 532 318.423 517.847 325.876 496.69H523.173C528.042 496.676 531.986 492.732 532.001 487.862V125.931C531.987 121.062 528.043 117.118 523.173 117.103H55.31Z" fill="#7F5B53"/>
<path d="M276 64.1379V426.069C275.977 396.826 252.277 373.126 223.034 373.103H64.1381C59.2691 373.117 55.3251 377.061 55.3101 381.931V72.9659C55.3241 68.0969 59.2681 64.1529 64.1381 64.1379H276V64.1379Z" fill="#FDD7AD"/>
<path d="M496.69 72.9659V381.932C496.676 377.063 492.732 373.119 487.862 373.104H328.966C299.723 373.127 276.023 396.827 276 426.07V64.1379H487.862C492.732 64.1519 496.676 68.0959 496.69 72.9659Z" fill="#FDD7AD"/>
<path d="M276 426.069V461.379H64.1381C59.2691 461.365 55.3251 457.421 55.3101 452.551V381.93C55.3241 377.061 59.2681 373.117 64.1381 373.102H223.035C252.277 373.126 275.977 396.826 276 426.069Z" fill="#CBB292"/>
<path d="M496.69 381.931V452.552C496.676 457.421 492.732 461.365 487.862 461.38H276V426.07C276.023 396.827 299.723 373.127 328.966 373.104H487.863C492.732 373.118 496.676 377.062 496.69 381.931Z" fill="#CBB292"/>
<path d="M276 214.206C329.628 214.206 373.103 170.732 373.103 117.103C373.103 63.4745 329.628 20 276 20C222.371 20 178.897 63.4745 178.897 117.103C178.897 170.732 222.371 214.206 276 214.206Z" fill="#4482C3"/>
<path d="M276 178.897C273.659 178.898 271.413 177.968 269.757 176.312C268.101 174.656 267.172 172.411 267.172 170.069V99.448C267.172 94.573 271.124 90.62 276 90.62C280.876 90.62 284.828 94.572 284.828 99.448V170.069C284.829 172.41 283.899 174.656 282.243 176.312C280.587 177.967 278.341 178.897 276 178.897Z" fill="white"/>
<path d="M231.862 417.241C231.848 422.111 227.904 426.054 223.034 426.069H55.3101V408.414H223.034C227.904 408.428 231.848 412.372 231.862 417.241Z" fill="#7F6E5D"/>
<path d="M496.69 408.414V426.069H328.966C324.091 426.069 320.138 422.117 320.138 417.241C320.138 412.366 324.09 408.413 328.966 408.413H496.69V408.414Z" fill="#7F6E5D"/>
<path d="M461.379 231.862H373.103C368.228 231.862 364.275 227.91 364.275 223.034C364.275 218.158 368.227 214.206 373.103 214.206H461.379C466.254 214.206 470.207 218.158 470.207 223.034C470.207 227.91 466.255 231.862 461.379 231.862Z" fill="#5E5F62"/>
<path d="M461.379 276H337.793C332.918 276 328.965 272.048 328.965 267.172C328.965 262.296 332.917 258.344 337.793 258.344H461.379C466.254 258.344 470.207 262.296 470.207 267.172C470.207 272.048 466.255 276 461.379 276Z" fill="#5E5F62"/>
<path d="M461.379 320.138H337.793C332.918 320.138 328.965 316.186 328.965 311.31C328.965 306.434 332.917 302.482 337.793 302.482H461.379C466.254 302.482 470.207 306.434 470.207 311.31C470.207 316.186 466.255 320.138 461.379 320.138Z" fill="#5E5F62"/>
<path d="M178.897 231.862H90.621C85.746 231.862 81.793 227.91 81.793 223.034C81.793 218.158 85.745 214.206 90.621 214.206H178.897C183.772 214.206 187.725 218.158 187.725 223.034C187.725 227.91 183.772 231.862 178.897 231.862Z" fill="#5E5F62"/>
<path d="M214.207 276H90.621C85.746 276 81.793 272.048 81.793 267.172C81.793 262.296 85.745 258.344 90.621 258.344H214.207C219.082 258.344 223.035 262.296 223.035 267.172C223.035 272.048 219.082 276 214.207 276Z" fill="#5E5F62"/>
<path d="M214.207 320.138H90.621C85.746 320.138 81.793 316.186 81.793 311.31C81.793 306.434 85.745 302.482 90.621 302.482H214.207C219.082 302.482 223.035 306.434 223.035 311.31C223.035 316.186 219.082 320.138 214.207 320.138Z" fill="#5E5F62"/>
<path d="M276 72.9661C273.659 72.9671 271.413 72.0371 269.757 70.3811C268.101 68.7251 267.172 66.4801 267.172 64.1381V55.3101C267.172 50.4351 271.124 46.4821 276 46.4821C280.876 46.4821 284.828 50.4341 284.828 55.3101V64.1381C284.829 66.4791 283.899 68.7251 282.243 70.3811C280.587 72.0361 278.341 72.9661 276 72.9661Z" fill="white"/>
</svg>
