<svg width="656" height="727" viewBox="0 0 656 727" fill="none" xmlns="http://www.w3.org/2000/svg">
<path d="M296 543L160 711H640L504 543" fill="#606160"/>
<path d="M328 543L208 711H160L296 543H328Z" fill="#9D9E9D"/>
<path d="M640 711H592L472 543H504L640 711Z" fill="#9D9E9D"/>
<path d="M471.992 542.992L472 279H312V543" fill="#747574"/>
<path d="M328 367C328 406.665 342.732 444.916 369.34 474.333C395.948 503.749 432.534 522.234 472 526.2V279H328V367Z" fill="#9D9E9D"/>
<path d="M560 543V367H472V543" fill="#F8D859"/>
<path d="M488 367V439C488.012 459.554 495.219 479.456 508.371 495.252C521.522 511.049 539.788 521.743 560 525.48V367C560 367 513.368 367 488 367V367Z" fill="#FCE85F"/>
<path d="M560 543V255H576V231H624V255H640V543" fill="#3377CC"/>
<path d="M640 517.4V255H624V231H576V439C575.996 457.442 582.365 475.32 594.027 489.606C605.69 503.893 621.93 513.712 640 517.4V517.4Z" fill="#3E88DE"/>
<path d="M256 543V375H384V543" fill="#1B489C"/>
<path d="M272 399C272.012 430.163 283.398 460.25 304.019 483.614C324.64 506.978 353.08 522.013 384 525.896V375H272V399Z" fill="#2B66B9"/>
<path d="M184 487H200V543H184V487Z" fill="#574138"/>
<path d="M160 487H224L192 391L160 487Z" fill="#447B3B"/>
<path d="M560 287H600V319H560" fill="#BCBDBC"/>
<path d="M640 351H600V383H640" fill="#F4F5F4"/>
<path d="M560 415H600V447H560" fill="#BCBDBC"/>
<path d="M640 479H600V511H640" fill="#BCBDBC"/>
<path d="M488 391H512V407H488V391Z" fill="#F4F5F4"/>
<path d="M528 391H544V407H528V391Z" fill="#F4F5F4"/>
<path d="M520 423H544V439H520V423Z" fill="#F4F5F4"/>
<path d="M488 423H504V439H488V423Z" fill="#F4F5F4"/>
<path d="M488 455H512V471H488V455Z" fill="#DFE0DF"/>
<path d="M528 455H544V471H528V455Z" fill="#F4F5F4"/>
<path d="M520 487H544V503H520V487Z" fill="#F4F5F4"/>
<path d="M488 487H504V503H488V487Z" fill="#DFE0DF"/>
<path d="M344 311H376V343H344V311Z" fill="#F4F5F4"/>
<path d="M408 311H440V343H408V311Z" fill="#F4F5F4"/>
<path d="M408 375H440V407H408V375Z" fill="#F4F5F4"/>
<path d="M408 439H440V471H408V439Z" fill="#F4F5F4"/>
<path d="M296 543V503C296 496.635 298.529 490.53 303.029 486.029C307.53 481.529 313.635 479 320 479C326.365 479 332.47 481.529 336.971 486.029C341.471 490.53 344 496.635 344 503V543" fill="#BCBDBC"/>
<path d="M256 407H384V447H256V407Z" fill="#BCBDBC"/>
<path d="M408 703H392V671H408V703ZM408 639H392V607H408V639ZM408 575H392V543H408V575Z" fill="#F8D859"/>
<path d="M152 535H648V551H152V535Z" fill="#414241"/>
<path d="M320 479C314.467 479.022 309.115 480.971 304.864 484.512C315.905 496.721 329.192 506.692 344 513.88V503C344 496.635 341.471 490.53 336.971 486.029C332.47 481.529 326.365 479 320 479Z" fill="#EDEEED"/>
<path d="M281.392 447H384V407H272.376C273.198 420.733 276.243 434.242 281.392 447V447Z" fill="#DFE0DF"/>
<path d="M494.064 471H512V455H489.464C490.479 460.469 492.02 465.827 494.064 471V471Z" fill="#F4F5F4"/>
<path d="M504 489.56V487H502.352C502.904 487.848 503.416 488.728 504 489.56Z" fill="#F4F5F4"/>
<path d="M600 415H576V439C576 441.704 576.168 444.368 576.424 447H600V415Z" fill="#F4F5F4"/>
<path d="M600 496.056C606.197 502.151 613.343 507.198 621.16 511H640V479H600V496.056Z" fill="#F4F5F4"/>
<path d="M576 287H600V319H576V287Z" fill="#F4F5F4"/>
<path d="M197.336 407L188.376 433.88C186.963 438.119 186.577 442.633 187.25 447.051C187.924 451.468 189.638 455.663 192.25 459.288C194.863 462.913 198.3 465.865 202.277 467.902C206.255 469.938 210.659 471 215.128 471H218.664L197.336 407Z" fill="#508C45"/>
<path d="M320 408.333H40V48.3333H226.667L320 141.667V408.333Z" fill="#FCF05A"/>
<path d="M360 368.333H80V21.6667H266.667L360 115V368.333Z" fill="#FDBD40"/>
<path d="M266.667 115H360L266.667 21.6667V115Z" fill="#F49E21"/>
<path d="M133.333 315H120C116.318 315 113.333 312.015 113.333 308.333C113.333 304.652 116.318 301.667 120 301.667H133.333C137.015 301.667 140 304.652 140 308.333C140 312.015 137.015 315 133.333 315Z" fill="#E9686A"/>
<path d="M320 315H160C156.318 315 153.333 312.015 153.333 308.333C153.333 304.652 156.318 301.667 160 301.667H320C323.682 301.667 326.667 304.652 326.667 308.333C326.667 312.015 323.682 315 320 315Z" fill="#E9686A"/>
<path d="M133.333 275H120C116.318 275 113.333 272.015 113.333 268.333C113.333 264.652 116.318 261.667 120 261.667H133.333C137.015 261.667 140 264.652 140 268.333C140 272.015 137.015 275 133.333 275Z" fill="#E9686A"/>
<path d="M320 275H160C156.318 275 153.333 272.015 153.333 268.333C153.333 264.652 156.318 261.667 160 261.667H320C323.682 261.667 326.667 264.652 326.667 268.333C326.667 272.015 323.682 275 320 275Z" fill="#E9686A"/>
<path d="M133.333 235H120C116.318 235 113.333 232.015 113.333 228.333C113.333 224.652 116.318 221.667 120 221.667H133.333C137.015 221.667 140 224.652 140 228.333C140 232.015 137.015 235 133.333 235Z" fill="#E9686A"/>
<path d="M320 235H160C156.318 235 153.333 232.015 153.333 228.333C153.333 224.652 156.318 221.667 160 221.667H320C323.682 221.667 326.667 224.652 326.667 228.333C326.667 232.015 323.682 235 320 235Z" fill="#E9686A"/>
<path d="M133.333 195H120C116.318 195 113.333 192.015 113.333 188.333C113.333 184.652 116.318 181.667 120 181.667H133.333C137.015 181.667 140 184.652 140 188.333C140 192.015 137.015 195 133.333 195Z" fill="#E9686A"/>
<path d="M320 195H160C156.318 195 153.333 192.015 153.333 188.333C153.333 184.652 156.318 181.667 160 181.667H320C323.682 181.667 326.667 184.652 326.667 188.333C326.667 192.015 323.682 195 320 195Z" fill="#E9686A"/>
<path d="M133.333 155H120C116.318 155 113.333 152.015 113.333 148.333C113.333 144.652 116.318 141.667 120 141.667H133.333C137.015 141.667 140 144.652 140 148.333C140 152.015 137.015 155 133.333 155Z" fill="#E9686A"/>
<path d="M320 155H160C156.318 155 153.333 152.015 153.333 148.333C153.333 144.652 156.318 141.667 160 141.667H320C323.682 141.667 326.667 144.652 326.667 148.333C326.667 152.015 323.682 155 320 155Z" fill="#E9686A"/>
<path d="M120 81.6667H160V121.667H120V81.6667Z" fill="#E9686A"/>
<path d="M120 315H133.333C137.015 315 140 312.015 140 308.333C140 304.652 137.015 301.667 133.333 301.667H120C116.318 301.667 113.333 304.652 113.333 308.333C113.333 312.015 116.318 315 120 315Z" fill="black"/>
<path d="M320 301.667H160C156.318 301.667 153.333 304.652 153.333 308.333C153.333 312.015 156.318 315 160 315H320C323.682 315 326.667 312.015 326.667 308.333C326.667 304.652 323.682 301.667 320 301.667Z" fill="black"/>
<path d="M120 275H133.333C137.015 275 140 272.015 140 268.333C140 264.652 137.015 261.667 133.333 261.667H120C116.318 261.667 113.333 264.652 113.333 268.333C113.333 272.015 116.318 275 120 275Z" fill="black"/>
<path d="M320 261.667H160C156.318 261.667 153.333 264.652 153.333 268.333C153.333 272.015 156.318 275 160 275H320C323.682 275 326.667 272.015 326.667 268.333C326.667 264.652 323.682 261.667 320 261.667Z" fill="black"/>
<path d="M120 235H133.333C137.015 235 140 232.015 140 228.333C140 224.652 137.015 221.667 133.333 221.667H120C116.318 221.667 113.333 224.652 113.333 228.333C113.333 232.015 116.318 235 120 235Z" fill="black"/>
<path d="M320 221.667H160C156.318 221.667 153.333 224.652 153.333 228.333C153.333 232.015 156.318 235 160 235H320C323.682 235 326.667 232.015 326.667 228.333C326.667 224.652 323.682 221.667 320 221.667Z" fill="black"/>
<path d="M120 195H133.333C137.015 195 140 192.015 140 188.333C140 184.652 137.015 181.667 133.333 181.667H120C116.318 181.667 113.333 184.652 113.333 188.333C113.333 192.015 116.318 195 120 195Z" fill="black"/>
<path d="M320 181.667H160C156.318 181.667 153.333 184.652 153.333 188.333C153.333 192.015 156.318 195 160 195H320C323.682 195 326.667 192.015 326.667 188.333C326.667 184.652 323.682 181.667 320 181.667Z" fill="black"/>
<path d="M120 155H133.333C137.015 155 140 152.015 140 148.333C140 144.652 137.015 141.667 133.333 141.667H120C116.318 141.667 113.333 144.652 113.333 148.333C113.333 152.015 116.318 155 120 155Z" fill="black"/>
<path d="M153.333 148.333C153.333 152.015 156.318 155 160 155H320C323.682 155 326.667 152.015 326.667 148.333C326.667 144.652 323.682 141.667 320 141.667H160C156.318 141.667 153.333 144.652 153.333 148.333Z" fill="black"/>
<path d="M40 415H320C323.682 415 326.667 412.015 326.667 408.333V375H360C363.682 375 366.667 372.015 366.667 368.333V115C366.667 114.853 366.593 114.727 366.58 114.58C366.547 113.996 366.433 113.419 366.24 112.867C366.167 112.653 366.113 112.447 366.02 112.24C365.696 111.515 365.244 110.853 364.687 110.287L271.353 16.9533C270.787 16.3958 270.125 15.9442 269.4 15.62C269.193 15.5267 268.987 15.4733 268.78 15.4C268.222 15.2083 267.642 15.0917 267.053 15.0533C266.94 15.0733 266.813 15 266.667 15H80C76.3183 15 73.3333 17.985 73.3333 21.6667V41.6667H40C36.3183 41.6667 33.3333 44.6517 33.3333 48.3333V408.333C33.3333 412.015 36.3183 415 40 415ZM343.907 108.333H273.333V37.76L343.907 108.333ZM86.6666 28.3333H260V115C260 118.682 262.985 121.667 266.667 121.667H353.333V361.667H86.6666V28.3333ZM46.6666 55H73.3333V368.333C73.3333 372.015 76.3183 375 80 375H313.333V401.667H46.6666V55Z" fill="black"/>
<path d="M120 128.333H160C163.682 128.333 166.667 125.348 166.667 121.667V81.6667C166.667 77.985 163.682 75 160 75H120C116.318 75 113.333 77.985 113.333 81.6667V121.667C113.333 125.348 116.318 128.333 120 128.333ZM126.667 88.3333H153.333V115H126.667V88.3333Z" fill="black"/>
</svg>
