<svg id="Layer_1" enable-background="new 0 0 256 256" height="512" viewBox="0 0 256 256" width="512" xmlns="http://www.w3.org/2000/svg"><path d="m185.769 232.483h-154.203c-7.627 0-13.809-6.183-13.809-13.809v-196.781c0-7.627 6.183-13.809 13.809-13.809h154.203c7.627 0 13.809 6.183 13.809 13.809v196.781c0 7.626-6.182 13.809-13.809 13.809z" fill="#a4c9ff"/><path d="m185.769 234.483h-154.203c-8.717 0-15.809-7.092-15.809-15.809v-196.781c0-8.717 7.092-15.809 15.809-15.809h154.203c8.717 0 15.809 7.092 15.809 15.809v196.781c0 8.717-7.092 15.809-15.809 15.809zm-154.203-224.4c-6.512 0-11.809 5.297-11.809 11.809v196.781c0 6.512 5.297 11.809 11.809 11.809h154.203c6.512 0 11.809-5.297 11.809-11.809v-196.78c0-6.512-5.297-11.809-11.809-11.809h-154.203z" fill="#3762cc"/><path d="m202.939 247.917h-154.203c-7.627 0-13.809-6.183-13.809-13.809v-196.782c0-7.627 6.183-13.809 13.809-13.809h154.203c7.627 0 13.809 6.183 13.809 13.809v196.781c0 7.627-6.182 13.81-13.809 13.81z" fill="#e0ebfc"/><path d="m202.939 249.917h-154.203c-8.717 0-15.81-7.092-15.81-15.809v-196.782c0-8.717 7.092-15.809 15.81-15.809h154.203c8.717 0 15.809 7.092 15.809 15.809v196.781c0 8.718-7.092 15.81-15.809 15.81zm-154.203-224.4c-6.512 0-11.81 5.297-11.81 11.809v196.781c0 6.512 5.298 11.809 11.81 11.809h154.203c6.512 0 11.809-5.297 11.809-11.809v-196.781c0-6.512-5.297-11.809-11.809-11.809z" fill="#3762cc"/><path d="m92.465 228.957h-25.317c-1.907 0-3.452-1.546-3.452-3.452v-104.72c0-1.907 1.546-3.452 3.452-3.452h25.317c1.907 0 3.452 1.546 3.452 3.452v104.72c.001 1.906-1.545 3.452-3.452 3.452z" fill="#f9a7a7"/><path d="m138.496 228.957h-25.317c-1.907 0-3.452-1.546-3.452-3.452v-71.923c0-1.907 1.546-3.452 3.452-3.452h25.317c1.907 0 3.452 1.546 3.452 3.452v71.923c0 1.906-1.545 3.452-3.452 3.452z" fill="#6bdddd"/><path d="m184.527 228.957h-25.317c-1.907 0-3.452-1.546-3.452-3.452v-32.509c0-1.907 1.546-3.452 3.452-3.452h25.317c1.907 0 3.452 1.546 3.452 3.452v32.509c0 1.906-1.546 3.452-3.452 3.452z" fill="#4671c6"/><g fill="#b9befc"><path d="m187.979 55.479h-124.283c-2.485 0-4.5-2.015-4.5-4.5s2.015-4.5 4.5-4.5h124.283c2.485 0 4.5 2.015 4.5 4.5s-2.014 4.5-4.5 4.5z"/><path d="m187.979 76.495h-124.283c-2.485 0-4.5-2.015-4.5-4.5s2.015-4.5 4.5-4.5h124.283c2.485 0 4.5 2.015 4.5 4.5s-2.014 4.5-4.5 4.5z"/><path d="m141.948 97.51h-78.252c-2.485 0-4.5-2.015-4.5-4.5s2.015-4.5 4.5-4.5h78.252c2.485 0 4.5 2.015 4.5 4.5s-2.014 4.5-4.5 4.5z"/></g><path d="m175.868 172.54c0-2.209-1.791-4-4-4s-4 1.791-4 4v8.782l-85.593-67.136c-1.739-1.363-4.252-1.059-5.616.679-1.363 1.738-1.06 4.252.679 5.616l82.949 65.063h-4.529c-2.209 0-4 1.791-4 4s1.791 4 4 4h16.11c.249 0 .491-.029.729-.073.078-.014.152-.036.229-.055.159-.039.315-.087.467-.145.079-.03.157-.061.233-.096.155-.071.303-.153.447-.243.055-.034.114-.064.167-.101.192-.133.372-.28.539-.444.031-.031.056-.066.086-.098.131-.138.252-.283.363-.44.047-.066.087-.134.129-.203.082-.133.157-.27.224-.413.038-.081.074-.161.106-.244.019-.048.044-.091.061-.14.039-.114.061-.229.089-.345.017-.069.04-.135.053-.205.047-.242.071-.484.073-.726 0-.01.003-.02.003-.03v-17.003z" fill="#ffea92"/><circle cx="198.669" cy="128" fill="#6bdddd" r="39.574"/><path d="m198.669 157.449c-16.238 0-29.449-13.211-29.449-29.449s13.21-29.449 29.449-29.449 29.449 13.211 29.449 29.449-13.211 29.449-29.449 29.449z" fill="#ffea92"/><path d="m198.669 169.574c-22.924 0-41.574-18.65-41.574-41.574s18.65-41.574 41.574-41.574 41.574 18.65 41.574 41.574-18.65 41.574-41.574 41.574zm0-79.148c-20.718 0-37.574 16.855-37.574 37.574s16.855 37.574 37.574 37.574 37.574-16.855 37.574-37.574-16.856-37.574-37.574-37.574z" fill="#3762cc"/><path d="m210.824 149.272h-24.309c-1.898 0-3.436-1.538-3.436-3.436v-20.372c0-1.898 1.538-3.436 3.436-3.436h24.309c1.898 0 3.436 1.538 3.436 3.436v20.372c-.001 1.898-1.539 3.436-3.436 3.436z" fill="#a4c9ff"/><path d="m202.606 131.749c0-2.174-1.763-3.937-3.937-3.937s-3.937 1.763-3.937 3.937c0 1.382.713 2.595 1.79 3.297v6.295c0 1.186.961 2.147 2.147 2.147s2.147-.961 2.147-2.147v-6.295c1.077-.702 1.79-1.915 1.79-3.297z" fill="#4671c6"/><path d="m189.126 116.792c1.318 0 2.386-1.068 2.386-2.386 0-3.389 2.332-6.146 5.198-6.146h3.919c2.866 0 5.198 2.757 5.198 6.146v7.623h4.772v-7.623c0-6.02-4.472-10.918-9.97-10.918h-3.919c-5.497 0-9.97 4.898-9.97 10.918 0 1.317 1.068 2.386 2.386 2.386z" fill="#4671c6"/></svg>