<svg width="694" height="707" viewBox="0 0 694 707" fill="none" xmlns="http://www.w3.org/2000/svg">
<path d="M58 514.09C55.8783 514.09 53.8434 513.252 52.3431 511.76C50.8429 510.268 50 508.245 50 506.135V474.315C50 472.205 50.8429 470.182 52.3431 468.69C53.8434 467.198 55.8783 466.36 58 466.36C60.1217 466.36 62.1566 467.198 63.6569 468.69C65.1571 470.182 66 472.205 66 474.315V506.135C66 508.245 65.1571 510.268 63.6569 511.76C62.1566 513.252 60.1217 514.09 58 514.09Z" fill="#C79E10"/>
<path d="M186 514.09C183.878 514.09 181.843 513.252 180.343 511.76C178.843 510.268 178 508.245 178 506.135V474.315C178 472.205 178.843 470.182 180.343 468.69C181.843 467.198 183.878 466.36 186 466.36C188.122 466.36 190.157 467.198 191.657 468.69C193.157 470.182 194 472.205 194 474.315V506.135C194 508.245 193.157 510.268 191.657 511.76C190.157 513.252 188.122 514.09 186 514.09Z" fill="#C79E10"/>
<path d="M414.286 190.179C419.646 183.294 423.306 175.255 424.974 166.708C426.643 158.161 426.271 149.344 423.891 140.966C421.51 132.587 417.186 124.881 411.267 118.466C405.347 112.05 397.997 107.105 389.807 104.027C393.081 96.759 394.473 88.7918 393.858 80.8515C393.243 72.9111 390.64 65.25 386.285 58.5662C381.93 51.8824 375.963 46.3882 368.927 42.5843C361.891 38.7804 354.009 36.7877 346 36.7877C337.991 36.7877 330.109 38.7804 323.073 42.5843C316.037 46.3882 310.07 51.8824 305.715 58.5662C301.36 65.25 298.757 72.9111 298.142 80.8515C297.527 88.7918 298.919 96.759 302.193 104.027C294.003 107.105 286.653 112.05 280.733 118.466C274.814 124.881 270.49 132.587 268.109 140.966C265.729 149.344 265.357 158.161 267.026 166.708C268.694 175.255 272.354 183.294 277.714 190.179C268.244 192.832 259.576 197.761 252.473 204.53C245.369 211.299 240.049 219.701 236.981 228.997C233.912 238.292 233.189 248.195 234.876 257.834C236.563 267.472 240.608 276.55 246.654 284.268C252.7 291.986 260.562 298.107 269.547 302.092C278.533 306.078 288.366 307.804 298.181 307.121C307.995 306.437 317.49 303.364 325.829 298.172C334.168 292.98 341.095 285.829 346 277.348C350.905 285.829 357.832 292.98 366.171 298.172C374.51 303.364 384.005 306.437 393.819 307.121C403.634 307.804 413.467 306.078 422.453 302.092C431.438 298.107 439.3 291.986 445.346 284.268C451.392 276.55 455.437 267.472 457.124 257.834C458.811 248.195 458.088 238.292 455.019 228.997C451.951 219.701 446.631 211.299 439.527 204.53C432.424 197.761 423.756 192.832 414.286 190.179Z" fill="#38B37A"/>
<path d="M222.286 190.179C227.646 183.294 231.306 175.255 232.974 166.708C234.643 158.161 234.271 149.344 231.891 140.966C229.51 132.587 225.186 124.881 219.267 118.466C213.347 112.05 205.997 107.105 197.807 104.027C201.081 96.759 202.473 88.7918 201.858 80.8515C201.243 72.9111 198.64 65.25 194.285 58.5662C189.93 51.8824 183.963 46.3882 176.927 42.5843C169.891 38.7804 162.009 36.7877 154 36.7877C145.991 36.7877 138.109 38.7804 131.073 42.5843C124.037 46.3882 118.07 51.8824 113.715 58.5662C109.36 65.25 106.757 72.9111 106.142 80.8515C105.527 88.7918 106.919 96.759 110.193 104.027C102.003 107.105 94.6526 112.05 88.7331 118.466C82.8137 124.881 78.49 132.587 76.1093 140.966C73.7287 149.344 73.3575 158.161 75.0256 166.708C76.6937 175.255 80.3545 183.294 85.714 190.179C76.2441 192.832 67.5758 197.761 60.4725 204.53C53.3693 211.299 48.0491 219.701 44.9806 228.997C41.9121 238.292 41.1895 248.195 42.8763 257.834C44.5632 267.472 48.6078 276.55 54.6539 284.268C60.6999 291.986 68.562 298.107 77.5474 302.092C86.5328 306.078 96.3659 307.804 106.181 307.121C115.995 306.437 125.49 303.364 133.829 298.172C142.168 292.98 149.095 285.829 154 277.348C158.905 285.829 165.832 292.98 174.171 298.172C182.51 303.364 192.005 306.437 201.819 307.121C211.634 307.804 221.467 306.078 230.453 302.092C239.438 298.107 247.3 291.986 253.346 284.268C259.392 276.55 263.437 267.472 265.124 257.834C266.811 248.195 266.088 238.292 263.019 228.997C259.951 219.701 254.631 211.299 247.527 204.53C240.424 197.761 231.756 192.832 222.286 190.179V190.179Z" fill="#3DC285"/>
<path d="M346 506.135C343.878 506.135 341.843 505.297 340.343 503.805C338.843 502.313 338 500.29 338 498.18V148.161C338 146.052 338.843 144.028 340.343 142.536C341.843 141.044 343.878 140.206 346 140.206C348.122 140.206 350.157 141.044 351.657 142.536C353.157 144.028 354 146.052 354 148.161V498.18C354 500.29 353.157 502.313 351.657 503.805C350.157 505.297 348.122 506.135 346 506.135Z" fill="#AD6643"/>
<path d="M346 203.846C344.418 203.846 342.871 203.38 341.555 202.506C340.24 201.631 339.214 200.389 338.609 198.935C338.003 197.482 337.845 195.882 338.153 194.339C338.462 192.796 339.224 191.379 340.343 190.266L372.343 158.446C373.843 156.954 375.878 156.116 378 156.116C380.122 156.116 382.157 156.954 383.657 158.446C385.157 159.938 386 161.961 386 164.071C386 166.181 385.157 168.205 383.657 169.696L351.657 201.516C350.915 202.256 350.033 202.843 349.062 203.243C348.091 203.642 347.051 203.847 346 203.846V203.846Z" fill="#AD6643"/>
<path d="M346 259.531C344.949 259.532 343.909 259.327 342.938 258.927C341.967 258.528 341.085 257.941 340.343 257.201L308.343 225.381C306.843 223.889 306 221.866 306 219.756C306 217.646 306.843 215.623 308.343 214.131C309.843 212.639 311.878 211.801 314 211.801C316.122 211.801 318.157 212.639 319.657 214.131L351.657 245.951C352.776 247.063 353.538 248.481 353.847 250.024C354.155 251.567 353.997 253.167 353.391 254.62C352.786 256.074 351.76 257.316 350.445 258.19C349.129 259.065 347.582 259.531 346 259.531V259.531Z" fill="#AD6643"/>
<path d="M154 506.135C151.878 506.135 149.843 505.297 148.343 503.805C146.843 502.313 146 500.29 146 498.18V148.161C146 146.052 146.843 144.028 148.343 142.536C149.843 141.044 151.878 140.206 154 140.206C156.122 140.206 158.157 141.044 159.657 142.536C161.157 144.028 162 146.052 162 148.161V498.18C162 500.29 161.157 502.313 159.657 503.805C158.157 505.297 156.122 506.135 154 506.135Z" fill="#AD6643"/>
<path d="M154 203.846C152.418 203.846 150.871 203.38 149.555 202.506C148.24 201.631 147.214 200.389 146.609 198.935C146.003 197.482 145.845 195.882 146.153 194.339C146.462 192.796 147.224 191.379 148.343 190.266L180.343 158.446C181.843 156.954 183.878 156.116 186 156.116C188.122 156.116 190.157 156.954 191.657 158.446C193.157 159.938 194 161.961 194 164.071C194 166.181 193.157 168.205 191.657 169.696L159.657 201.516C158.915 202.256 158.033 202.843 157.062 203.243C156.091 203.642 155.051 203.847 154 203.846V203.846Z" fill="#AD6643"/>
<path d="M58 410.675H186V442.495H58V410.675Z" fill="#F7CC38"/>
<path d="M202 482.27H42C39.8783 482.27 37.8434 481.432 36.3431 479.94C34.8429 478.448 34 476.425 34 474.315C34 472.205 34.8429 470.182 36.3431 468.69C37.8434 467.198 39.8783 466.36 42 466.36H202C204.122 466.36 206.157 467.198 207.657 468.69C209.157 470.182 210 472.205 210 474.315C210 476.425 209.157 478.448 207.657 479.94C206.157 481.432 204.122 482.27 202 482.27Z" fill="#D4A811"/>
<path d="M234 458.405H266V506.135H234V458.405Z" fill="#9AA3A8"/>
<path d="M482 506.135C488.365 506.135 494.47 503.621 498.971 499.145C503.471 494.67 506 488.6 506 482.27C506 475.941 503.471 469.871 498.971 465.395C494.47 460.92 488.365 458.405 482 458.405C481.48 458.405 481 458.525 480.483 458.557C482.34 453.549 482.447 448.065 480.786 442.99C479.126 437.914 475.794 433.542 471.329 430.58C466.864 427.617 461.526 426.236 456.175 426.66C450.824 427.084 445.772 429.287 441.835 432.915C441.561 428.453 440.022 424.16 437.398 420.531C434.773 416.902 431.169 414.086 427.003 412.408C422.837 410.73 418.278 410.258 413.853 411.048C409.429 411.837 405.32 413.856 402 416.869C398.68 413.856 394.571 411.837 390.147 411.048C385.722 410.258 381.163 410.73 376.997 412.408C372.831 414.086 369.227 416.902 366.602 420.531C363.978 424.16 362.439 428.453 362.165 432.915C358.236 429.256 353.178 427.026 347.814 426.587C342.449 426.148 337.093 427.526 332.615 430.497C328.138 433.468 324.802 437.857 323.15 442.951C321.499 448.045 321.628 453.545 323.517 458.557C323.005 458.525 322.517 458.405 322 458.405C315.635 458.405 309.53 460.92 305.029 465.395C300.529 469.871 298 475.941 298 482.27C298 488.6 300.529 494.67 305.029 499.145C309.53 503.621 315.635 506.135 322 506.135H482Z" fill="#2E9163"/>
<path d="M402 458.405C406.418 458.405 410 454.844 410 450.45C410 446.057 406.418 442.495 402 442.495C397.582 442.495 394 446.057 394 450.45C394 454.844 397.582 458.405 402 458.405Z" fill="#E38FA7"/>
<path d="M450 474.315C454.418 474.315 458 470.754 458 466.36C458 461.967 454.418 458.405 450 458.405C445.582 458.405 442 461.967 442 466.36C442 470.754 445.582 474.315 450 474.315Z" fill="#E38FA7"/>
<path d="M354 482.27C358.418 482.27 362 478.709 362 474.315C362 469.922 358.418 466.36 354 466.36C349.582 466.36 346 469.922 346 474.315C346 478.709 349.582 482.27 354 482.27Z" fill="#E38FA7"/>
<path d="M154 259.531C152.949 259.532 151.909 259.327 150.938 258.927C149.967 258.528 149.085 257.941 148.343 257.201L116.343 225.381C114.843 223.889 114 221.866 114 219.756C114 217.646 114.843 215.623 116.343 214.131C117.843 212.639 119.878 211.801 122 211.801C124.122 211.801 126.157 212.639 127.657 214.131L159.657 245.951C160.776 247.063 161.538 248.481 161.847 250.024C162.155 251.567 161.997 253.167 161.391 254.62C160.786 256.074 159.76 257.316 158.445 258.19C157.129 259.065 155.582 259.531 154 259.531V259.531Z" fill="#AD6643"/>
<path d="M58 442.495H74V466.36H58V442.495Z" fill="#C79E10"/>
<path d="M170 442.495H186V466.36H170V442.495Z" fill="#C79E10"/>
<path d="M506 514.09H42C39.8783 514.09 37.8434 513.252 36.3431 511.76C34.8429 510.268 34 508.245 34 506.135C34 504.025 34.8429 502.002 36.3431 500.51C37.8434 499.018 39.8783 498.18 42 498.18H506C508.122 498.18 510.157 499.018 511.657 500.51C513.157 502.002 514 504.025 514 506.135C514 508.245 513.157 510.268 511.657 511.76C510.157 513.252 508.122 514.09 506 514.09Z" fill="#596063"/>
<path d="M675.033 518.646C673.488 516.295 671.495 514.271 669.167 512.69C666.84 511.109 664.224 510.002 661.469 509.433C658.714 508.863 655.874 508.842 653.11 509.37C650.347 509.898 647.715 510.966 645.364 512.512L643.572 513.684L667.097 549.495L668.89 548.323C671.244 546.779 673.27 544.787 674.853 542.459C676.436 540.131 677.545 537.515 678.115 534.758C678.686 532.002 678.707 529.16 678.178 526.395C677.649 523.63 676.58 520.997 675.033 518.646V518.646Z" fill="#6ADDC7"/>
<path d="M559.333 326.277H329.938C326.615 326.244 323.318 326.872 320.239 328.123C317.16 329.374 314.36 331.225 312.001 333.566C309.643 335.908 307.773 338.695 306.5 341.765C305.227 344.835 304.577 348.128 304.586 351.451V658.16C304.586 672.23 315.86 683.963 329.938 683.963H559.333C566.138 683.895 572.643 681.149 577.439 676.319C582.235 671.49 584.936 664.966 584.957 658.16V351.451C584.957 337.373 573.402 326.277 559.333 326.277ZM362.436 376.226C359.645 376.226 356.916 375.398 354.596 373.848C352.275 372.297 350.466 370.093 349.398 367.514C348.33 364.936 348.05 362.098 348.595 359.361C349.139 356.623 350.484 354.109 352.457 352.135C354.431 350.162 356.945 348.818 359.683 348.273C362.42 347.729 365.258 348.008 367.836 349.076C370.415 350.144 372.619 351.953 374.17 354.274C375.72 356.594 376.548 359.323 376.548 362.114C376.548 363.967 376.183 365.802 375.474 367.515C374.765 369.227 373.725 370.783 372.415 372.093C371.105 373.404 369.549 374.443 367.837 375.152C366.124 375.861 364.289 376.226 362.436 376.226V376.226ZM415.553 376.226C412.762 376.226 410.034 375.398 407.713 373.848C405.392 372.297 403.584 370.093 402.516 367.514C401.448 364.936 401.168 362.098 401.713 359.361C402.257 356.623 403.601 354.109 405.575 352.135C407.548 350.162 410.063 348.818 412.8 348.273C415.538 347.729 418.375 348.008 420.954 349.076C423.532 350.144 425.736 351.953 427.287 354.274C428.838 356.594 429.665 359.323 429.665 362.114C429.666 363.967 429.301 365.802 428.592 367.515C427.883 369.227 426.843 370.783 425.533 372.093C424.222 373.404 422.666 374.443 420.954 375.152C419.242 375.861 417.407 376.226 415.553 376.226V376.226ZM468.679 376.226C465.888 376.226 463.16 375.398 460.839 373.848C458.519 372.297 456.71 370.093 455.642 367.514C454.574 364.936 454.294 362.098 454.839 359.361C455.383 356.623 456.727 354.109 458.701 352.135C460.674 350.162 463.189 348.818 465.926 348.273C468.664 347.729 471.501 348.008 474.08 349.076C476.659 350.144 478.863 351.953 480.413 354.274C481.964 356.594 482.791 359.323 482.791 362.114C482.793 363.967 482.428 365.803 481.72 367.516C481.011 369.228 479.971 370.784 478.661 372.095C477.35 373.406 475.794 374.445 474.081 375.154C472.369 375.863 470.533 376.227 468.679 376.226ZM521.797 376.226C519.006 376.226 516.278 375.398 513.957 373.848C511.636 372.297 509.827 370.093 508.759 367.514C507.691 364.936 507.412 362.098 507.956 359.361C508.501 356.623 509.845 354.109 511.818 352.135C513.792 350.162 516.306 348.818 519.044 348.273C521.781 347.729 524.619 348.008 527.197 349.076C529.776 350.144 531.98 351.953 533.531 354.274C535.081 356.594 535.909 359.323 535.909 362.114C535.909 363.967 535.544 365.802 534.835 367.515C534.126 369.227 533.087 370.783 531.776 372.093C530.466 373.404 528.91 374.443 527.198 375.152C525.486 375.861 523.65 376.226 521.797 376.226V376.226Z" fill="#CAE6EE"/>
<path d="M365.928 415.401C371.763 415.401 377.467 417.13 382.319 420.371C387.171 423.612 390.954 428.219 393.187 433.61C395.421 439.001 396.006 444.932 394.869 450.656C393.731 456.379 390.922 461.636 386.797 465.763C382.671 469.889 377.415 472.7 371.692 473.839C365.969 474.978 360.037 474.395 354.646 472.163C349.254 469.93 344.646 466.15 341.404 461.298C338.161 456.447 336.43 450.743 336.429 444.908C336.429 437.084 339.537 429.58 345.068 424.047C350.6 418.513 358.103 415.403 365.928 415.401V415.401Z" fill="#81C83D"/>
<path d="M365.928 500.362C371.763 500.361 377.467 502.091 382.319 505.332C387.171 508.573 390.954 513.18 393.187 518.571C395.421 523.961 396.006 529.893 394.869 535.616C393.731 541.34 390.922 546.597 386.797 550.724C382.671 554.85 377.415 557.661 371.692 558.8C365.969 559.939 360.037 559.356 354.646 557.124C349.254 554.891 344.646 551.111 341.404 546.259C338.161 541.408 336.43 535.704 336.429 529.869C336.429 522.045 339.537 514.541 345.068 509.007C350.6 503.474 358.103 500.364 365.928 500.362V500.362Z" fill="#81C83D"/>
<path d="M365.928 585.323C371.763 585.322 377.467 587.052 382.319 590.293C387.171 593.534 390.954 598.141 393.187 603.532C395.421 608.922 396.006 614.854 394.869 620.577C393.731 626.301 390.922 631.558 386.797 635.684C382.671 639.811 377.415 642.622 371.692 643.761C365.969 644.9 360.037 644.317 354.646 642.084C349.254 639.852 344.646 636.071 341.404 631.22C338.161 626.369 336.43 620.665 336.429 614.83C336.429 607.006 339.537 599.502 345.068 593.968C350.6 588.435 358.103 585.325 365.928 585.323V585.323Z" fill="#81C83D"/>
<path d="M330.074 658.16V351.451C330.065 348.128 330.715 344.835 331.988 341.765C333.261 338.695 335.131 335.908 337.49 333.566C339.848 331.225 342.648 329.374 345.727 328.123C348.806 326.872 352.103 326.244 355.427 326.277H329.938C326.615 326.244 323.318 326.872 320.239 328.123C317.16 329.374 314.36 331.225 312.001 333.566C309.643 335.908 307.773 338.695 306.5 341.765C305.227 344.835 304.577 348.128 304.586 351.451V658.16C304.586 672.23 315.86 683.963 329.938 683.963H355.427C341.349 683.963 330.074 672.23 330.074 658.16Z" fill="#AAC8CE"/>
<path d="M362.436 352.981C361.084 352.981 359.787 352.443 358.831 351.487C357.875 350.531 357.338 349.235 357.338 347.883V305.356C357.338 304.004 357.875 302.707 358.831 301.751C359.787 300.795 361.084 300.258 362.436 300.258C363.788 300.258 365.084 300.795 366.04 301.751C366.996 302.707 367.533 304.004 367.533 305.356V347.883C367.533 349.235 366.996 350.531 366.04 351.487C365.084 352.443 363.788 352.981 362.436 352.981Z" fill="#6D7486"/>
<path d="M362.436 352.981C361.084 352.981 359.787 352.443 358.831 351.487C357.875 350.531 357.338 349.235 357.338 347.883V305.356C357.338 304.004 357.875 302.707 358.831 301.751C359.787 300.795 361.084 300.258 362.436 300.258C363.788 300.258 365.084 300.795 366.04 301.751C366.996 302.707 367.533 304.004 367.533 305.356V347.883C367.533 349.235 366.996 350.531 366.04 351.487C365.084 352.443 363.788 352.981 362.436 352.981Z" fill="#6D7486"/>
<path d="M415.556 352.981C414.204 352.981 412.907 352.443 411.951 351.487C410.995 350.531 410.458 349.235 410.458 347.883V305.356C410.458 304.004 410.995 302.707 411.951 301.751C412.907 300.795 414.204 300.258 415.556 300.258C416.908 300.258 418.205 300.795 419.161 301.751C420.117 302.707 420.654 304.004 420.654 305.356V347.883C420.654 349.235 420.117 350.531 419.161 351.487C418.205 352.443 416.908 352.981 415.556 352.981Z" fill="#6D7486"/>
<path d="M468.678 352.981C467.326 352.981 466.029 352.443 465.073 351.487C464.117 350.531 463.58 349.235 463.58 347.883V305.356C463.58 304.004 464.117 302.707 465.073 301.751C466.029 300.795 467.326 300.258 468.678 300.258C470.03 300.258 471.326 300.795 472.282 301.751C473.238 302.707 473.775 304.004 473.775 305.356V347.883C473.775 349.235 473.238 350.531 472.282 351.487C471.326 352.443 470.03 352.981 468.678 352.981Z" fill="#6D7486"/>
<path d="M521.798 352.981C520.446 352.981 519.149 352.443 518.193 351.487C517.237 350.531 516.7 349.235 516.7 347.883V305.356C516.7 304.004 517.237 302.707 518.193 301.751C519.149 300.795 520.446 300.258 521.798 300.258C523.15 300.258 524.446 300.795 525.402 301.751C526.358 302.707 526.896 304.004 526.896 305.356V347.883C526.896 349.235 526.358 350.531 525.402 351.487C524.446 352.443 523.15 352.981 521.798 352.981Z" fill="#6D7486"/>
<path d="M552.842 439.806H425.4C424.048 439.806 422.752 439.269 421.796 438.313C420.84 437.357 420.303 436.061 420.303 434.709C420.303 433.357 420.84 432.06 421.796 431.104C422.752 430.148 424.048 429.611 425.4 429.611H552.842C554.194 429.611 555.49 430.148 556.446 431.104C557.402 432.06 557.939 433.357 557.939 434.709C557.939 436.061 557.402 437.357 556.446 438.313C555.49 439.269 554.194 439.806 552.842 439.806Z" fill="#8FB1B5"/>
<path d="M362.52 457.138C361.851 457.139 361.187 457.008 360.569 456.752C359.95 456.495 359.389 456.12 358.916 455.646L350.798 447.527C350.314 447.056 349.928 446.493 349.664 445.872C349.399 445.251 349.26 444.584 349.255 443.908C349.251 443.233 349.38 442.564 349.637 441.939C349.893 441.314 350.271 440.747 350.748 440.269C351.226 439.792 351.793 439.414 352.418 439.157C353.043 438.901 353.712 438.771 354.387 438.776C355.063 438.78 355.73 438.919 356.351 439.184C356.973 439.448 357.535 439.834 358.006 440.318L362.6 444.912L373.926 434.083C374.409 433.616 374.979 433.249 375.605 433.003C376.23 432.757 376.898 432.637 377.57 432.65C378.242 432.663 378.904 432.809 379.52 433.079C380.135 433.349 380.691 433.738 381.155 434.224C381.62 434.709 381.984 435.282 382.226 435.909C382.468 436.536 382.584 437.204 382.567 437.876C382.55 438.548 382.4 439.21 382.126 439.823C381.853 440.437 381.46 440.991 380.972 441.452L366.043 455.726C365.095 456.634 363.833 457.14 362.52 457.138V457.138Z" fill="#D8FF33"/>
<path d="M552.842 524.767H425.4C424.048 524.767 422.752 524.23 421.796 523.274C420.84 522.318 420.303 521.022 420.303 519.67C420.303 518.318 420.84 517.021 421.796 516.065C422.752 515.109 424.048 514.572 425.4 514.572H552.842C554.194 514.572 555.49 515.109 556.446 516.065C557.402 517.021 557.939 518.318 557.939 519.67C557.939 521.022 557.402 522.318 556.446 523.274C555.49 524.23 554.194 524.767 552.842 524.767Z" fill="#8FB1B5"/>
<path d="M362.52 542.099C361.851 542.1 361.187 541.969 360.569 541.713C359.95 541.456 359.389 541.081 358.916 540.607L350.798 532.488C350.314 532.017 349.928 531.454 349.664 530.833C349.399 530.212 349.26 529.544 349.255 528.869C349.251 528.194 349.38 527.525 349.637 526.9C349.893 526.275 350.271 525.707 350.748 525.23C351.226 524.752 351.793 524.375 352.418 524.118C353.043 523.862 353.712 523.732 354.387 523.737C355.063 523.741 355.73 523.88 356.351 524.145C356.973 524.409 357.535 524.795 358.006 525.279L362.6 529.873L373.926 519.044C374.409 518.577 374.979 518.21 375.605 517.964C376.23 517.718 376.898 517.598 377.57 517.611C378.242 517.624 378.904 517.77 379.52 518.04C380.135 518.31 380.691 518.699 381.155 519.185C381.62 519.67 381.984 520.243 382.226 520.87C382.468 521.497 382.584 522.165 382.567 522.837C382.55 523.509 382.4 524.171 382.126 524.784C381.853 525.398 381.46 525.952 380.972 526.413L366.043 540.686C365.095 541.595 363.833 542.101 362.52 542.099V542.099Z" fill="#D8FF33"/>
<path d="M506.198 609.728H425.4C424.048 609.728 422.752 609.191 421.796 608.235C420.84 607.279 420.303 605.983 420.303 604.631C420.303 603.279 420.84 601.982 421.796 601.026C422.752 600.07 424.048 599.533 425.4 599.533H506.198C507.55 599.533 508.847 600.07 509.803 601.026C510.759 601.982 511.296 603.279 511.296 604.631C511.296 605.983 510.759 607.279 509.803 608.235C508.847 609.191 507.55 609.728 506.198 609.728V609.728Z" fill="#8FB1B5"/>
<path d="M362.52 627.06C361.851 627.061 361.187 626.93 360.569 626.674C359.95 626.417 359.389 626.042 358.916 625.568L350.798 617.449C350.314 616.978 349.928 616.415 349.664 615.794C349.399 615.173 349.26 614.505 349.255 613.83C349.251 613.155 349.38 612.486 349.637 611.861C349.893 611.236 350.271 610.668 350.748 610.191C351.226 609.713 351.793 609.336 352.418 609.079C353.043 608.823 353.712 608.693 354.387 608.698C355.063 608.702 355.73 608.841 356.351 609.106C356.973 609.37 357.535 609.756 358.006 610.24L362.6 614.834L373.926 604.005C374.409 603.538 374.979 603.171 375.605 602.925C376.23 602.679 376.898 602.559 377.57 602.572C378.242 602.585 378.904 602.73 379.52 603.001C380.135 603.271 380.691 603.66 381.155 604.145C381.62 604.631 381.984 605.204 382.226 605.831C382.468 606.458 382.584 607.126 382.567 607.798C382.55 608.47 382.4 609.132 382.126 609.745C381.853 610.359 381.46 610.912 380.972 611.374L366.043 625.647C365.095 626.556 363.833 627.062 362.52 627.06V627.06Z" fill="#D8FF33"/>
<path d="M493.369 456.799H425.4C424.048 456.799 422.752 456.262 421.796 455.306C420.84 454.35 420.303 453.053 420.303 451.701C420.303 450.349 420.84 449.052 421.796 448.096C422.752 447.14 424.048 446.603 425.4 446.603H493.369C494.721 446.603 496.018 447.14 496.974 448.096C497.93 449.052 498.467 450.349 498.467 451.701C498.467 453.053 497.93 454.35 496.974 455.306C496.018 456.262 494.721 456.799 493.369 456.799V456.799Z" fill="#8FB1B5"/>
<path d="M493.369 541.76H425.4C424.048 541.76 422.752 541.222 421.796 540.266C420.84 539.31 420.303 538.014 420.303 536.662C420.303 535.31 420.84 534.013 421.796 533.057C422.752 532.101 424.048 531.564 425.4 531.564H493.369C494.721 531.564 496.018 532.101 496.974 533.057C497.93 534.013 498.467 535.31 498.467 536.662C498.467 538.014 497.93 539.31 496.974 540.266C496.018 541.222 494.721 541.76 493.369 541.76Z" fill="#8FB1B5"/>
<path d="M493.369 626.72H425.4C424.048 626.72 422.752 626.183 421.796 625.227C420.84 624.271 420.303 622.975 420.303 621.623C420.303 620.271 420.84 618.974 421.796 618.018C422.752 617.062 424.048 616.525 425.4 616.525H493.369C494.721 616.525 496.018 617.062 496.974 618.018C497.93 618.974 498.467 620.271 498.467 621.623C498.467 622.975 497.93 624.271 496.974 625.227C496.018 626.183 494.721 626.72 493.369 626.72V626.72Z" fill="#8FB1B5"/>
<path d="M324.382 372.489C323.03 372.489 321.733 371.952 320.777 370.996C319.821 370.04 319.284 368.744 319.284 367.392V362.039C319.284 360.687 319.821 359.391 320.777 358.435C321.733 357.479 323.03 356.941 324.382 356.941C325.734 356.941 327.03 357.479 327.986 358.435C328.942 359.391 329.479 360.687 329.479 362.039V367.392C329.479 368.744 328.942 370.04 327.986 370.996C327.03 371.952 325.734 372.489 324.382 372.489Z" fill="#F4F8FC"/>
<path d="M324.382 437.909C323.03 437.909 321.733 437.372 320.777 436.416C319.821 435.46 319.284 434.164 319.284 432.812V383.534C319.284 382.182 319.821 380.886 320.777 379.93C321.733 378.974 323.03 378.437 324.382 378.437C325.734 378.437 327.03 378.974 327.986 379.93C328.942 380.886 329.479 382.182 329.479 383.534V432.812C329.479 434.164 328.942 435.46 327.986 436.416C327.03 437.372 325.734 437.909 324.382 437.909Z" fill="#F4F8FC"/>
<path d="M655.339 531.594L518.39 621.525L530.157 639.426L667.097 549.495L655.339 531.594Z" fill="#E75163"/>
<path d="M506.678 603.626L643.646 513.679L655.41 531.594L518.443 621.541L506.678 603.626Z" fill="#FB6771"/>
<path d="M506.623 603.615L506.079 604.635L487.074 640.556L530.157 639.426L506.623 603.615Z" fill="#C79A83"/>
</svg>
