<svg width="824" height="512" viewBox="0 0 824 512" fill="none" xmlns="http://www.w3.org/2000/svg">
<path d="M427.614 345.554L78.281 345.54L11 464H501L427.614 345.554Z" fill="#4CA987"/>
<path d="M465.56 406.71L501 463.77H346.98V463.56L340.94 406.93L465.1 407L465.56 406.71Z" fill="#C79A83"/>
<path d="M326.64 164H185.36C182.089 164.066 178.971 165.4 176.665 167.721C174.359 170.042 173.045 173.168 173 176.44V210H339V176.44C338.955 173.168 337.641 170.042 335.335 167.721C333.029 165.4 329.911 164.066 326.64 164V164Z" fill="#E87187"/>
<path d="M313.64 130.36L325.98 164.33H186.02L198.36 130.36C199.254 127.895 200.886 125.766 203.033 124.261C205.18 122.756 207.738 121.949 210.36 121.95H301.64C304.262 121.949 306.82 122.756 308.967 124.261C311.114 125.766 312.746 127.895 313.64 130.36V130.36Z" fill="#ADF0E5"/>
<path d="M256.22 433.24L256.31 463.77H11L28.45 433.08L28.65 433.19L256.22 433.24Z" fill="#CCD3DF"/>
<path d="M162.97 345.4V345.54L150.82 392.06L52.01 391.93L51.88 391.86L78.21 345.54L162.97 345.4Z" fill="#C79A83"/>
<path d="M327.26 345.52C305.354 367.009 281.498 386.416 256 403.49C230.396 386.341 206.446 366.844 184.46 345.25C145.03 306.52 103.99 252.14 103.99 193.54C103.99 113.3 172.2 48.22 256 48.22C339.8 48.22 408.01 113.3 408.01 193.54C408.01 252.28 366.78 306.78 327.26 345.52ZM372 197.54C372 174.597 365.197 152.17 352.45 133.094C339.704 114.018 321.587 99.1497 300.391 90.37C279.195 81.5902 255.871 79.293 233.37 83.7689C210.868 88.2448 190.198 99.2927 173.976 115.516C157.753 131.739 146.705 152.408 142.229 174.91C137.753 197.411 140.05 220.735 148.83 241.931C157.61 263.128 172.478 281.244 191.554 293.99C210.63 306.737 233.057 313.54 256 313.54C271.233 313.54 286.317 310.54 300.391 304.71C314.465 298.88 327.253 290.336 338.024 279.564C348.796 268.793 357.34 256.005 363.17 241.931C369 227.858 372 212.773 372 197.54V197.54Z" fill="#5FA8ED"/>
<path d="M314.28 178.34C316.611 178.34 318.847 179.266 320.495 180.915C322.144 182.563 323.07 184.799 323.07 187.13C323.07 189.461 322.144 191.697 320.495 193.345C318.847 194.994 316.611 195.92 314.28 195.92H295.49L298.89 178.34H314.28Z" fill="#F3CE7D"/>
<path d="M285.08 210.35H223.8L232.21 195.87H276.67L285.08 210.35Z" fill="#F3CE7D"/>
<path d="M210.42 178.34L213.81 195.92H195.02C192.689 195.92 190.453 194.994 188.805 193.345C187.156 191.697 186.23 189.461 186.23 187.13C186.23 184.799 187.156 182.563 188.805 180.915C190.453 179.266 192.689 178.34 195.02 178.34H210.42Z" fill="#F3CE7D"/>
<path d="M337.11 246.11C337.121 247.69 336.505 249.21 335.397 250.336C334.289 251.463 332.78 252.104 331.2 252.12L315.06 252.22C314.278 252.227 313.502 252.08 312.776 251.786C312.051 251.493 311.391 251.059 310.834 250.51C310.276 249.961 309.833 249.307 309.528 248.587C309.224 247.866 309.065 247.092 309.06 246.31L308.93 226.93V226.69H336.98V226.74L337.11 246.11Z" fill="#6D7486"/>
<path d="M203.07 246.11C203.083 247.691 202.467 249.211 201.359 250.338C200.251 251.465 198.741 252.106 197.16 252.12L181.02 252.22C180.238 252.227 179.462 252.08 178.736 251.786C178.011 251.493 177.351 251.059 176.794 250.51C176.236 249.961 175.793 249.307 175.488 248.587C175.184 247.866 175.025 247.092 175.02 246.31L174.89 226.93V226.69H202.94V226.74L203.07 246.11Z" fill="#6D7486"/>
<path d="M341.41 209H170.59C169.71 209 169 210.07 169 210.94V226.1C168.99 226.556 169.146 226.999 169.438 227.349C169.731 227.698 170.14 227.929 170.59 228H341.41C341.86 227.929 342.269 227.698 342.562 227.349C342.854 226.999 343.01 226.556 343 226.1V210.94C343 210.07 342.29 209 341.41 209Z" fill="#7E7EA3"/>
<path d="M214.46 345.25C175.03 306.52 133.99 252.14 133.99 193.54C133.99 118.146 194.211 56.14 271 48.927C266.067 48.4603 261.067 48.2247 256 48.22C172.2 48.22 103.99 113.3 103.99 193.54C103.99 252.14 145.03 306.52 184.46 345.25C206.446 366.844 230.396 386.341 256 403.49C256 403.49 261.745 399.817 271 393.071C251.034 378.504 232.139 362.522 214.46 345.25V345.25Z" fill="#4E88B7"/>
<path d="M238.473 373.22C237.137 373.221 235.838 372.774 234.786 371.95C219.476 360.004 196.772 340.875 175.559 317.582C175.018 317.001 174.597 316.319 174.322 315.575C174.046 314.83 173.921 314.039 173.953 313.246C173.986 312.453 174.175 311.674 174.511 310.955C174.846 310.235 175.321 309.59 175.908 309.055C176.495 308.521 177.182 308.108 177.929 307.841C178.677 307.574 179.47 307.458 180.262 307.499C181.055 307.541 181.831 307.739 182.547 308.083C183.262 308.427 183.902 308.909 184.43 309.502C205.077 332.173 227.224 350.83 242.167 362.489C243.153 363.258 243.873 364.315 244.229 365.513C244.584 366.712 244.557 367.991 244.15 369.173C243.743 370.355 242.977 371.38 241.96 372.106C240.942 372.831 239.723 373.221 238.473 373.22V373.22Z" fill="#F4F8FC"/>
<path d="M169.126 307.05C168.244 307.052 167.372 306.858 166.574 306.483C165.775 306.108 165.069 305.562 164.507 304.882C163.286 303.415 162.077 301.933 160.88 300.435C160.365 299.823 159.977 299.114 159.74 298.35C159.503 297.585 159.421 296.781 159.5 295.985C159.578 295.189 159.814 294.416 160.196 293.713C160.577 293.009 161.095 292.389 161.72 291.889C162.344 291.389 163.062 291.018 163.832 290.8C164.602 290.581 165.408 290.519 166.202 290.616C166.996 290.714 167.763 290.969 168.457 291.367C169.151 291.766 169.758 292.299 170.243 292.935C171.398 294.376 172.565 295.805 173.743 297.222C174.471 298.098 174.934 299.164 175.078 300.294C175.223 301.424 175.043 302.572 174.559 303.603C174.075 304.635 173.308 305.507 172.346 306.118C171.385 306.73 170.269 307.054 169.13 307.055L169.126 307.05Z" fill="#F4F8FC"/>
<g clip-path="url(#clip0)">
<path d="M467.483 88.1911C467.483 87.2798 468.224 86.5388 469.135 86.5388H714.688V52.6748C714.688 51.3058 713.579 50.1963 712.21 50.1963H433.619C432.25 50.1963 431.14 51.3058 431.14 52.6748V422.809C431.14 424.178 432.25 425.287 433.619 425.287H467.483V88.1911Z" fill="#FAC600"/>
<path d="M467.483 88.1911C467.483 87.2798 468.224 86.5388 469.135 86.5388H472.877V52.6748C472.877 51.3058 473.986 50.1963 475.355 50.1963H433.619C432.25 50.1963 431.14 51.3058 431.14 52.6748V422.809C431.14 424.178 432.25 425.287 433.619 425.287H467.483V88.1911Z" fill="#E8B800"/>
<path d="M685.664 417.452C683.842 417.452 682.359 415.97 682.359 414.147V331.174C682.359 329.352 683.842 327.869 685.664 327.869H750.205V301.201H685.664C683.842 301.201 682.359 299.719 682.359 297.897V214.923C682.359 213.101 683.842 211.619 685.664 211.619H750.205V88.1911C750.205 86.8221 749.095 85.7126 747.726 85.7126H469.135C467.766 85.7126 466.657 86.8221 466.657 88.1911V458.325C466.657 459.694 467.766 460.804 469.135 460.804H747.726C749.095 460.804 750.205 459.694 750.205 458.325V417.452H685.664Z" fill="#FFF3DE"/>
<path d="M501.622 458.325V88.1911C501.622 86.8221 502.732 85.7126 504.1 85.7126H469.135C467.766 85.7126 466.657 86.8221 466.657 88.1911V458.325C466.657 459.694 467.766 460.804 469.135 460.804H504.1C502.732 460.804 501.622 459.694 501.622 458.325Z" fill="#FFE5C2"/>
<path d="M768.637 418.278H685.664C683.383 418.278 681.533 416.428 681.533 414.147V331.174C681.533 328.893 683.383 327.043 685.664 327.043H768.637C770.918 327.043 772.768 328.893 772.768 331.174V414.147C772.767 416.428 770.918 418.278 768.637 418.278Z" fill="#4FC123"/>
<path d="M709.162 414.147V331.174C709.162 328.893 711.012 327.043 713.293 327.043H685.664C683.383 327.043 681.533 328.893 681.533 331.174V414.147C681.533 416.428 683.383 418.278 685.664 418.278H713.293C711.011 418.278 709.162 416.428 709.162 414.147Z" fill="#47A920"/>
<path d="M768.637 302.027H685.664C683.383 302.027 681.533 300.178 681.533 297.897V214.923C681.533 212.642 683.383 210.793 685.664 210.793H768.637C770.918 210.793 772.768 212.642 772.768 214.923V297.897C772.767 300.178 770.918 302.027 768.637 302.027Z" fill="#4FC123"/>
<path d="M709.162 297.897V214.923C709.162 212.642 711.012 210.793 713.293 210.793H685.664C683.383 210.793 681.533 212.642 681.533 214.923V297.897C681.533 300.178 683.383 302.027 685.664 302.027H713.293C711.011 302.027 709.162 300.178 709.162 297.897Z" fill="#47A920"/>
<path d="M527.73 192.954H689.13C692.553 192.954 695.326 190.18 695.326 186.758C695.326 183.336 692.553 180.561 689.13 180.561H527.73C524.307 180.561 521.534 183.336 521.534 186.758C521.534 190.18 524.308 192.954 527.73 192.954V192.954Z" fill="black"/>
<path d="M527.73 229.409H585.236C588.659 229.409 591.433 226.634 591.433 223.212C591.433 219.79 588.659 217.016 585.236 217.016H527.731C524.308 217.016 521.534 219.79 521.534 223.212C521.534 226.634 524.308 229.409 527.73 229.409V229.409Z" fill="black"/>
<path d="M527.73 338.775H619.936C623.358 338.775 626.132 336 626.132 332.578C626.132 329.156 623.358 326.382 619.936 326.382H527.73C524.307 326.382 521.534 329.156 521.534 332.578C521.534 336 524.308 338.775 527.73 338.775Z" fill="black"/>
<path d="M558.819 145.865H658.041C661.464 145.865 664.237 143.09 664.237 139.668C664.237 136.246 661.464 133.472 658.041 133.472H558.819C555.397 133.472 552.623 136.246 552.623 139.668C552.623 143.09 555.397 145.865 558.819 145.865V145.865Z" fill="black"/>
<path d="M789.478 322.171L778.964 332.686V331.174C778.964 325.479 774.331 320.847 768.637 320.847H756.4V308.223H768.637C774.331 308.223 778.964 303.591 778.964 297.896V287.721C778.964 284.299 776.19 281.524 772.767 281.524C769.345 281.524 766.571 284.299 766.571 287.721V295.83H687.729V216.988H766.571V228.827L732.546 262.853L710.262 240.569C707.841 238.149 703.918 238.149 701.499 240.569C699.079 242.988 699.079 246.912 701.499 249.331L728.164 275.997C729.374 277.208 730.96 277.812 732.546 277.812C734.131 277.812 735.718 277.208 736.928 275.997L766.572 246.354V258.805C766.572 262.227 769.345 265.001 772.768 265.001C776.191 265.001 778.965 262.227 778.965 258.805V233.961L798.242 214.683C800.662 212.263 800.662 208.34 798.242 205.921C795.822 203.501 791.899 203.501 789.479 205.921L778.965 216.435V214.923C778.965 209.229 774.332 204.596 768.637 204.596H756.401V88.1911C756.401 83.4076 752.51 79.5163 747.726 79.5163H720.885V52.6748C720.885 47.8913 716.993 44 712.21 44H433.618C428.835 44 424.943 47.8913 424.943 52.6748V422.809C424.943 427.592 428.835 431.484 433.618 431.484H460.46V458.325C460.46 463.109 464.351 467 469.134 467H747.725C752.509 467 756.4 463.109 756.4 458.325V424.474H768.637C774.331 424.474 778.964 419.842 778.964 414.147V350.212L798.242 330.934C800.661 328.514 800.661 324.59 798.242 322.171C795.822 319.752 791.898 319.751 789.478 322.171V322.171ZM766.571 345.079L732.545 379.104L710.261 356.819C707.84 354.399 703.918 354.399 701.498 356.819C699.078 359.239 699.078 363.163 701.498 365.582L728.164 392.248C729.374 393.458 730.96 394.063 732.546 394.063C734.131 394.063 735.718 393.458 736.928 392.248L766.572 362.605V412.083H741.383C737.96 412.083 735.187 414.857 735.187 418.279C735.187 421.701 737.96 424.475 741.383 424.475H744.008V454.607H472.853V91.9089H529.883C533.306 91.9089 536.079 89.1346 536.079 85.7126C536.079 82.2906 533.306 79.5163 529.883 79.5163H469.135C464.352 79.5163 460.46 83.4076 460.46 88.1911V419.09H437.336V56.3926H708.491V79.5163H558.799C555.376 79.5163 552.603 82.2906 552.603 85.7126C552.603 89.1346 555.376 91.9089 558.799 91.9089H744.008V204.595H685.664C679.969 204.595 675.337 209.228 675.337 214.923V217.016H608.369C604.946 217.016 602.173 219.79 602.173 223.212C602.173 226.634 604.946 229.409 608.369 229.409H675.337V253.471H527.73C524.307 253.471 521.534 256.245 521.534 259.667C521.534 263.089 524.307 265.864 527.73 265.864H675.336V289.926H527.73C524.307 289.926 521.534 292.7 521.534 296.122C521.534 299.544 524.307 302.318 527.73 302.318H676.346C678.006 305.802 681.553 308.222 685.663 308.222H744.008V320.846H685.663C681.699 320.846 678.253 323.095 676.523 326.381H643.068C639.646 326.381 636.872 329.156 636.872 332.578C636.872 336 639.646 338.774 643.068 338.774H675.337V362.836H527.73C524.307 362.836 521.534 365.611 521.534 369.033C521.534 372.455 524.307 375.229 527.73 375.229H675.336V399.292H527.73C524.307 399.292 521.534 402.066 521.534 405.488C521.534 408.91 524.307 411.684 527.73 411.684H675.336V414.146C675.336 419.84 679.969 424.473 685.663 424.473H712.467C715.89 424.473 718.663 421.699 718.663 418.277C718.663 414.855 715.89 412.08 712.467 412.08H687.73V333.238H766.572V345.079H766.571Z" fill="black"/>
</g>
<defs>
<clipPath id="clip0">
<rect width="423" height="423" fill="white" transform="translate(401 44)"/>
</clipPath>
</defs>
</svg>
