<svg id="Layer_3" height="512" viewBox="0 0 64 64" width="512" xmlns="http://www.w3.org/2000/svg" data-name="Layer 3"><path d="m19 41-17 21h60l-17-21" fill="#606160"/><path d="m23 41-15 21h-6l17-21z" fill="#9d9e9d"/><path d="m62 62h-6l-15-21h4z" fill="#9d9e9d"/><path d="m40.999 40.999.001-32.999h-20v33" fill="#747574"/><path d="m23 19a20 20 0 0 0 18 19.9v-30.9h-18z" fill="#9d9e9d"/><path d="m52 41v-22h-11v22" fill="#f8d859"/><path d="m43 19v9a11 11 0 0 0 9 10.81v-19.81s-5.829 0-9 0z" fill="#fce85f"/><path d="m52 41v-36h2v-3h6v3h2v36" fill="#37c"/><path d="m62 37.8v-32.8h-2v-3h-6v26a10 10 0 0 0 8 9.8z" fill="#3e88de"/><path d="m14 41v-21h16v21" fill="#1b489c"/><path d="m16 23a15.993 15.993 0 0 0 14 15.862v-18.862h-14z" fill="#2b66b9"/><path d="m5 34h2v7h-2z" fill="#574138"/><path d="m2 34h8l-4-12z" fill="#447b3b"/><path d="m52 9h5v4h-5" fill="#bcbdbc"/><path d="m62 17h-5v4h5" fill="#f4f5f4"/><path d="m52 25h5v4h-5" fill="#bcbdbc"/><path d="m62 33h-5v4h5" fill="#bcbdbc"/><path d="m43 22h3v2h-3z" fill="#f4f5f4"/><path d="m48 22h2v2h-2z" fill="#f4f5f4"/><path d="m47 26h3v2h-3z" fill="#f4f5f4"/><path d="m43 26h2v2h-2z" fill="#f4f5f4"/><path d="m43 30h3v2h-3z" fill="#dfe0df"/><path d="m48 30h2v2h-2z" fill="#f4f5f4"/><path d="m47 34h3v2h-3z" fill="#f4f5f4"/><path d="m43 34h2v2h-2z" fill="#dfe0df"/><path d="m25 12h4v4h-4z" fill="#f4f5f4"/><path d="m33 12h4v4h-4z" fill="#f4f5f4"/><path d="m33 20h4v4h-4z" fill="#f4f5f4"/><path d="m33 28h4v4h-4z" fill="#f4f5f4"/><path d="m19 41v-5a3 3 0 0 1 3-3 3 3 0 0 1 3 3v5" fill="#bcbdbc"/><path d="m14 24h16v5h-16z" fill="#bcbdbc"/><path d="m33 61h-2v-4h2zm0-8h-2v-4h2zm0-8h-2v-4h2z" fill="#f8d859"/><path d="m1 40h62v2h-62z" fill="#414241"/><path d="m22 33a2.975 2.975 0 0 0 -1.892.689 16.039 16.039 0 0 0 4.892 3.671v-1.36a3 3 0 0 0 -3-3z" fill="#edeeed"/><path d="m17.174 29h12.826v-5h-13.953a15.9 15.9 0 0 0 1.127 5z" fill="#dfe0df"/><g fill="#f4f5f4"><path d="m43.758 32h2.242v-2h-2.817a10.812 10.812 0 0 0 .575 2z"/><path d="m45 34.32v-.32h-.206c.069.106.133.216.206.32z"/><path d="m57 25h-3v3c0 .338.021.671.053 1h2.947z"/><path d="m57 35.132a10.023 10.023 0 0 0 2.645 1.868h2.355v-4h-5z"/><path d="m54 9h3v4h-3z"/></g><path d="m6.667 24-1.12 3.36a3.525 3.525 0 0 0 3.344 4.64h.442z" fill="#508c45"/></svg>