<?xml version="1.0" encoding="iso-8859-1"?>
<!-- Generator: Adobe Illustrator 19.0.0, SVG Export Plug-In . SVG Version: 6.00 Build 0)  -->
<svg version="1.1" id="Capa_1" xmlns="http://www.w3.org/2000/svg" xmlns:xlink="http://www.w3.org/1999/xlink" x="0px" y="0px"
	 viewBox="0 0 512 512" style="enable-background:new 0 0 512 512;" xml:space="preserve">
<path style="fill:#F3C849;" d="M363.524,142.872c0-47.495-30.797-87.793-73.509-102.026l0.644-12.251
	c0.194-3.698-1.556-7.231-4.617-9.316l-0.59-0.402c-17.72-12.073-41.065-11.908-58.612,0.416c-2.967,2.083-4.664,5.54-4.497,9.161
	l0.556,12.097c-43.183,13.961-74.419,54.49-74.419,102.322v28.555h215.045v-28.556H363.524z"/>
<g>
	<path style="fill:#61BBF2;" d="M191.161,377.212l11.207,124.786h107.266l11.207-124.786c-5.728-1.381-11.703-2.136-17.866-2.136
		h-13.577c-0.159,18.312-15.048,33.11-33.397,33.11l0,0c-18.35,0-33.238-14.798-33.397-33.11h-13.577
		C202.865,375.076,196.889,375.831,191.161,377.212z"/>
	<path style="fill:#61BBF2;" d="M133.155,454.133l1.469,35.735c0.279,6.779,5.856,12.131,12.64,12.131h20.655l-9.649-107.438
		C142.07,409.141,132.185,430.553,133.155,454.133z"/>
	<path style="fill:#61BBF2;" d="M364.738,501.998c6.785,0,12.361-5.353,12.64-12.131l1.469-35.735
		c0.97-23.58-8.915-44.992-25.115-59.572l-9.649,107.438h20.656V501.998z"/>
</g>
<path style="fill:#EFB7AC;" d="M256.001,408.186L256.001,408.186c18.35,0,33.238-14.798,33.398-33.11
	c0.001-0.099,0.007-0.196,0.007-0.295v-25.823c13.965-5.879,26.624-15.613,36.261-29.214
	c26.631-37.588,33.679-80.683,35.504-103.429H150.83c1.824,22.747,8.873,65.842,35.505,103.429
	c9.636,13.601,22.297,23.336,36.261,29.214v25.823c0,0.099,0.007,0.196,0.007,0.295
	C222.762,393.388,237.651,408.186,256.001,408.186z"/>
<path style="fill:#E59F50;" d="M374.325,216.314c2.676,0,5.144-1.448,6.448-3.785c6.473-11.596,6.473-25.72,0-37.318
	c-1.304-2.337-3.771-3.785-6.448-3.785h-10.801H148.479h-10.801c-2.676,0-5.144,1.448-6.448,3.785
	c-6.473,11.596-6.473,25.72,0,37.318c1.304,2.337,3.771,3.785,6.448,3.785h13.154h210.342H374.325z"/>
<g>
	<path style="fill:#F3C849;" d="M191.153,377.214c-6.224,1.501-12.143,3.767-17.654,6.691c-0.003,0.001-0.006,0.003-0.009,0.004
		c-2.65,1.406-5.204,2.969-7.655,4.668c-2.647,1.835-5.175,3.831-7.562,5.98c-0.001,0.001-0.002,0.002-0.003,0.003l9.649,107.438
		h34.449l-11.207-124.786C191.158,377.213,191.155,377.214,191.153,377.214z"/>
	<path style="fill:#F3C849;" d="M344.083,501.998l9.649-107.438c-0.001-0.001-0.002-0.002-0.003-0.003
		c-2.387-2.148-4.915-4.145-7.562-5.98c-2.451-1.699-5.005-3.261-7.655-4.668c-0.003-0.001-0.006-0.003-0.009-0.004
		c-5.512-2.924-11.43-5.19-17.654-6.691c-0.003,0-0.005-0.001-0.008-0.002l-11.207,124.786L344.083,501.998L344.083,501.998z"/>
</g>
<path d="M333.827,325.526c24.795-34.995,33.454-74.068,36.439-99.21h4.059c6.296,0,12.114-3.415,15.181-8.913
	c8.224-14.735,8.224-32.329,0-47.065c-3.068-5.498-8.885-8.913-15.182-8.913h-0.8v-18.553c0-48.106-29.088-90.924-73.136-108.85
	l0.258-4.902c0.375-7.141-3.062-14.078-8.975-18.107l-0.589-0.401c-21.034-14.33-49.162-14.131-69.991,0.496
	c-1.087,0.763-2.085,1.618-2.987,2.548c-3.609,3.723-5.683,8.673-5.772,13.937c-0.007,0.438-0.001,0.879,0.019,1.322l0.072,1.568
	l0.145,3.157c-44.623,17.682-74.091,60.654-74.091,109.232v18.553h-0.8c-6.296,0-12.114,3.415-15.181,8.913
	c-8.224,14.735-8.224,32.329,0,47.065c3.068,5.498,8.885,8.913,15.182,8.913h4.059c2.984,25.142,11.643,64.214,36.439,99.21
	c9.151,12.916,20.941,23.038,34.42,29.891v9.657h-3.567c-23.625,0-45.645,9.387-62.003,26.432s-24.833,39.432-23.863,63.037
	l1.47,35.735c0.501,12.18,10.442,21.721,22.633,21.721h20.655h34.449h107.266h34.449h20.655c12.19,0,22.132-9.541,22.633-21.721
	l1.47-35.735c0.97-23.606-7.504-45.992-23.863-63.037c-16.358-17.045-38.378-26.432-62.003-26.432h-3.567v-9.657
	C312.887,348.564,324.676,338.442,333.827,325.526z M140.252,206.314h-0.993c-3.595-7.315-3.852-15.67-0.781-23.137
	c0.242-0.588,0.498-1.172,0.781-1.749h122.418c4.218,0,7.818-2.614,9.288-6.308c0.455-1.144,0.713-2.387,0.713-3.693
	c0-5.523-4.478-10.001-10.001-10.001H158.48v-18.553c0-37.937,21.665-71.736,55.074-87.818l3.532,76.795
	c0.254,5.518,4.938,9.821,10.45,9.53c5.518-0.254,9.785-4.933,9.531-10.45l-4.735-102.934c-0.009-0.206,0.085-0.399,0.254-0.518
	c14.058-9.872,33.039-10.007,47.236-0.334l0.588,0.4c0.172,0.117,0.273,0.319,0.262,0.526l-0.644,12.25c0,0.001,0,0.002,0,0.003
	l-4.76,90.54c-0.29,5.517,3.947,10.223,9.462,10.513c0.179,0.01,0.356,0.014,0.534,0.014c5.282,0,9.698-4.14,9.979-9.476l4.02-76.46
	c32.921,16.255,54.26,49.888,54.26,87.417v18.553h-11.725c-5.524,0-10.001,4.479-10.001,10.001c0,1.306,0.258,2.55,0.713,3.693
	c1.47,3.693,5.071,6.308,9.288,6.308h30.947c0.283,0.576,0.539,1.16,0.781,1.749c3.07,7.468,2.814,15.822-0.781,23.137h-0.993
	H140.252V206.314z M194.496,313.962c-21.444-30.264-29.498-64.745-32.506-87.646h188.059c-2.987,22.861-11.029,57.283-32.542,87.646
	c-5.086,7.178-11.208,13.259-18.099,18.122c-6.119,4.32-12.847,7.672-20.003,9.966c-7.411,2.376-15.278,3.624-23.404,3.624
	s-15.993-1.248-23.404-3.624c-7.156-2.294-13.884-5.647-20.003-9.966C205.704,327.221,199.581,321.14,194.496,313.962z
	 M147.264,491.996c-1.425,0-2.588-1.115-2.646-2.54l-1.47-35.735c-0.484-11.762,2.107-23.123,7.41-33.23l6.422,71.506
	L147.264,491.996L147.264,491.996z M177.062,491.996l-8.363-93.124c4.207-3.255,8.793-5.991,13.635-8.142l9.095,101.266H177.062z
	 M334.939,491.996h-14.366l9.095-101.266c4.842,2.15,9.428,4.887,13.635,8.142L334.939,491.996z M368.855,453.722l-1.47,35.735
	c-0.059,1.425-1.221,2.54-2.646,2.54h-9.715l6.422-71.506C366.748,430.599,369.339,441.958,368.855,453.722z M302.975,385.077
	c2.385,0,4.749,0.132,7.084,0.379l-9.569,106.541h-88.979l-9.569-106.541c2.336-0.247,4.699-0.379,7.084-0.379h4.812
	c4.636,18.979,21.776,33.11,42.162,33.11s37.526-14.131,42.162-33.11H302.975z M279.404,365.074v9.706
	c0,3.692-0.863,7.187-2.392,10.296c-3.816,7.756-11.799,13.108-21.011,13.108c-9.212,0-17.195-5.353-21.011-13.108
	c-1.53-3.109-2.392-6.604-2.392-10.296v-9.706v-2.222c4.086,1.009,8.265,1.752,12.521,2.222c3.579,0.395,7.21,0.604,10.883,0.604
	c3.673,0,7.304-0.208,10.883-0.604c4.255-0.47,8.435-1.213,12.521-2.222v2.222H279.404z"/>
<path d="M310.968,167.605c-0.25-0.609-0.56-1.189-0.92-1.729c-0.36-0.55-0.78-1.061-1.24-1.521c-2.32-2.319-5.771-3.39-9.021-2.729
	c-0.64,0.12-1.27,0.32-1.87,0.57c-0.61,0.25-1.19,0.56-1.73,0.92c-0.55,0.359-1.06,0.779-1.52,1.239s-0.88,0.971-1.24,1.521
	c-0.36,0.54-0.67,1.12-0.92,1.729c-0.25,0.601-0.44,1.23-0.57,1.87c-0.13,0.641-0.2,1.3-0.2,1.95c0,0.65,0.07,1.311,0.2,1.96
	c0.121,0.584,0.298,1.166,0.522,1.734c0.018,0.045,0.03,0.091,0.048,0.136c0.25,0.6,0.56,1.18,0.92,1.72
	c0.36,0.55,0.78,1.061,1.24,1.521c0.46,0.46,0.97,0.88,1.52,1.24c0.54,0.369,1.12,0.67,1.73,0.92c0.6,0.25,1.23,0.449,1.87,0.569
	c0.64,0.13,1.3,0.2,1.95,0.2c2.63,0,5.211-1.07,7.071-2.93c0.46-0.46,0.88-0.971,1.24-1.521c0.36-0.54,0.67-1.12,0.92-1.72
	c0.018-0.045,0.031-0.091,0.048-0.136c0.224-0.568,0.401-1.151,0.522-1.734c0.13-0.649,0.2-1.31,0.2-1.96c0-0.65-0.07-1.31-0.2-1.95
	C311.407,168.835,311.218,168.205,310.968,167.605z"/>
<path d="M274.882,295.153c-1.385-0.301-2.839-0.318-4.272,0h-29.183c-1.434-0.319-2.889-0.302-4.276,0
	c-2.973,0.647-5.62,2.629-6.98,5.612c-2.294,5.024-0.08,10.957,4.945,13.251c0.896,0.409,1.803,0.786,2.716,1.14
	c5.852,2.269,12.019,3.408,18.186,3.408s12.335-1.139,18.186-3.408c0.913-0.354,1.82-0.73,2.716-1.14
	c5.024-2.293,7.238-8.227,4.944-13.252C280.504,297.782,277.857,295.801,274.882,295.153z"/>
<g>
</g>
<g>
</g>
<g>
</g>
<g>
</g>
<g>
</g>
<g>
</g>
<g>
</g>
<g>
</g>
<g>
</g>
<g>
</g>
<g>
</g>
<g>
</g>
<g>
</g>
<g>
</g>
<g>
</g>
</svg>
