<?xml version="1.0" encoding="iso-8859-1"?>
<!-- Generator: Adobe Illustrator 19.0.0, SVG Export Plug-In . SVG Version: 6.00 Build 0)  -->
<svg version="1.1" id="Capa_1" xmlns="http://www.w3.org/2000/svg" xmlns:xlink="http://www.w3.org/1999/xlink" x="0px" y="0px"
	 viewBox="0 0 511.886 511.886" style="enable-background:new 0 0 511.886 511.886;" xml:space="preserve">
<g>
	<path style="fill:#E57E25;" d="M231.312,53.702L4.134,428.516c-5.361,8.871-5.519,19.944-0.413,28.964
		c5.105,9.02,14.68,14.585,25.045,14.556H483.12c10.365,0.029,19.939-5.535,25.045-14.556c5.105-9.02,4.947-20.093-0.413-28.964
		L280.574,53.702c-5.229-8.601-14.566-13.852-24.631-13.852C245.877,39.85,236.54,45.101,231.312,53.702z"/>
	<path style="fill:#F0C419;" d="M48.571,423.323L248.394,93.642c1.6-2.64,4.462-4.252,7.549-4.252c3.087,0,5.949,1.612,7.549,4.252
		l199.823,329.681c1.652,2.726,1.707,6.131,0.142,8.908c-1.564,2.777-4.504,4.495-7.691,4.496H56.12
		c-3.187,0-6.127-1.718-7.691-4.496C46.865,429.453,46.919,426.048,48.571,423.323z"/>
	<path style="fill:#CBB292;" d="M255.943,339.622c-4.875,0-8.828-3.952-8.828-8.828v-88.276c0-4.875,3.952-8.828,8.828-8.828
		s8.828,3.952,8.828,8.828v88.276C264.771,335.67,260.818,339.622,255.943,339.622z"/>
	<path style="fill:#5E5F62;" d="M255.943,251.346c-32.996,0-43.444-40.28-43.875-41.996c-0.658-2.637-0.065-5.431,1.608-7.573
		c1.673-2.143,4.239-3.395,6.957-3.397h70.621c2.718,0.001,5.284,1.254,6.957,3.397c1.673,2.142,2.266,4.936,1.608,7.573
		C299.387,211.066,288.939,251.346,255.943,251.346z M233.499,216.036c3.573,9.633,12.241,16.451,22.444,17.655
		c10.203-1.204,18.871-8.023,22.444-17.655H233.499z"/>
	<path style="fill:#805333;" d="M414.84,432.312c0.018,0.414-0.012,0.829-0.088,1.236c0.059,0.443,0.029,0.893-0.088,1.324
		c0.014,0.181-0.016,0.363-0.088,0.53c0.014,0.443-0.015,0.887-0.088,1.324H97.047v-4.414c0.019-17.056,13.841-30.878,30.897-30.897
		c1.538-0.017,3.074,0.101,4.59,0.353c2.082-25.164,23.126-44.518,48.375-44.491c1.475-0.002,2.949,0.086,4.414,0.265v-0.265
		c-0.022-15.86,10.546-29.783,25.828-34.026c15.282-4.243,31.516,2.239,39.673,15.841c10.772-7.256,24-9.902,36.734-7.349
		s23.919,10.095,31.061,20.943c5.141-2.813,10.913-4.271,16.772-4.237c16.613-0.003,30.982,11.574,34.516,27.807
		c11.006,3.427,18.49,13.632,18.45,25.159v0.353c13.542,1.916,24.171,12.581,26.041,26.13c0.131,0.581,0.22,1.171,0.265,1.766
		c0.117,0.431,0.147,0.881,0.088,1.324C414.825,431.425,414.854,431.869,414.84,432.312z"/>
</g>
<g>
</g>
<g>
</g>
<g>
</g>
<g>
</g>
<g>
</g>
<g>
</g>
<g>
</g>
<g>
</g>
<g>
</g>
<g>
</g>
<g>
</g>
<g>
</g>
<g>
</g>
<g>
</g>
<g>
</g>
</svg>
